<svg width="20" height="20" viewBox="0 0 20 20" fill="none" xmlns="http://www.w3.org/2000/svg">
<path d="M17.6087 14.8654V12.8261C17.6087 11.7473 16.731 10.8696 15.6522 10.8696H10.4348V9.08367C12.6442 8.76625 14.3479 6.86109 14.3479 4.56523C14.3479 2.04797 12.2999 0 9.78262 0C7.26535 0 5.21738 2.04797 5.21738 4.56523C5.21738 6.86109 6.92102 8.76625 9.13043 9.08367V10.8696H3.91305C2.83422 10.8696 1.95652 11.7473 1.95652 12.8261V14.8654C0.832695 15.1557 0 16.178 0 17.3913C0 18.8297 1.17027 20 2.60871 20C4.04715 20 5.21742 18.8297 5.21742 17.3913C5.21742 16.178 4.38473 15.1557 3.2609 14.8654V12.8261C3.2609 12.4665 3.55348 12.1739 3.91309 12.1739H9.13047V14.8652C8.0066 15.1555 7.17395 16.178 7.17395 17.3913C7.17391 18.8297 8.34418 20 9.78262 20C11.2211 20 12.3913 18.8297 12.3913 17.3913C12.3913 16.178 11.5587 15.1555 10.4348 14.8652V12.1739H15.6522C16.0118 12.1739 16.3044 12.4665 16.3044 12.8261V14.8654C15.1805 15.1557 14.3479 16.178 14.3479 17.3913C14.3479 18.8297 15.5181 20 16.9566 20C18.395 20 19.5653 18.8297 19.5653 17.3913C19.5652 16.178 18.7325 15.1557 17.6087 14.8654ZM3.91305 17.3913C3.91305 18.1105 3.32793 18.6956 2.60871 18.6956C1.88949 18.6956 1.30438 18.1105 1.30438 17.3913C1.30438 16.6721 1.88949 16.087 2.60871 16.087C3.32793 16.087 3.91305 16.6721 3.91305 17.3913ZM11.087 17.3913C11.087 18.1105 10.5018 18.6956 9.78262 18.6956C9.0634 18.6956 8.47828 18.1105 8.47828 17.3913C8.47828 16.6721 9.0634 16.087 9.78262 16.087C10.5018 16.087 11.087 16.6721 11.087 17.3913ZM9.78262 7.82609C7.98457 7.82609 6.52176 6.36328 6.52176 4.56523C6.52176 2.76719 7.98457 1.30434 9.78262 1.30434C11.5807 1.30434 13.0435 2.76715 13.0435 4.5652C13.0435 6.36324 11.5807 7.82609 9.78262 7.82609ZM16.9565 18.6957C16.2373 18.6957 15.6522 18.1105 15.6522 17.3913C15.6522 16.6721 16.2373 16.087 16.9565 16.087C17.6757 16.087 18.2609 16.6721 18.2609 17.3913C18.2609 18.1105 17.6757 18.6957 16.9565 18.6957Z" fill="#1E1E1E"/>
</svg>
