<svg width="95" height="28" viewBox="0 0 95 28" fill="none" xmlns="http://www.w3.org/2000/svg">
<path fill-rule="evenodd" clip-rule="evenodd" d="M0 5.99938C0 5.6811 0.126435 5.37586 0.35149 5.15081C0.576546 4.92575 0.881787 4.79932 1.20006 4.79932H23.4015C23.7198 4.79932 24.025 4.92575 24.2501 5.15081C24.4751 5.37586 24.6016 5.6811 24.6016 5.99938C24.6016 6.31766 24.4751 6.6229 24.2501 6.84795C24.025 7.07301 23.7198 7.19944 23.4015 7.19944H1.20006C0.881787 7.19944 0.576546 7.07301 0.35149 6.84795C0.126435 6.6229 0 6.31766 0 5.99938ZM0 13.9998C0 13.6815 0.126435 13.3763 0.35149 13.1512C0.576546 12.9262 0.881787 12.7997 1.20006 12.7997H11.6008C11.9191 12.7997 12.2243 12.9262 12.4494 13.1512C12.6744 13.3763 12.8009 13.6815 12.8009 13.9998C12.8009 14.3181 12.6744 14.6233 12.4494 14.8484C12.2243 15.0734 11.9191 15.1999 11.6008 15.1999H1.20006C0.881787 15.1999 0.576546 15.0734 0.35149 14.8484C0.126435 14.6233 0 14.3181 0 13.9998ZM0 22.0002C0 21.6819 0.126435 21.3767 0.35149 21.1517C0.576546 20.9266 0.881787 20.8002 1.20006 20.8002H10.0007C10.319 20.8002 10.6243 20.9266 10.8493 21.1517C11.0744 21.3767 11.2008 21.6819 11.2008 22.0002C11.2008 22.3185 11.0744 22.6237 10.8493 22.8488C10.6243 23.0739 10.319 23.2003 10.0007 23.2003H1.20006C0.881787 23.2003 0.576546 23.0739 0.35149 22.8488C0.126435 22.6237 0 22.3185 0 22.0002Z" fill="#1E1E1E"/>
<path d="M20.0589 10.6995L20.0589 21.4308C20.0589 21.9281 19.6559 22.3311 19.1586 22.3311C18.6613 22.3311 18.2583 21.9281 18.2583 21.4308L18.2583 10.6995C18.2583 10.2022 18.6613 9.79921 19.1586 9.79921C19.6559 9.79921 20.0589 10.2022 20.0589 10.6995Z" fill="#1E1E1E"/>
<path d="M24.3172 17.308C24.3172 17.5269 24.2376 17.7466 24.077 17.9198L19.8187 22.5112C19.7337 22.6028 19.6306 22.6758 19.5159 22.7254C19.4012 22.775 19.2774 22.8001 19.1525 22.7993C19.0275 22.7984 18.9041 22.7716 18.7901 22.7204C18.6761 22.6693 18.574 22.595 18.4902 22.5022L14.2319 17.7848C13.8988 17.4157 13.928 16.8463 14.2971 16.5132C14.6662 16.1801 15.2356 16.2093 15.5687 16.5784L19.1676 20.5655L22.7568 16.6954C23.095 16.331 23.6647 16.3094 24.0291 16.6475C24.2203 16.8251 24.3172 17.066 24.3172 17.308Z" fill="#1E1E1E"/>
<path d="M37.8345 8.81818H39.3061L42.7663 17.2699H42.8857L46.3459 8.81818H47.8175V19H46.6641V11.2642H46.5646L43.3828 19H42.2692L39.0874 11.2642H38.9879V19H37.8345V8.81818ZM56.335 10.7869H57.4288C57.4288 11.5426 57.2631 12.1425 56.9316 12.5866C56.6035 13.0308 56.0268 13.2528 55.2015 13.2528V12.4176C55.533 12.4176 55.7782 12.3497 55.9373 12.2138C56.0997 12.0779 56.2058 11.8873 56.2555 11.642C56.3085 11.3968 56.335 11.1117 56.335 10.7869ZM53.2328 19.1591C52.5434 19.1591 51.9385 18.995 51.4181 18.6669C50.9011 18.3388 50.4967 17.8797 50.2051 17.2898C49.9167 16.6998 49.7725 16.0104 49.7725 15.2216C49.7725 14.4261 49.9167 13.7318 50.2051 13.1385C50.4967 12.5452 50.9011 12.0845 51.4181 11.7564C51.9385 11.4283 52.5434 11.2642 53.2328 11.2642C53.9222 11.2642 54.5254 11.4283 55.0424 11.7564C55.5628 12.0845 55.9672 12.5452 56.2555 13.1385C56.5472 13.7318 56.693 14.4261 56.693 15.2216C56.693 16.0104 56.5472 16.6998 56.2555 17.2898C55.9672 17.8797 55.5628 18.3388 55.0424 18.6669C54.5254 18.995 53.9222 19.1591 53.2328 19.1591ZM53.2328 18.1051C53.7565 18.1051 54.1873 17.9709 54.5254 17.7024C54.8635 17.4339 55.1137 17.081 55.2761 16.6435C55.4385 16.206 55.5197 15.732 55.5197 15.2216C55.5197 14.7112 55.4385 14.2356 55.2761 13.7947C55.1137 13.3539 54.8635 12.9976 54.5254 12.7259C54.1873 12.4541 53.7565 12.3182 53.2328 12.3182C52.7091 12.3182 52.2782 12.4541 51.9402 12.7259C51.6021 12.9976 51.3519 13.3539 51.1895 13.7947C51.027 14.2356 50.9458 14.7112 50.9458 15.2216C50.9458 15.732 51.027 16.206 51.1895 16.6435C51.3519 17.081 51.6021 17.4339 51.9402 17.7024C52.2782 17.9709 52.7091 18.1051 53.2328 18.1051ZM52.6958 10.3295L53.9089 8.02273H55.2811L53.7299 10.3295H52.6958ZM58.4977 19V11.3636H59.671V19H58.4977ZM59.0943 10.0909C58.8656 10.0909 58.6684 10.013 58.5027 9.85724C58.3403 9.70147 58.2591 9.5142 58.2591 9.29545C58.2591 9.0767 58.3403 8.88944 58.5027 8.73366C58.6684 8.57789 58.8656 8.5 59.0943 8.5C59.323 8.5 59.5185 8.57789 59.6809 8.73366C59.8467 8.88944 59.9295 9.0767 59.9295 9.29545C59.9295 9.5142 59.8467 9.70147 59.6809 9.85724C59.5185 10.013 59.323 10.0909 59.0943 10.0909ZM66.9308 14.4062V19H65.7575V11.3636H66.891V12.5568H66.9904C67.1694 12.169 67.4412 11.8575 67.8058 11.6222C68.1703 11.3835 68.641 11.2642 69.2177 11.2642C69.7347 11.2642 70.1871 11.3703 70.5749 11.5824C70.9627 11.7912 71.2643 12.1094 71.4798 12.5369C71.6952 12.9612 71.8029 13.4981 71.8029 14.1477V19H70.6296V14.2273C70.6296 13.6274 70.4738 13.16 70.1623 12.8253C69.8507 12.4872 69.4232 12.3182 68.8796 12.3182C68.5051 12.3182 68.1703 12.3994 67.8754 12.5618C67.5837 12.7242 67.3533 12.9612 67.1843 13.2727C67.0153 13.5843 66.9308 13.9621 66.9308 14.4062ZM75.1202 14.4062V19H73.9469V8.81818H75.1202V12.5568H75.2196C75.3986 12.1624 75.6671 11.8492 76.025 11.6172C76.3863 11.3819 76.8669 11.2642 77.4668 11.2642C77.9872 11.2642 78.4429 11.3686 78.834 11.5774C79.2251 11.7829 79.5284 12.0994 79.7438 12.527C79.9625 12.9512 80.0719 13.4915 80.0719 14.1477V19H78.8986V14.2273C78.8986 13.6207 78.7412 13.1518 78.4263 12.8203C78.1148 12.4856 77.6822 12.3182 77.1287 12.3182C76.7443 12.3182 76.3996 12.3994 76.0946 12.5618C75.793 12.7242 75.5544 12.9612 75.3787 13.2727C75.2064 13.5843 75.1202 13.9621 75.1202 14.4062ZM84.4656 19.179C83.9817 19.179 83.5425 19.0878 83.1481 18.9055C82.7537 18.7199 82.4405 18.4531 82.2085 18.1051C81.9764 17.7538 81.8604 17.3295 81.8604 16.8324C81.8604 16.3949 81.9466 16.0402 82.119 15.7685C82.2913 15.4934 82.5217 15.2779 82.81 15.1222C83.0984 14.9664 83.4165 14.8504 83.7646 14.7741C84.1159 14.6946 84.4689 14.6316 84.8235 14.5852C85.2875 14.5256 85.6637 14.4808 85.9521 14.451C86.2437 14.4179 86.4558 14.3632 86.5884 14.2869C86.7243 14.2107 86.7923 14.0781 86.7923 13.8892V13.8494C86.7923 13.3589 86.658 12.9777 86.3896 12.706C86.1244 12.4342 85.7217 12.2983 85.1815 12.2983C84.6213 12.2983 84.1822 12.4209 83.864 12.6662C83.5458 12.9115 83.3221 13.1733 83.1928 13.4517L82.0792 13.054C82.2781 12.59 82.5432 12.2287 82.8746 11.9702C83.2094 11.7083 83.574 11.526 83.9684 11.4233C84.3661 11.3172 84.7572 11.2642 85.1417 11.2642C85.387 11.2642 85.6687 11.294 85.9869 11.3537C86.3084 11.41 86.6183 11.5277 86.9165 11.7067C87.2182 11.8857 87.4684 12.1558 87.6673 12.517C87.8661 12.8783 87.9656 13.3622 87.9656 13.9688V19H86.7923V17.9659H86.7326C86.6531 18.1316 86.5205 18.3089 86.3349 18.4979C86.1493 18.6868 85.9023 18.8475 85.5941 18.9801C85.2859 19.1127 84.9097 19.179 84.4656 19.179ZM84.6445 18.125C85.1085 18.125 85.4996 18.0339 85.8178 17.8516C86.1393 17.6693 86.3813 17.4339 86.5437 17.1456C86.7094 16.8572 86.7923 16.554 86.7923 16.2358V15.1619C86.7425 15.2216 86.6332 15.2763 86.4641 15.326C86.2984 15.3724 86.1062 15.4138 85.8874 15.4503C85.672 15.4834 85.4615 15.5133 85.256 15.5398C85.0539 15.563 84.8898 15.5829 84.7638 15.5994C84.4589 15.6392 84.1739 15.7038 83.9087 15.7933C83.6469 15.8795 83.4348 16.0104 83.2724 16.1861C83.1133 16.3584 83.0337 16.5937 83.0337 16.892C83.0337 17.2997 83.1845 17.608 83.4862 17.8168C83.7911 18.0223 84.1772 18.125 84.6445 18.125ZM82.6559 10.4091L84.6843 8.59943H85.7781L87.8065 10.4091H86.3746L85.2411 9.35511L84.1076 10.4091H82.6559ZM87.2695 9.19602L88.244 7.40625H89.6957L88.3036 9.19602H87.2695ZM93.4281 11.3636V12.358H89.4707V11.3636H93.4281ZM90.6241 9.53409H91.7974V16.8125C91.7974 17.1439 91.8455 17.3925 91.9416 17.5582C92.041 17.7206 92.167 17.83 92.3194 17.8864C92.4752 17.9394 92.6393 17.9659 92.8116 17.9659C92.9409 17.9659 93.0469 17.9593 93.1298 17.946C93.2127 17.9295 93.2789 17.9162 93.3287 17.9062L93.5673 18.9602C93.4877 18.9901 93.3767 19.0199 93.2342 19.0497C93.0917 19.0829 92.911 19.0994 92.6923 19.0994C92.3609 19.0994 92.036 19.0282 91.7179 18.8857C91.403 18.7431 91.1412 18.526 90.9324 18.2344C90.7269 17.9427 90.6241 17.5748 90.6241 17.1307V9.53409Z" fill="#222222"/>
</svg>
