<svg width="25" height="20" viewBox="0 0 25 20" fill="none" xmlns="http://www.w3.org/2000/svg">
<path fill-rule="evenodd" clip-rule="evenodd" d="M0 1.99938C0 1.6811 0.126435 1.37586 0.35149 1.15081C0.576546 0.925751 0.881787 0.799316 1.20006 0.799316H23.4015C23.7198 0.799316 24.025 0.925751 24.2501 1.15081C24.4751 1.37586 24.6016 1.6811 24.6016 1.99938C24.6016 2.31766 24.4751 2.6229 24.2501 2.84795C24.025 3.07301 23.7198 3.19944 23.4015 3.19944H1.20006C0.881787 3.19944 0.576546 3.07301 0.35149 2.84795C0.126435 2.6229 0 2.31766 0 1.99938ZM0 9.9998C0 9.68153 0.126435 9.37629 0.35149 9.15123C0.576546 8.92617 0.881787 8.79974 1.20006 8.79974H11.6008C11.9191 8.79974 12.2243 8.92617 12.4494 9.15123C12.6744 9.37629 12.8009 9.68153 12.8009 9.9998C12.8009 10.3181 12.6744 10.6233 12.4494 10.8484C12.2243 11.0734 11.9191 11.1999 11.6008 11.1999H1.20006C0.881787 11.1999 0.576546 11.0734 0.35149 10.8484C0.126435 10.6233 0 10.3181 0 9.9998ZM0 18.0002C0 17.6819 0.126435 17.3767 0.35149 17.1517C0.576546 16.9266 0.881787 16.8002 1.20006 16.8002H10.0007C10.319 16.8002 10.6243 16.9266 10.8493 17.1517C11.0744 17.3767 11.2008 17.6819 11.2008 18.0002C11.2008 18.3185 11.0744 18.6237 10.8493 18.8488C10.6243 19.0739 10.319 19.2003 10.0007 19.2003H1.20006C0.881787 19.2003 0.576546 19.0739 0.35149 18.8488C0.126435 18.6237 0 18.3185 0 18.0002Z" fill="#1E1E1E"/>
<path d="M20.0589 6.69949L20.0589 17.4308C20.0589 17.9281 19.6559 18.3311 19.1586 18.3311C18.6613 18.3311 18.2583 17.9281 18.2583 17.4308L18.2583 6.69949C18.2583 6.20218 18.6613 5.79921 19.1586 5.79921C19.6559 5.79921 20.0589 6.20218 20.0589 6.69949Z" fill="#1E1E1E"/>
<path d="M24.3172 13.308C24.3172 13.5269 24.2376 13.7466 24.077 13.9198L19.8187 18.5112C19.7337 18.6028 19.6306 18.6758 19.5159 18.7254C19.4012 18.775 19.2774 18.8001 19.1525 18.7993C19.0275 18.7984 18.9041 18.7716 18.7901 18.7204C18.6761 18.6693 18.574 18.595 18.4902 18.5022L14.2319 13.7848C13.8988 13.4157 13.928 12.8463 14.2971 12.5132C14.6662 12.1801 15.2356 12.2093 15.5687 12.5784L19.1676 16.5655L22.7568 12.6954C23.095 12.331 23.6647 12.3094 24.0291 12.6475C24.2203 12.8251 24.3172 13.066 24.3172 13.308Z" fill="#1E1E1E"/>
</svg>
