<svg width="10" height="10" viewBox="0 0 10 10" fill="none" xmlns="http://www.w3.org/2000/svg">
<path d="M9.75394 4.40623L5.59429 0.246086C5.26621 -0.0820288 4.73412 -0.0820288 4.40604 0.246086C4.07797 0.574202 4.07797 1.10635 4.40604 1.43447L7.97119 5.00001L4.40604 8.56553C4.07797 8.89365 4.07797 9.4258 4.40604 9.75391C4.73412 10.082 5.26621 10.082 5.59429 9.75391L9.75394 5.59378C10.082 5.26648 10.082 4.73435 9.75394 4.40623ZM4.75244 4.15432L1.45003 0.673311C1.11819 0.323969 0.580712 0.323969 0.248877 0.673311C-0.0829589 1.02265 -0.0829589 1.58937 0.248877 1.93913L2.95093 4.78723L0.248877 7.63532C-0.0829589 7.98468 -0.0829589 8.55179 0.248877 8.90115C0.580712 9.25051 1.11819 9.25051 1.45003 8.90115L4.75244 5.42014C5.08427 5.0708 5.08427 4.50409 4.75244 4.15432Z" fill="#006EE6"/>
</svg>
