<svg width="89" height="28" viewBox="0 0 89 28" fill="none" xmlns="http://www.w3.org/2000/svg">
<path fill-rule="evenodd" clip-rule="evenodd" d="M0 5.99938C0 5.6811 0.126435 5.37586 0.35149 5.15081C0.576546 4.92575 0.881787 4.79932 1.20006 4.79932H23.4015C23.7198 4.79932 24.025 4.92575 24.2501 5.15081C24.4751 5.37586 24.6016 5.6811 24.6016 5.99938C24.6016 6.31766 24.4751 6.6229 24.2501 6.84795C24.025 7.07301 23.7198 7.19944 23.4015 7.19944H1.20006C0.881787 7.19944 0.576546 7.07301 0.35149 6.84795C0.126435 6.6229 0 6.31766 0 5.99938ZM0 13.9998C0 13.6815 0.126435 13.3763 0.35149 13.1512C0.576546 12.9262 0.881787 12.7997 1.20006 12.7997H11.6008C11.9191 12.7997 12.2243 12.9262 12.4494 13.1512C12.6744 13.3763 12.8009 13.6815 12.8009 13.9998C12.8009 14.3181 12.6744 14.6233 12.4494 14.8484C12.2243 15.0734 11.9191 15.1999 11.6008 15.1999H1.20006C0.881787 15.1999 0.576546 15.0734 0.35149 14.8484C0.126435 14.6233 0 14.3181 0 13.9998ZM0 22.0002C0 21.6819 0.126435 21.3767 0.35149 21.1517C0.576546 20.9266 0.881787 20.8002 1.20006 20.8002H10.0007C10.319 20.8002 10.6243 20.9266 10.8493 21.1517C11.0744 21.3767 11.2008 21.6819 11.2008 22.0002C11.2008 22.3185 11.0744 22.6237 10.8493 22.8488C10.6243 23.0739 10.319 23.2003 10.0007 23.2003H1.20006C0.881787 23.2003 0.576546 23.0739 0.35149 22.8488C0.126435 22.6237 0 22.3185 0 22.0002Z" fill="#1E1E1E"/>
<path d="M20.0589 21.8991L20.0589 11.1679C20.0589 10.6705 19.6559 10.2676 19.1586 10.2676C18.6613 10.2676 18.2583 10.6705 18.2583 11.1679L18.2583 21.8991C18.2583 22.3965 18.6613 22.7994 19.1586 22.7994C19.6559 22.7994 20.0589 22.3965 20.0589 21.8991Z" fill="#1E1E1E"/>
<path d="M24.3172 15.2907C24.3172 15.0717 24.2376 14.852 24.077 14.6788L19.8187 10.0874C19.7337 9.99579 19.6306 9.92286 19.5159 9.87326C19.4012 9.82367 19.2774 9.79849 19.1525 9.79934C19.0275 9.80018 18.9041 9.82704 18.7901 9.87818C18.6761 9.92933 18.574 10.0037 18.4902 10.0964L14.2319 14.8139C13.8988 15.183 13.928 15.7523 14.2971 16.0854C14.6662 16.4185 15.2356 16.3893 15.5687 16.0202L19.1676 12.0331L22.7568 15.9032C23.095 16.2676 23.6647 16.2892 24.0291 15.9511C24.2203 15.7736 24.3172 15.5326 24.3172 15.2907Z" fill="#1E1E1E"/>
<path d="M46.0277 12H44.7947C44.7218 11.6454 44.5942 11.3338 44.4119 11.0653C44.233 10.7969 44.0142 10.5715 43.7557 10.3892C43.5005 10.2036 43.2171 10.0644 42.9055 9.97159C42.594 9.87879 42.2692 9.83239 41.9311 9.83239C41.3146 9.83239 40.7562 9.98816 40.2557 10.2997C39.7585 10.6113 39.3625 11.0703 39.0675 11.6768C38.7758 12.2834 38.63 13.0275 38.63 13.9091C38.63 14.7907 38.7758 15.5348 39.0675 16.1413C39.3625 16.7479 39.7585 17.2069 40.2557 17.5185C40.7562 17.83 41.3146 17.9858 41.9311 17.9858C42.2692 17.9858 42.594 17.9394 42.9055 17.8466C43.2171 17.7538 43.5005 17.6162 43.7557 17.4339C44.0142 17.2483 44.233 17.0213 44.4119 16.7528C44.5942 16.4811 44.7218 16.1695 44.7947 15.8182H46.0277C45.9349 16.3385 45.7659 16.8042 45.5206 17.2152C45.2753 17.6262 44.9704 17.9759 44.6058 18.2642C44.2412 18.5492 43.8319 18.7663 43.3778 18.9155C42.9271 19.0646 42.4448 19.1392 41.9311 19.1392C41.0627 19.1392 40.2905 18.9271 39.6143 18.5028C38.9382 18.0786 38.4063 17.4754 38.0185 16.6932C37.6307 15.911 37.4368 14.983 37.4368 13.9091C37.4368 12.8352 37.6307 11.9072 38.0185 11.125C38.4063 10.3428 38.9382 9.73958 39.6143 9.31534C40.2905 8.8911 41.0627 8.67898 41.9311 8.67898C42.4448 8.67898 42.9271 8.75355 43.3778 8.9027C43.8319 9.05185 44.2412 9.2706 44.6058 9.55895C44.9704 9.84399 45.2753 10.192 45.5206 10.603C45.7659 11.0107 45.9349 11.4763 46.0277 12ZM52.6735 15.8778V11.3636H53.8468V19H52.6735V17.7074H52.5939C52.415 18.0952 52.1365 18.425 51.7587 18.6967C51.3809 18.9652 50.9036 19.0994 50.3269 19.0994C49.8496 19.0994 49.4254 18.995 49.0542 18.7862C48.6829 18.5741 48.3913 18.2559 48.1792 17.8317C47.967 17.4041 47.861 16.8655 47.861 16.2159V11.3636H49.0343V16.1364C49.0343 16.6932 49.19 17.1373 49.5016 17.4688C49.8165 17.8002 50.2175 17.9659 50.7047 17.9659C50.9964 17.9659 51.293 17.8913 51.5946 17.7422C51.8996 17.593 52.1548 17.3643 52.3603 17.0561C52.5691 16.7479 52.6735 16.3551 52.6735 15.8778ZM49.3326 10.4489L48.4178 10.4091C48.4178 9.90199 48.562 9.48769 48.8503 9.16619C49.142 8.84138 49.5016 8.67898 49.9292 8.67898C50.1181 8.67898 50.2855 8.71212 50.4313 8.77841C50.5771 8.84138 50.7163 8.9143 50.8489 8.99716C50.9815 9.08002 51.1174 9.15459 51.2566 9.22088C51.3991 9.28385 51.5598 9.31534 51.7388 9.31534C51.9277 9.31534 52.0868 9.24242 52.2161 9.09659C52.3487 8.94744 52.415 8.76847 52.415 8.55966L53.3098 8.6392C53.3098 9.15625 53.164 9.56723 52.8723 9.87216C52.584 10.1771 52.226 10.3295 51.7985 10.3295C51.5698 10.3295 51.3809 10.2981 51.2317 10.2351C51.0826 10.1688 50.95 10.0942 50.834 10.0114C50.718 9.9285 50.5953 9.85559 50.4661 9.79261C50.3368 9.72633 50.1777 9.69318 49.9888 9.69318C49.7999 9.69318 49.6425 9.76776 49.5165 9.9169C49.3939 10.0627 49.3326 10.2401 49.3326 10.4489ZM61.1065 14.4062V19H59.9332V11.3636H61.0668V12.5568H61.1662C61.3452 12.169 61.617 11.8575 61.9815 11.6222C62.3461 11.3835 62.8168 11.2642 63.3935 11.2642C63.9105 11.2642 64.3629 11.3703 64.7507 11.5824C65.1385 11.7912 65.4401 12.1094 65.6555 12.5369C65.871 12.9612 65.9787 13.4981 65.9787 14.1477V19H64.8054V14.2273C64.8054 13.6274 64.6496 13.16 64.3381 12.8253C64.0265 12.4872 63.599 12.3182 63.0554 12.3182C62.6809 12.3182 62.3461 12.3994 62.0511 12.5618C61.7595 12.7242 61.5291 12.9612 61.3601 13.2727C61.1911 13.5843 61.1065 13.9621 61.1065 14.4062ZM69.296 14.4062V19H68.1227V8.81818H69.296V12.5568H69.3954C69.5744 12.1624 69.8429 11.8492 70.2008 11.6172C70.5621 11.3819 71.0427 11.2642 71.6426 11.2642C72.1629 11.2642 72.6187 11.3686 73.0098 11.5774C73.4009 11.7829 73.7041 12.0994 73.9196 12.527C74.1383 12.9512 74.2477 13.4915 74.2477 14.1477V19H73.0744V14.2273C73.0744 13.6207 72.917 13.1518 72.6021 12.8203C72.2905 12.4856 71.858 12.3182 71.3045 12.3182C70.92 12.3182 70.5753 12.3994 70.2704 12.5618C69.9688 12.7242 69.7302 12.9612 69.5545 13.2727C69.3822 13.5843 69.296 13.9621 69.296 14.4062ZM78.6413 19.179C78.1574 19.179 77.7183 19.0878 77.3239 18.9055C76.9295 18.7199 76.6162 18.4531 76.3842 18.1051C76.1522 17.7538 76.0362 17.3295 76.0362 16.8324C76.0362 16.3949 76.1224 16.0402 76.2947 15.7685C76.4671 15.4934 76.6974 15.2779 76.9858 15.1222C77.2741 14.9664 77.5923 14.8504 77.9403 14.7741C78.2917 14.6946 78.6446 14.6316 78.9993 14.5852C79.4633 14.5256 79.8395 14.4808 80.1278 14.451C80.4195 14.4179 80.6316 14.3632 80.7642 14.2869C80.9001 14.2107 80.968 14.0781 80.968 13.8892V13.8494C80.968 13.3589 80.8338 12.9777 80.5653 12.706C80.3002 12.4342 79.8975 12.2983 79.3572 12.2983C78.7971 12.2983 78.358 12.4209 78.0398 12.6662C77.7216 12.9115 77.4979 13.1733 77.3686 13.4517L76.255 13.054C76.4538 12.59 76.719 12.2287 77.0504 11.9702C77.3852 11.7083 77.7498 11.526 78.1442 11.4233C78.5419 11.3172 78.933 11.2642 79.3175 11.2642C79.5627 11.2642 79.8445 11.294 80.1626 11.3537C80.4841 11.41 80.794 11.5277 81.0923 11.7067C81.3939 11.8857 81.6442 12.1558 81.843 12.517C82.0419 12.8783 82.1413 13.3622 82.1413 13.9688V19H80.968V17.9659H80.9084C80.8288 18.1316 80.6963 18.3089 80.5107 18.4979C80.325 18.6868 80.0781 18.8475 79.7699 18.9801C79.4616 19.1127 79.0855 19.179 78.6413 19.179ZM78.8203 18.125C79.2843 18.125 79.6754 18.0339 79.9936 17.8516C80.3151 17.6693 80.5571 17.4339 80.7195 17.1456C80.8852 16.8572 80.968 16.554 80.968 16.2358V15.1619C80.9183 15.2216 80.8089 15.2763 80.6399 15.326C80.4742 15.3724 80.282 15.4138 80.0632 15.4503C79.8478 15.4834 79.6373 15.5133 79.4318 15.5398C79.2296 15.563 79.0656 15.5829 78.9396 15.5994C78.6347 15.6392 78.3497 15.7038 78.0845 15.7933C77.8227 15.8795 77.6106 16.0104 77.4482 16.1861C77.2891 16.3584 77.2095 16.5937 77.2095 16.892C77.2095 17.2997 77.3603 17.608 77.6619 17.8168C77.9669 18.0223 78.353 18.125 78.8203 18.125ZM76.8317 10.4091L78.8601 8.59943H79.9538L81.9822 10.4091H80.5504L79.4169 9.35511L78.2834 10.4091H76.8317ZM81.4453 9.19602L82.4197 7.40625H83.8714L82.4794 9.19602H81.4453ZM87.6039 11.3636V12.358H83.6465V11.3636H87.6039ZM84.7999 9.53409H85.9732V16.8125C85.9732 17.1439 86.0212 17.3925 86.1174 17.5582C86.2168 17.7206 86.3427 17.83 86.4952 17.8864C86.651 17.9394 86.815 17.9659 86.9874 17.9659C87.1167 17.9659 87.2227 17.9593 87.3056 17.946C87.3884 17.9295 87.4547 17.9162 87.5044 17.9062L87.7431 18.9602C87.6635 18.9901 87.5525 19.0199 87.41 19.0497C87.2675 19.0829 87.0868 19.0994 86.8681 19.0994C86.5366 19.0994 86.2118 19.0282 85.8936 18.8857C85.5788 18.7431 85.3169 18.526 85.1081 18.2344C84.9026 17.9427 84.7999 17.5748 84.7999 17.1307V9.53409Z" fill="#222222"/>
</svg>
