<svg width="10" height="10" viewBox="0 0 10 10" fill="none" xmlns="http://www.w3.org/2000/svg">
<path d="M0.246058 4.40623L4.40571 0.246086C4.73379 -0.0820288 5.26588 -0.0820288 5.59396 0.246086C5.92203 0.574202 5.92203 1.10635 5.59396 1.43447L2.02881 5.00001L5.59396 8.56553C5.92203 8.89365 5.92203 9.4258 5.59396 9.75391C5.26588 10.082 4.73379 10.082 4.40571 9.75391L0.246058 5.59378C-0.0820198 5.26648 -0.0820198 4.73435 0.246058 4.40623ZM5.24756 4.15432L8.54997 0.673311C8.88181 0.323969 9.41929 0.323969 9.75112 0.673311C10.083 1.02265 10.083 1.58937 9.75112 1.93913L7.04907 4.78723L9.75112 7.63532C10.083 7.98468 10.083 8.55179 9.75112 8.90115C9.41929 9.25051 8.88181 9.25051 8.54997 8.90115L5.24756 5.42014C4.91573 5.0708 4.91573 4.50409 5.24756 4.15432Z" fill="#006EE6"/>
</svg>
