<svg width="20" height="20" viewBox="0 0 20 20" fill="none" xmlns="http://www.w3.org/2000/svg">
<path d="M17.8571 2.14286H15.7143V0.714299C15.7143 0.319796 15.3945 0 15 0C14.6055 0 14.2857 0.319796 14.2857 0.714299V2.14286H5.71427V0.714299C5.71427 0.319796 5.39447 0 5.00001 0C4.60555 0 4.28571 0.319796 4.28571 0.714299V2.14286H2.14286C0.959388 2.14286 0 3.10224 0 4.28571V17.8571C0 19.0406 0.959388 20 2.14286 20H17.8571C19.0406 20 20 19.0406 20 17.8571V4.28571C20 3.10224 19.0406 2.14286 17.8571 2.14286ZM18.5714 17.8571C18.5714 18.2516 18.2516 18.5714 17.8571 18.5714H2.14286C1.74835 18.5714 1.42856 18.2516 1.42856 17.8571V8.57142H18.5714V17.8571ZM18.5714 7.14287H1.42856V4.28571C1.42856 3.89121 1.74835 3.57141 2.14286 3.57141H4.28571V4.99997C4.28571 5.39447 4.60551 5.71427 5.00001 5.71427C5.39451 5.71427 5.71431 5.39447 5.71431 4.99997V3.57141H14.2857V4.99997C14.2857 5.39447 14.6055 5.71427 15 5.71427C15.3945 5.71427 15.7143 5.39447 15.7143 4.99997V3.57141H17.8572C18.2517 3.57141 18.5715 3.89121 18.5715 4.28571V7.14287H18.5714Z" fill="#1E1E1E"/>
<path d="M5.71335 10H4.28479C3.89029 10 3.5705 10.3198 3.5705 10.7143C3.5705 11.1088 3.89029 11.4286 4.28479 11.4286H5.71335C6.10785 11.4286 6.42765 11.1088 6.42765 10.7143C6.42765 10.3198 6.10785 10 5.71335 10ZM10.7134 10H9.28481C8.8903 10 8.57051 10.3198 8.57051 10.7143C8.57051 11.1088 8.8903 11.4286 9.28481 11.4286H10.7134C11.1079 11.4286 11.4277 11.1088 11.4277 10.7143C11.4277 10.3198 11.1079 10 10.7134 10ZM15.7134 10H14.2848C13.8903 10 13.5705 10.3198 13.5705 10.7143C13.5705 11.1088 13.8903 11.4286 14.2848 11.4286H15.7134C16.1079 11.4286 16.4277 11.1088 16.4277 10.7143C16.4276 10.3198 16.1078 10 15.7134 10ZM5.71335 12.8572H4.28479C3.89029 12.8572 3.5705 13.177 3.5705 13.5715C3.5705 13.966 3.89029 14.2858 4.28479 14.2858H5.71335C6.10785 14.2858 6.42765 13.966 6.42765 13.5715C6.42765 13.177 6.10785 12.8572 5.71335 12.8572ZM10.7134 12.8572H9.28481C8.8903 12.8572 8.57051 13.177 8.57051 13.5715C8.57051 13.966 8.8903 14.2858 9.28481 14.2858H10.7134C11.1079 14.2858 11.4277 13.966 11.4277 13.5715C11.4277 13.177 11.1079 12.8572 10.7134 12.8572ZM15.7134 12.8572H14.2848C13.8903 12.8572 13.5705 13.177 13.5705 13.5715C13.5705 13.966 13.8903 14.2858 14.2848 14.2858H15.7134C16.1079 14.2858 16.4277 13.966 16.4277 13.5715C16.4276 13.177 16.1078 12.8572 15.7134 12.8572ZM5.71335 15.7143H4.28479C3.89029 15.7143 3.5705 16.0341 3.5705 16.4286C3.5705 16.8231 3.89029 17.1429 4.28479 17.1429H5.71335C6.10785 17.1429 6.42765 16.8231 6.42765 16.4286C6.42765 16.0341 6.10785 15.7143 5.71335 15.7143ZM10.7134 15.7143H9.28481C8.8903 15.7143 8.57051 16.0341 8.57051 16.4286C8.57051 16.8231 8.8903 17.1429 9.28481 17.1429H10.7134C11.1079 17.1429 11.4277 16.8231 11.4277 16.4286C11.4277 16.0341 11.1079 15.7143 10.7134 15.7143ZM15.7134 15.7143H14.2848C13.8903 15.7143 13.5705 16.0341 13.5705 16.4286C13.5705 16.8231 13.8903 17.1429 14.2848 17.1429H15.7134C16.1079 17.1429 16.4277 16.8231 16.4277 16.4286C16.4277 16.0341 16.1078 15.7143 15.7134 15.7143Z" fill="#1E1E1E"/>
</svg>
