<svg width="24" height="24" viewBox="0 0 24 24" fill="none" xmlns="http://www.w3.org/2000/svg">
<path d="M9.49759 19.3113C11.6068 19.3114 13.6558 18.5955 15.3198 17.2772L21.5977 23.6629C22.0667 24.1236 22.814 24.1104 23.2669 23.6334C23.7088 23.1681 23.7088 22.4303 23.2669 21.965L16.989 15.5793C20.2052 11.3681 19.4562 5.3023 15.3162 2.03089C11.1761 -1.24052 5.21276 -0.478718 1.9966 3.73247C-1.21957 7.94365 -0.470635 14.0095 3.66944 17.2809C5.3362 18.598 7.38697 19.3124 9.49759 19.3113ZM4.45334 4.52615C7.23923 1.69235 11.756 1.6923 14.542 4.52604C17.3279 7.35978 17.328 11.9542 14.5421 14.788C11.7562 17.6218 7.23938 17.6218 4.45345 14.7881L4.45334 14.788C1.66746 11.9749 1.65104 7.39723 4.41663 4.56349L4.45334 4.52615Z" fill="#006EE6"/>
</svg>
