<svg width="18" height="24" viewBox="0 0 18 24" fill="none" xmlns="http://www.w3.org/2000/svg">
<path d="M8.6919 0C3.89916 0 0 3.89916 0 8.69185C0 14.6397 7.7784 23.3716 8.10957 23.7404C8.42064 24.0868 8.96373 24.0862 9.27423 23.7404C9.6054 23.3716 17.3838 14.6397 17.3838 8.69185C17.3837 3.89916 13.4846 0 8.6919 0ZM8.6919 22.0186C6.07407 18.909 1.56525 12.774 1.56525 8.69195C1.56525 4.76222 4.76222 1.56525 8.6919 1.56525C12.6216 1.56525 15.8186 4.76222 15.8186 8.6919C15.8185 12.7742 11.3104 18.908 8.6919 22.0186Z" fill="#006EE6"/>
<path d="M8.69185 4.3186C6.28051 4.3186 4.31879 6.28037 4.31879 8.69172C4.31879 11.1031 6.28055 13.0648 8.69185 13.0648C11.1032 13.0648 13.0649 11.1031 13.0649 8.69172C13.0649 6.28037 11.1032 4.3186 8.69185 4.3186ZM8.69185 11.4996C7.14357 11.4996 5.88404 10.24 5.88404 8.69172C5.88404 7.14344 7.14362 5.88386 8.69185 5.88386C10.2401 5.88386 11.4997 7.14344 11.4997 8.69172C11.4997 10.24 10.2401 11.4996 8.69185 11.4996Z" fill="#006EE6"/>
</svg>
