<svg width="28" height="28" viewBox="0 0 28 28" fill="none" xmlns="http://www.w3.org/2000/svg">
<path d="M11.9903 20.0981L11.6593 21.7532L13.842 21.0256C13.9446 20.9915 14.0556 20.9915 14.1582 21.0256L16.3408 21.7532L16.0098 20.0981C15.996 20.0291 15.997 19.958 16.0125 19.8894C16.0281 19.8208 16.0579 19.7563 16.1001 19.7L17.1241 18.3347L15.4021 17.9902C15.2814 17.9661 15.1739 17.8984 15.1001 17.7999L14 16.3333L12.9 17.8C12.8262 17.8984 12.7187 17.9662 12.5981 17.9903L10.8761 18.3347L11.9 19.7C11.9422 19.7563 11.9721 19.8208 11.9876 19.8894C12.0032 19.958 12.0041 20.0291 11.9903 20.0981ZM10.3063 8L9.52571 5.65812C9.48377 5.53232 9.49353 5.39501 9.55283 5.2764C9.61213 5.15779 9.71612 5.06759 9.84193 5.02566C9.96773 4.98372 10.105 4.99347 10.2237 5.05278C10.3423 5.11208 10.4325 5.21607 10.4744 5.34188L11.3604 8H13.5V5.5C13.5 5.36739 13.5527 5.24021 13.6465 5.14645C13.7402 5.05268 13.8674 5 14 5C14.1326 5 14.2598 5.05268 14.3536 5.14645C14.4473 5.24021 14.5 5.36739 14.5 5.5V8H16.6396L17.5257 5.34188C17.5691 5.21794 17.6595 5.11605 17.7774 5.05821C17.8953 5.00038 18.0312 4.99124 18.1558 5.03276C18.2804 5.07429 18.3836 5.16316 18.4432 5.28017C18.5028 5.39717 18.514 5.53293 18.4744 5.65812L17.6937 8H18.3412C19.0871 7.46544 20.7135 6.1715 21.032 5.32419C21.3413 4.50081 21.9775 2.28644 22.3081 1.11562C22.1149 1.19094 21.9556 1.29706 21.7771 1.41606C21.3869 1.67619 20.9011 2 19.9998 2C18.9997 2 18.5006 1.33463 18.0996 0.8C17.7164 0.289062 17.4763 0 16.9995 0C16.5228 0 16.2828 0.289062 15.8996 0.8C15.4986 1.33469 14.9996 2 13.9996 2C12.9996 2 12.5006 1.33463 12.0996 0.8C11.7165 0.289062 11.4764 0 10.9996 0C10.5229 0 10.2829 0.289062 9.89977 0.8C9.49877 1.33463 8.99977 2 7.99983 2C7.09846 2 6.61283 1.67619 6.22258 1.416C6.04421 1.29712 5.88502 1.19094 5.69189 1.11562C6.02258 2.28638 6.65877 4.50075 6.96814 5.32412C7.28652 6.17144 8.91296 7.46544 9.65883 7.99994H10.3063V8ZM9.72189 9C9.42844 9.32867 9.14029 9.66204 8.85758 10H19.1428C18.86 9.66203 18.5718 9.32865 18.2782 9H9.72189Z" fill="#006EE6"/>
<path d="M14 25C17.0327 25 19.5 22.5327 19.5 19.5C19.5 16.4673 17.0327 14 14 14C10.9673 14 8.5 16.4673 8.5 19.5C8.5 22.5327 10.9673 25 14 25ZM9.53294 17.8216C9.56309 17.7426 9.61275 17.6727 9.67728 17.6181C9.74181 17.5636 9.8191 17.5263 9.90194 17.5098L12.2146 17.0473L13.6 15.2C13.6466 15.1379 13.707 15.0875 13.7764 15.0528C13.8458 15.018 13.9224 15 14 15C14.0776 15 14.1542 15.018 14.2236 15.0528C14.293 15.0875 14.3534 15.1379 14.4 15.2L15.7854 17.0472L18.0981 17.5097C18.1809 17.5263 18.2582 17.5636 18.3227 17.6181C18.3872 17.6726 18.4369 17.7426 18.467 17.8215C18.4972 17.9004 18.5069 17.9857 18.4951 18.0694C18.4834 18.153 18.4507 18.2324 18.4 18.2999L17.0341 20.1211L17.4903 22.4019C17.5075 22.4878 17.5018 22.5766 17.4738 22.6596C17.4459 22.7426 17.3966 22.8168 17.3309 22.8748C17.2653 22.9327 17.1856 22.9725 17.0997 22.9899C17.0139 23.0074 16.925 23.002 16.8419 22.9743L14 22.0271L11.1581 22.9744C11.075 23.0021 10.9861 23.0074 10.9003 22.99C10.8145 22.9725 10.7348 22.9328 10.6691 22.8748C10.6035 22.8169 10.5542 22.7427 10.5262 22.6597C10.4982 22.5767 10.4926 22.4878 10.5098 22.4019L10.9659 20.1212L9.6 18.3C9.5493 18.2324 9.51655 18.1531 9.50482 18.0694C9.4931 17.9858 9.50277 17.9005 9.53294 17.8216Z" fill="#006EE6"/>
<path d="M3.51931 24.0808C3.46012 24.5722 3.50577 25.0705 3.65323 25.543C3.80069 26.0154 4.04662 26.4513 4.37481 26.8217C4.70335 27.1921 5.10666 27.4886 5.55815 27.6916C6.00964 27.8947 6.49906 27.9998 6.99413 28H21.0058C21.5009 27.9998 21.9903 27.8947 22.4418 27.6916C22.8933 27.4885 23.2966 27.192 23.6251 26.8216C23.9533 26.4512 24.1993 26.0154 24.3467 25.5429C24.4942 25.0705 24.5398 24.5721 24.4806 24.0808C24.0235 20.2956 23.6887 17.8855 23.5124 17.1108C23.0863 15.2381 21.3447 12.7553 19.9569 10.9999H8.04344C6.65544 12.7558 4.91344 15.2393 4.48756 17.1108C4.31125 17.8855 3.97644 20.2956 3.51931 24.0808ZM14 13C17.5841 13 20.5 15.9158 20.5 19.5C20.5 23.0841 17.5841 26 14 26C10.4159 26 7.5 23.0841 7.5 19.5C7.5 15.9158 10.4159 13 14 13ZM8.7575 8.57809C8.56 8.80121 8.29688 9.10496 7.9925 9.46996C7.20125 9.74621 6.20813 10.1481 5.22375 10.6975C2.42125 12.26 1 14.2125 1 16.5C1 16.7762 0.77625 17 0.5 17C0.22375 17 0 16.7762 0 16.5C0 13.8543 1.645 11.5418 4.75688 9.81309C6.13125 9.04996 7.49313 8.56121 8.38125 8.28809C8.51813 8.39621 8.645 8.49434 8.7575 8.57809ZM28 16.5C28 16.7762 27.7763 17 27.5 17C27.2237 17 27 16.7762 27 16.5C27 14.2125 25.5788 12.26 22.7763 10.6975C21.7919 10.1487 20.7987 9.74559 20.0069 9.46996C19.7031 9.10496 19.44 8.80121 19.2425 8.57809C19.355 8.49434 19.4819 8.39621 19.6187 8.28809C20.5069 8.56121 21.8688 9.04996 23.2431 9.81309C26.355 11.5418 28 13.8543 28 16.5Z" fill="#006EE6"/>
</svg>
