<svg width="157" height="147" viewBox="0 0 157 147" fill="none" xmlns="http://www.w3.org/2000/svg">
<path d="M143.562 106.149C142.984 105.739 142.405 105.33 141.827 104.92" stroke="#1E1E1E" stroke-miterlimit="10"/>
<path d="M138.429 102.429C127.961 94.6123 118.12 85.616 110.87 74.3889C107.361 68.9566 91.3686 38.7742 106.058 38.6204C119.832 38.4741 122.019 69.7417 100.054 75.3197C82.6785 79.7349 58.1354 72.0696 48.6523 68.673" stroke="#1E1E1E" stroke-miterlimit="10" stroke-dasharray="4.96 4.96"/>
<path d="M46.6656 67.9475C45.3913 67.4694 44.6881 67.178 44.6881 67.178" stroke="#1E1E1E" stroke-miterlimit="10"/>
<path d="M50.2706 53.8326L-2.39687e-05 45.5231L25.2213 73.312L29.24 71.7455L46.5854 86.5766L47.3343 70.0288L41.3939 67.9748L48.4971 66.4193L50.2706 53.8326Z" fill="#007AFF"/>
<path d="M29.2135 71.5819L25.3456 73.2082L0.217735 45.5654L29.2135 71.5819Z" fill="#0062CC"/>
<path d="M48.5596 66.2488L0.218382 45.5655L41.4408 67.9746L48.5596 66.2488Z" fill="#0062CC"/>
</svg>
