<svg width="30" height="32" viewBox="0 0 30 32" fill="none" xmlns="http://www.w3.org/2000/svg">
<path d="M13.3113 14.0269C19.6108 18.3709 27.6931 11.9029 24.8902 4.81138C23.2702 0.394199 17.349 -1.36239 13.5919 1.16163C8.96496 4.0068 8.8221 11.0029 13.3113 14.0269ZM18.1913 8.26112H17.2587C16.7482 8.25787 16.2589 8.0562 15.8943 7.69877C15.5298 7.34133 15.3184 6.85614 15.3051 6.34575C15.2917 5.83535 15.4774 5.33977 15.8228 4.96375C16.1681 4.58774 16.6462 4.36076 17.1559 4.3308V3.85651C17.1559 3.70481 17.2162 3.55932 17.3234 3.45205C17.4307 3.34477 17.5762 3.28451 17.7279 3.28451C17.8796 3.28451 18.0251 3.34477 18.1324 3.45205C18.2396 3.55932 18.2999 3.70481 18.2999 3.85651V4.31938H19.5925C19.7442 4.31938 19.8897 4.37964 19.9969 4.48691C20.1042 4.59418 20.1645 4.73968 20.1645 4.89138C20.1645 5.04309 20.1042 5.18858 19.9969 5.29585C19.8897 5.40312 19.7442 5.46339 19.5925 5.46339H17.2587C17.0433 5.46905 16.8386 5.55862 16.6882 5.71302C16.5378 5.86741 16.4536 6.07443 16.4536 6.28996C16.4536 6.5055 16.5378 6.71251 16.6882 6.86691C16.8386 7.02131 17.0433 7.11088 17.2587 7.11654H18.1908C18.7002 7.12064 19.1883 7.32228 19.5521 7.67901C19.9158 8.03574 20.127 8.51972 20.1411 9.02903C20.1551 9.53834 19.971 10.0332 19.6275 10.4095C19.284 10.7858 18.8078 11.0141 18.2993 11.0463V11.5212C18.3017 11.5978 18.2888 11.6741 18.2611 11.7455C18.2335 11.817 18.1917 11.8822 18.1384 11.9373C18.0851 11.9923 18.0212 12.0361 17.9507 12.0659C17.8801 12.0958 17.8042 12.1112 17.7276 12.1112C17.651 12.1112 17.5751 12.0958 17.5045 12.0659C17.434 12.0361 17.3701 11.9923 17.3168 11.9373C17.2635 11.8822 17.2217 11.817 17.1941 11.7455C17.1665 11.6741 17.1535 11.5978 17.1559 11.5212V11.0583H15.8627C15.711 11.0583 15.5654 10.998 15.4581 10.8907C15.3507 10.7833 15.2904 10.6378 15.2904 10.486C15.2904 10.3342 15.3507 10.1887 15.4581 10.0813C15.5654 9.974 15.711 9.91371 15.8627 9.91371H18.1908C18.4062 9.90804 18.6109 9.81847 18.7613 9.66408C18.9117 9.50968 18.9959 9.30266 18.9959 9.08713C18.9959 8.8716 18.9117 8.66458 18.7613 8.51019C18.6109 8.35579 18.4062 8.26622 18.1908 8.26055L18.1913 8.26112Z" fill="#006EE6"/>
<path d="M29.0074 14.468C28.7734 14.211 28.4897 14.004 28.1735 13.8596C27.8573 13.7151 27.5151 13.6363 27.1675 13.6277C26.82 13.6192 26.4743 13.6811 26.1514 13.8098C25.8284 13.9386 25.5349 14.1314 25.2885 14.3766L21.5188 18.1578C21.7773 18.7229 21.8899 19.3439 21.8461 19.9637C21.8024 20.5836 21.6037 21.1826 21.2684 21.7058C20.933 22.229 20.4717 22.6597 19.9267 22.9583C19.3817 23.2569 18.7705 23.4139 18.149 23.415L13.7336 23.4207C13.5818 23.4209 13.4361 23.3608 13.3287 23.2537C13.2212 23.1465 13.1607 23.001 13.1604 22.8493C13.1602 22.6975 13.2203 22.5518 13.3274 22.4443C13.4346 22.3368 13.5801 22.2763 13.7319 22.2761L18.149 22.271C18.8295 22.271 19.4821 22.0006 19.9633 21.5195C20.4445 21.0383 20.7148 20.3857 20.7148 19.7052C20.7148 19.0248 20.4445 18.3721 19.9633 17.891C19.4821 17.4098 18.8295 17.1395 18.149 17.1395L9.86555 17.1452C9.07579 17.1532 8.3204 17.4694 7.76039 18.0264L4.71636 21.0755L11.8336 28.2036L18.8816 27.231C19.604 27.1322 20.2746 26.8009 20.7919 26.287L28.9903 18.0721C29.4643 17.5931 29.7315 16.9474 29.7347 16.2736C29.738 15.5997 29.4768 14.9515 29.0074 14.468ZM4.31636 22.2881C4.21627 22.1448 4.08689 22.0245 3.9368 21.9349C3.7867 21.8454 3.6193 21.7888 3.44568 21.7688C3.27206 21.7488 3.09617 21.7659 2.92965 21.819C2.76314 21.8721 2.6098 21.9599 2.47977 22.0767L0.334608 24.2275C0.22854 24.3334 0.144388 24.4591 0.0869715 24.5975C0.0295546 24.7359 0 24.8843 0 25.0341C0 25.184 0.0295546 25.3323 0.0869715 25.4707C0.144388 25.6091 0.22854 25.7349 0.334608 25.8407L6.15237 31.6705C6.37001 31.8826 6.66221 32.0008 6.96612 31.9998C7.27003 31.9987 7.56139 31.8784 7.77753 31.6648L9.92269 29.5139C10.133 29.2992 10.2507 29.0107 10.2507 28.7102C10.2507 28.4097 10.133 28.1211 9.92269 27.9064C9.31297 27.2927 4.9415 22.9293 4.31636 22.2881Z" fill="#006EE6"/>
</svg>
