<svg width="32" height="32" viewBox="0 0 32 32" fill="none" xmlns="http://www.w3.org/2000/svg">
<rect width="32" height="32" rx="8" fill="#FFF5CC"/>
<path d="M22.9841 9.01609H21.0793V7.74626C21.0793 7.39559 20.7951 7.11133 20.4444 7.11133C20.0937 7.11133 19.8095 7.39559 19.8095 7.74626V9.01609H12.1904V7.74626C12.1904 7.39559 11.9062 7.11133 11.5555 7.11133C11.2049 7.11133 10.9206 7.39559 10.9206 7.74626V9.01609H9.01584C7.96387 9.01609 7.11108 9.86888 7.11108 10.9208V22.9843C7.11108 24.0363 7.96387 24.8891 9.01584 24.8891H22.9841C24.0361 24.8891 24.8889 24.0363 24.8889 22.9843V10.9208C24.8889 9.86888 24.0361 9.01609 22.9841 9.01609ZM23.619 22.9843C23.619 23.335 23.3347 23.6193 22.9841 23.6193H9.01584C8.66518 23.6193 8.38091 23.335 8.38091 22.9843V14.7304H23.619V22.9843ZM23.619 13.4605H8.38091V10.9208C8.38091 10.5702 8.66518 10.2859 9.01584 10.2859H10.9206V11.5557C10.9206 11.9064 11.2049 12.1907 11.5555 12.1907C11.9062 12.1907 12.1905 11.9064 12.1905 11.5557V10.2859H19.8095V11.5557C19.8095 11.9064 20.0938 12.1907 20.4444 12.1907C20.7951 12.1907 21.0794 11.9064 21.0794 11.5557V10.2859H22.9841C23.3348 10.2859 23.6191 10.5702 23.6191 10.9208V13.4605H23.619Z" fill="#E6B800"/>
<path d="M12.1896 16H10.9198C10.5691 16 10.2849 16.2843 10.2849 16.6349C10.2849 16.9856 10.5691 17.2699 10.9198 17.2699H12.1896C12.5403 17.2699 12.8245 16.9856 12.8245 16.6349C12.8245 16.2843 12.5403 16 12.1896 16ZM16.6341 16H15.3642C15.0136 16 14.7293 16.2843 14.7293 16.6349C14.7293 16.9856 15.0136 17.2699 15.3642 17.2699H16.6341C16.9847 17.2699 17.269 16.9856 17.269 16.6349C17.269 16.2843 16.9847 16 16.6341 16ZM21.0785 16H19.8087C19.458 16 19.1738 16.2843 19.1738 16.6349C19.1738 16.9856 19.458 17.2699 19.8087 17.2699H21.0785C21.4292 17.2699 21.7135 16.9856 21.7135 16.6349C21.7134 16.2843 21.4292 16 21.0785 16ZM12.1896 18.5397H10.9198C10.5691 18.5397 10.2849 18.824 10.2849 19.1746C10.2849 19.5253 10.5691 19.8096 10.9198 19.8096H12.1896C12.5403 19.8096 12.8245 19.5253 12.8245 19.1746C12.8245 18.824 12.5403 18.5397 12.1896 18.5397ZM16.6341 18.5397H15.3642C15.0136 18.5397 14.7293 18.824 14.7293 19.1746C14.7293 19.5253 15.0136 19.8096 15.3642 19.8096H16.6341C16.9847 19.8096 17.269 19.5253 17.269 19.1746C17.269 18.824 16.9847 18.5397 16.6341 18.5397ZM21.0785 18.5397H19.8087C19.458 18.5397 19.1738 18.824 19.1738 19.1746C19.1738 19.5253 19.458 19.8096 19.8087 19.8096H21.0785C21.4292 19.8096 21.7135 19.5253 21.7135 19.1746C21.7134 18.824 21.4292 18.5397 21.0785 18.5397ZM12.1896 21.0794H10.9198C10.5691 21.0794 10.2849 21.3636 10.2849 21.7143C10.2849 22.065 10.5691 22.3492 10.9198 22.3492H12.1896C12.5403 22.3492 12.8245 22.065 12.8245 21.7143C12.8245 21.3636 12.5403 21.0794 12.1896 21.0794ZM16.6341 21.0794H15.3642C15.0136 21.0794 14.7293 21.3636 14.7293 21.7143C14.7293 22.065 15.0136 22.3493 15.3642 22.3493H16.6341C16.9847 22.3493 17.269 22.065 17.269 21.7143C17.269 21.3636 16.9847 21.0794 16.6341 21.0794ZM21.0785 21.0794H19.8087C19.458 21.0794 19.1738 21.3636 19.1738 21.7143C19.1738 22.065 19.458 22.3493 19.8087 22.3493H21.0785C21.4292 22.3493 21.7135 22.065 21.7135 21.7143C21.7135 21.3636 21.4292 21.0794 21.0785 21.0794Z" fill="#E6B800"/>
</svg>
