<svg width="22" height="22" viewBox="0 0 22 22" fill="none" xmlns="http://www.w3.org/2000/svg">
<path fill-rule="evenodd" clip-rule="evenodd" d="M20.887 1.08822C20.4812 0.682362 19.8232 0.682362 19.4173 1.08822L11.2293 9.27622L2.61082 0.657742C2.20497 0.251886 1.54694 0.251887 1.14108 0.657743C0.735228 1.0636 0.735229 1.72162 1.14109 2.12748L9.75957 10.746L1.08806 19.4175C0.682202 19.8233 0.682201 20.4814 1.08806 20.8872C1.49391 21.2931 2.15194 21.2931 2.55779 20.8872L11.2293 12.2157L19.4703 20.4567C19.8762 20.8626 20.5342 20.8626 20.9401 20.4567C21.3459 20.0509 21.3459 19.3928 20.9401 18.987L12.699 10.746L20.887 2.55796C21.2929 2.1521 21.2929 1.49408 20.887 1.08822Z" fill="#808080"/>
</svg>
