<svg width="44" height="60" viewBox="0 0 44 60" fill="none" xmlns="http://www.w3.org/2000/svg">
<path fill-rule="evenodd" clip-rule="evenodd" d="M10.1123 49.6543H12.767V56.7578H14.4618V49.6543H17.08V48.022H10.1123V49.6543Z" fill="#1E86C8"/>
<path fill-rule="evenodd" clip-rule="evenodd" d="M0.503937 52.117V52.6939C0.503937 53.8816 1.24997 55.2916 1.91155 55.7954C2.8828 56.5356 3.51623 56.9774 5.23633 56.9774C6.13157 56.9774 6.78752 56.7607 7.40124 56.4568C7.76722 56.2738 8.71313 55.5815 8.90175 55.2916L7.79255 54.1293C7.4322 54.3713 7.17039 54.7231 6.71995 54.9736C6.31738 55.1959 5.77967 55.3788 5.17439 55.3788C3.55282 55.3788 2.16773 54.1687 2.16773 52.5926V52.2746C2.16773 50.6619 3.48526 49.3954 5.11246 49.3954C5.73181 49.3954 6.26389 49.5671 6.67772 49.781C7.18165 50.0456 7.41813 50.3917 7.79537 50.6479L8.94116 49.5559C8.34434 48.6609 6.71714 47.7969 5.17158 47.7969H5.03926C2.65477 47.7997 0.503937 49.7388 0.503937 52.117Z" fill="#1E86C8"/>
<path fill-rule="evenodd" clip-rule="evenodd" d="M30.8323 53.5239H28.1776C27.6286 53.5239 27.44 53.7491 27.44 54.2923V56.116C27.44 56.5719 27.744 56.7548 28.2086 56.7548H30.7338C31.1786 56.7548 31.5333 56.6169 31.5333 56.1779V54.1318C31.5333 53.7153 31.2574 53.5239 30.8323 53.5239ZM30.7676 56.1498H28.2086V54.1037H30.7676V56.1498Z" fill="#E42B2C"/>
<path fill-rule="evenodd" clip-rule="evenodd" d="M16.4156 54.2921V56.0511C16.4156 56.5915 16.8041 56.7547 17.3446 56.7547H19.9008C20.4976 56.7547 20.9537 56.6562 20.9537 56.0511V55.1533H18.6565V55.7922H20.0894V56.0174H17.3136V54.2246H20.0894V54.6749H20.9537V54.2246C20.9537 53.6758 20.5342 53.521 19.9965 53.521H17.4403C16.8153 53.5238 16.4156 53.6617 16.4156 54.2921Z" fill="#E42B2C"/>
<path fill-rule="evenodd" clip-rule="evenodd" d="M24.8359 55.539C25.4327 55.539 25.9902 55.5897 25.9902 54.993V54.1347C25.9902 53.7097 25.734 53.5239 25.3145 53.5239H22.4092V56.752H23.1749V55.5362H23.845C23.8759 55.5362 25.0893 56.7492 25.3455 56.752C25.6495 56.7577 26.3167 56.752 26.3167 56.752L24.8359 55.539ZM23.1749 54.993V54.0699H25.0274C25.1315 54.0699 25.2554 54.1262 25.2554 54.2303V54.8326C25.2554 54.9368 25.1343 54.993 25.0274 54.993H23.1749Z" fill="#E42B2C"/>
<path fill-rule="evenodd" clip-rule="evenodd" d="M32.9888 56.116C32.9888 56.5747 33.2647 56.7548 33.7236 56.7548H35.8294C36.3783 56.7548 36.7274 56.6169 36.7274 56.0794V53.5239H35.9307V56.1469H33.7602V53.5239H32.9916V56.116H32.9888Z" fill="#E42B2C"/>
<path fill-rule="evenodd" clip-rule="evenodd" d="M42.4338 53.5239H38.1829V59.9998H38.9176V56.752H42.4648C42.9659 56.752 43.1686 56.5494 43.1686 56.0484V54.2275C43.1686 53.7209 42.935 53.5239 42.4338 53.5239ZM42.31 55.8908C42.31 56.0822 42.2396 56.2117 42.051 56.2117H38.9176V54.0699H41.9862C42.2143 54.0699 42.3072 54.1628 42.3072 54.3908V55.8908H42.31Z" fill="#E42B2C"/>
<path d="M21.8433 32.9564C22.1361 32.9564 22.3726 32.7171 22.3726 32.4244V12.3916H21.3084V32.4244C21.3084 32.7171 21.5477 32.9564 21.8433 32.9564Z" fill="#E42B2C"/>
<path d="M22.5866 12.3915V32.4243C22.5866 32.8352 22.2515 33.1701 21.8405 33.1701C21.4267 33.1701 21.0917 32.8352 21.0917 32.4243V12.3915H7.67712L8.02058 12.8615C8.12193 12.9966 8.3387 13.1063 8.50762 13.1063H14.1015C14.2366 13.1063 14.4111 13.1936 14.49 13.3033L14.6814 13.5623H8.53858L8.88486 14.0295C8.98339 14.1646 9.20016 14.2743 9.36907 14.2743H14.9629C15.0981 14.2743 15.2726 14.3644 15.3514 14.4713L15.5429 14.7274H9.39723L9.7435 15.1974C9.84203 15.3297 10.0616 15.4423 10.2277 15.4423H15.8244C15.9567 15.4423 16.1312 15.5295 16.2101 15.6365L16.4015 15.8954H10.2587L10.605 16.3654C10.7035 16.5005 10.9231 16.6103 11.092 16.6103H16.6858C16.8182 16.6103 16.9927 16.6975 17.0743 16.8073L17.263 17.0662H11.1201L11.4636 17.5362C11.5621 17.6713 11.7817 17.781 11.9506 17.781H19.5658V32.9816L21.8349 35.9789L24.104 32.9816V17.7782H31.7191C31.8881 17.7782 32.1048 17.6685 32.2034 17.5334L32.5496 17.0634H26.4096L26.5983 16.8045C26.6771 16.6975 26.8544 16.6074 26.9867 16.6074H32.5806C32.7495 16.6074 32.9663 16.4977 33.0676 16.3626L33.4139 15.8926H27.2711L27.4597 15.6337C27.5414 15.5267 27.7159 15.4395 27.8482 15.4395H33.4421C33.6082 15.4395 33.8277 15.3297 33.9263 15.1946L34.2726 14.7246H28.1297L28.3183 14.4685C28.4 14.3616 28.5745 14.2715 28.7069 14.2715H34.2979C34.4668 14.2715 34.6836 14.1617 34.7849 14.0266L35.1312 13.5595H28.9884L29.1798 13.3005C29.2586 13.1936 29.4332 13.1035 29.5655 13.1035H35.1622C35.3311 13.1035 35.5479 12.9938 35.6464 12.8587L35.9927 12.3887H22.5866V12.3915Z" fill="#1E86C8"/>
<path d="M42.127 28.1158C41.5077 30.1112 40.604 31.9799 39.4554 33.6742C39.416 33.7361 39.3737 33.7952 39.3343 33.8571C39.3033 33.9021 39.2414 33.9387 39.1851 33.95C39.1739 33.9528 39.1682 33.9556 39.157 33.9556H38.8501C38.8501 33.9556 38.8529 33.9528 38.8529 33.95C40.1704 32.1066 41.1952 30.0408 41.8624 27.8231H41.5949C41.4851 27.8231 41.2993 27.9525 41.2346 28.1017C40.5786 30.1224 39.6187 32.0053 38.3997 33.6967C38.3631 33.7474 38.3293 33.798 38.2899 33.8487L38.2871 33.8515C38.2842 33.8543 38.2842 33.8571 38.2842 33.8571C38.2505 33.905 38.1885 33.9416 38.1294 33.9528C38.1181 33.9556 38.1097 33.9584 38.1012 33.9584H37.7803L37.7831 33.9528C39.1739 32.1291 40.2605 30.0605 40.9615 27.8259H40.6913C40.5815 27.8259 40.3985 27.9328 40.3253 28.0989C39.6327 30.1421 38.6108 32.0306 37.3214 33.7051C37.282 33.7558 37.2454 33.8065 37.206 33.8571C37.1722 33.905 37.1075 33.9444 37.0455 33.9528C37.0371 33.9556 37.0258 33.9584 37.0174 33.9584H36.688L36.6908 33.9528C38.1632 32.1516 39.3146 30.0802 40.0578 27.8259H39.7876C39.6778 27.8259 39.4666 27.9469 39.4188 28.0932C38.6812 30.159 37.5889 32.0587 36.215 33.7164C36.17 33.7699 36.1278 33.8233 36.0827 33.8768C36.049 33.9162 35.9926 33.9444 35.9392 33.9556C35.9335 33.9556 35.9307 33.9584 35.9251 33.9613H35.5563C35.5563 33.9613 35.5591 33.9584 35.5591 33.9556C37.1244 32.1826 38.3546 30.1084 39.1457 27.8287H38.8529C38.7319 27.8287 38.5235 27.9413 38.456 28.0932C37.6649 30.1872 36.4938 32.0925 35.0214 33.7248C34.951 33.8008 34.8863 33.8825 34.8159 33.9584C34.8159 33.9584 34.8131 33.9613 34.8131 33.9641C31.5699 37.437 26.953 39.6097 21.8236 39.6097C12.0069 39.6097 4.04829 31.6535 4.04829 21.8397C4.04829 12.0259 12.0069 4.06961 21.8236 4.06961C30.2327 4.06961 37.2708 9.90947 39.1204 17.7504H43.2728C41.3725 7.63826 32.4961 0 21.8349 0C9.77727 0 0 9.77438 0 21.8284C0 33.8853 9.77727 43.6568 21.8349 43.6568C29.405 43.6568 36.0743 39.8039 39.9903 33.9528L39.9931 33.9472C41.2374 32.0869 42.2087 30.0267 42.8365 27.8203H42.5268C42.3973 27.8203 42.1918 27.9328 42.127 28.1158Z" fill="#1E86C8"/>
<path fill-rule="evenodd" clip-rule="evenodd" d="M39.6834 15.7299C39.6834 15.2205 40.0972 14.8096 40.604 14.8096C41.1135 14.8096 41.5246 15.2205 41.5246 15.7299C41.5246 16.2393 41.1107 16.6502 40.604 16.6502C40.0972 16.653 39.6834 16.2393 39.6834 15.7299Z" fill="#E42B2C"/>
</svg>
