<svg width="29" height="28" viewBox="0 0 29 28" fill="none" xmlns="http://www.w3.org/2000/svg">
<path d="M26.4291 20.2666H13.0376L14.4773 9.8362C15.4787 10.1065 15.9342 10.8376 15.8526 11.4044C15.8526 11.4173 15.8483 11.4302 15.8483 11.4431C15.8483 11.6107 15.9815 11.7439 16.1276 11.7654H16.1319C16.1448 11.7654 16.1577 11.7697 16.1706 11.7697C16.3167 11.7697 16.4672 11.658 16.4929 11.4904C16.5961 10.734 17.5244 10.2354 18.5644 10.3773C19.583 10.5191 20.3436 11.2411 20.2577 11.9889C20.2362 12.1737 20.3823 12.3241 20.5327 12.3456H20.537C20.6875 12.3671 20.868 12.251 20.898 12.0791C21.0184 11.3356 21.9424 10.8457 22.9609 10.9832C23.9193 11.1165 24.6628 11.7783 24.6585 12.4874C24.6585 12.6593 24.7917 12.8011 24.9636 12.814H24.9808C25.1484 12.814 25.2859 12.6894 25.3031 12.5218C25.5941 9.58565 24.7344 6.65115 22.9052 4.33611C21.0759 2.02107 18.4197 0.506105 15.4959 0.110176C12.5749 -0.298831 9.60918 0.440247 7.22175 2.17211C4.83432 3.90398 3.21111 6.4938 2.69317 9.39741C2.66309 9.56931 2.77053 9.73262 2.94244 9.76701C3.11004 9.80568 3.27765 9.70684 3.32493 9.53923C3.50973 8.8559 4.40794 8.42184 5.36631 8.55507C6.38056 8.69259 7.14124 9.4146 7.06389 10.1581C7.05959 10.1753 7.06818 10.1968 7.06818 10.214C7.08108 10.3773 7.20141 10.489 7.33034 10.5105H7.33894C7.49365 10.532 7.66986 10.416 7.69994 10.244C8.00937 8.44763 11.6968 9.02781 11.4518 10.7941C11.4303 10.9661 11.5506 11.1251 11.7139 11.1551C11.7182 11.1551 11.7225 11.1594 11.7268 11.1594C11.7397 11.1594 11.7526 11.1637 11.7655 11.1637C11.9245 11.1637 12.0664 11.0391 12.0921 10.8844C12.1695 10.3171 12.7884 9.74981 13.8026 9.74981H13.837L12.3844 20.2662H6.36767L3.06707 13.3083C2.97624 13.1169 2.8486 12.9453 2.69145 12.8033C2.53429 12.6613 2.35069 12.5516 2.15114 12.4806C1.95159 12.4096 1.74 12.3785 1.52845 12.3893C1.31691 12.4 1.10956 12.4524 0.91824 12.5433C0.533372 12.7285 0.23713 13.058 0.0938894 13.4604C-0.0493514 13.8628 -0.0280165 14.3054 0.153258 14.6921L3.89222 22.5697C4.15867 23.1284 4.73026 23.4894 5.34912 23.4894H7.27447L6.45362 26.1969C6.25593 26.8588 6.75016 27.5249 7.44208 27.5249H8.46492C8.92477 27.5249 9.32016 27.2327 9.45338 26.7943L10.4547 23.4894H11.9374L11.3658 27.6324C11.3443 27.8086 11.4647 27.9719 11.6409 27.9977C11.8257 28.0191 11.9804 27.8902 12.0062 27.7226L12.5907 23.4894H19.9912L20.9926 26.7943C21.1215 27.2327 21.5212 27.5249 21.981 27.5249H23.0039C23.1647 27.525 23.3234 27.4875 23.4671 27.4153C23.6109 27.3432 23.7358 27.2384 23.8319 27.1093C23.9279 26.9803 23.9924 26.8306 24.0203 26.6722C24.0482 26.5137 24.0386 26.351 23.9923 26.1969L23.1715 23.4894H26.4291C27.3187 23.4894 28.0407 22.7674 28.0407 21.8778C28.0407 20.9882 27.3187 20.2662 26.4291 20.2662V20.2666ZM24.7101 11.1384C23.7732 10.2015 22.0627 10.0249 20.9969 10.8161C21.1903 6.84933 20.1073 3.39831 18.2378 1.537C20.1216 2.35114 21.7325 3.68826 22.8796 5.38989C24.0267 7.09152 24.6619 9.08677 24.7101 11.1384ZM7.30455 8.92466C6.4966 7.88033 4.80332 7.5752 3.64295 8.22845C4.2459 6.26562 5.39928 4.51697 6.96622 3.18998C8.53317 1.86299 10.4479 1.01337 12.4832 0.741931C10.1754 2.02263 8.19847 5.05248 7.30455 8.92466ZM12.307 9.52634C13.2697 3.9222 14.7008 0.647383 15.4099 0.750526C16.1062 0.845075 16.6133 4.38204 16.0159 10.0335C15.1392 9.03211 13.4244 8.80433 12.307 9.52634ZM8.83452 26.6095C8.78725 26.7728 8.63683 26.8803 8.46492 26.8803H7.44208C7.38157 26.8808 7.3218 26.867 7.26763 26.84C7.21346 26.8131 7.16644 26.7737 7.13041 26.7251C7.09437 26.6765 7.07034 26.62 7.06027 26.5603C7.0502 26.5007 7.05439 26.4395 7.07248 26.3817L7.9492 23.4894H9.78L8.83452 26.6095ZM23.3735 26.3817C23.3907 26.4395 23.3943 26.5004 23.3838 26.5597C23.3734 26.619 23.3493 26.6751 23.3134 26.7235C23.2776 26.7719 23.2309 26.8112 23.1772 26.8384C23.1234 26.8657 23.0641 26.88 23.0039 26.8803H21.981C21.8091 26.8803 21.6587 26.7728 21.6114 26.6095L20.666 23.4894H22.4968L23.3735 26.3817Z" fill="#006EE6"/>
</svg>
