<svg width="192" height="205" viewBox="0 0 192 205" fill="none" xmlns="http://www.w3.org/2000/svg">
<path d="M66.4697 82.3216C67.2791 82.6612 68.0886 83.0008 68.898 83.3404" stroke="#1E1E1E" stroke-miterlimit="10"/>
<path d="M73.7405 85.2817C88.8077 91.1669 104.705 95.6215 121.251 95.8926C129.258 96.0247 171.449 93.0764 161.995 77.5368C153.133 62.9641 118.838 81.1329 127.353 107.87C134.086 129.022 158.208 149.801 167.986 157.544" stroke="#1E1E1E" stroke-miterlimit="10" stroke-dasharray="4.96 4.96"/>
<path d="M170.049 159.157C171.386 160.184 172.152 160.732 172.152 160.732" stroke="#1E1E1E" stroke-miterlimit="10"/>
<path d="M62.2459 61.7272L3.69801e-05 51.4383L31.2294 85.8469L36.2055 83.9072L57.6828 102.271L58.6101 81.7817L51.2547 79.2384L60.0499 77.3122L62.2459 61.7272Z" fill="#007AFF"/>
<path d="M36.1728 83.7048L31.3835 85.7185L0.269764 51.4907L36.1728 83.7048Z" fill="#0062CC"/>
<path d="M60.1274 77.1011L0.270498 51.4908L51.3128 79.2381L60.1274 77.1011Z" fill="#0062CC"/>
</svg>
