<svg width="24" height="24" viewBox="0 0 24 24" fill="none" xmlns="http://www.w3.org/2000/svg">
<path d="M12 24C18.6274 24 24 18.6274 24 12C24 5.37258 18.6274 0 12 0C5.37258 0 0 5.37258 0 12C0 18.6274 5.37258 24 12 24Z" fill="#00BA00"/>
<path d="M8.24916 17.8582L3.87436 13.1433C3.58413 12.8323 3.4291 12.4189 3.44328 11.9938C3.45745 11.5687 3.63966 11.1665 3.94995 10.8756C4.26214 10.5865 4.67625 10.4332 5.10139 10.4491C5.52654 10.465 5.92799 10.649 6.21766 10.9606L9.60034 14.5795L14.9578 9.57163C15.0057 9.52766 15.0562 9.48664 15.109 9.44879L17.6224 7.09604C17.9334 6.80581 18.3467 6.65078 18.7719 6.66496C19.197 6.67913 19.5991 6.86134 19.8901 7.17163C20.1803 7.4826 20.3354 7.89599 20.3212 8.32112C20.307 8.74624 20.1248 9.14839 19.8145 9.43934L12.1137 16.6204L9.43971 19.1055L8.25861 17.8393L8.24916 17.8582Z" fill="white"/>
</svg>
