<svg width="32" height="28" viewBox="0 0 32 28" fill="none" xmlns="http://www.w3.org/2000/svg">
<path d="M29.4974 14.0612C29.4913 14.0673 29.517 14.0612 29.4204 14.0612C28.4022 14.0612 27.6983 15.0055 28.0532 15.8854C27.8823 16.0655 28.6198 15.3283 16.1477 27.7352C15.9774 27.9048 15.7468 28 15.5065 28C15.2662 28 15.0356 27.9048 14.8653 27.7352C2.39702 15.3315 3.13244 16.0673 2.95984 15.8854C3.32879 14.9706 2.5575 14.0123 1.51687 14.0631C1.51627 14.0624 1.51627 14.0618 1.51566 14.0613C0.483526 12.4486 -0.0345721 10.699 0.00178992 8.90328C0.142693 1.85541 8.7431 -3.34127 15.5066 2.57447C22.2662 -3.338 30.8704 1.85171 31.0113 8.90328C31.0477 10.699 30.5295 12.4486 29.4974 14.0612Z" fill="#006EE6"/>
<path d="M29.4974 14.0613C29.0956 14.6898 28.6156 15.2977 28.0592 15.8794H21.3244C20.9899 15.8794 20.6827 15.6958 20.5239 15.4013L17.9828 10.6815L14.389 18.2684C14.0847 18.9108 13.1852 18.9735 12.8006 18.3672L10.1965 14.2753L9.4983 15.4382C9.4176 15.5728 9.30338 15.6842 9.16679 15.7615C9.0302 15.8389 8.8759 15.8795 8.71894 15.8794H2.95374C2.3974 15.2976 1.91743 14.6897 1.51562 14.0613H8.20442L9.39407 12.0783C9.73805 11.5037 10.5746 11.4832 10.9401 12.0583L13.4503 16.0024L17.1089 8.2785C17.4292 7.60502 18.3777 7.58211 18.7312 8.23669L21.8675 14.0613H29.4974V14.0613Z" fill="white"/>
<path d="M18.7312 8.2366C18.3783 7.58335 17.4297 7.60378 17.1088 8.27841L15.5065 11.6612V15.909L17.9827 10.6813L20.5238 15.4011C20.6017 15.5457 20.7172 15.6664 20.8582 15.7506C20.9991 15.8348 21.1602 15.8793 21.3244 15.8793H28.0593C28.6156 15.2975 29.0956 14.6896 29.4974 14.0612H21.8674L18.7312 8.2366Z" fill="white"/>
</svg>
