<svg width="32" height="32" viewBox="0 0 32 32" fill="none" xmlns="http://www.w3.org/2000/svg">
<rect width="32" height="32" rx="8" fill="#CCE4FF"/>
<path d="M15.5189 7C11.9244 7 9 9.92437 9 13.5189C9 17.9798 14.8338 24.5287 15.0822 24.8053C15.3155 25.0651 15.7228 25.0647 15.9557 24.8053C16.2041 24.5287 22.0378 17.9798 22.0378 13.5189C22.0378 9.92437 19.1134 7 15.5189 7ZM15.5189 23.5139C13.5556 21.1817 10.1739 16.5805 10.1739 13.519C10.1739 10.5717 12.5717 8.17394 15.5189 8.17394C18.4662 8.17394 20.8639 10.5717 20.8639 13.5189C20.8639 16.5806 17.4828 21.181 15.5189 23.5139Z" fill="#006EE6"/>
<path d="M15.5189 10.2393C13.7104 10.2393 12.2391 11.7106 12.2391 13.5191C12.2391 15.3276 13.7105 16.7989 15.5189 16.7989C17.3274 16.7989 18.7987 15.3276 18.7987 13.5191C18.7987 11.7106 17.3274 10.2393 15.5189 10.2393ZM15.5189 15.625C14.3577 15.625 13.4131 14.6803 13.4131 13.5191C13.4131 12.3579 14.3578 11.4132 15.5189 11.4132C16.6801 11.4132 17.6248 12.3579 17.6248 13.5191C17.6248 14.6803 16.6801 15.625 15.5189 15.625Z" fill="#006EE6"/>
</svg>
