<svg width="24" height="20" viewBox="0 0 24 20" fill="none" xmlns="http://www.w3.org/2000/svg">
<path d="M22.4876 7.84473C22.2097 7.29176 21.7601 6.84753 21.1885 6.59291L6.89102 0.235495C6.56721 0.0901004 6.21778 0.0103798 5.86295 0.000947792C5.50812 -0.0084842 5.15494 0.0525599 4.82387 0.180546C4.49166 0.307086 4.18787 0.498325 3.93014 0.743172C3.67241 0.988019 3.46585 1.2816 3.32245 1.60689L0.22946 8.55867C-0.369945 9.91962 0.245712 11.5186 1.60202 12.1241L2.17008 12.3768V17.2975C2.17079 18.014 2.45576 18.701 2.96243 19.2076C3.4691 19.7143 4.15608 19.9993 4.87262 20H20.5191C21.2356 19.9993 21.9226 19.7143 22.4293 19.2076C22.9359 18.701 23.2209 18.014 23.2216 17.2975V9.69015C23.2216 8.97621 22.9415 8.32804 22.4876 7.84473ZM20.5187 8.53584C20.8248 8.53605 21.1183 8.65772 21.3348 8.87414C21.5513 9.09056 21.6731 9.38404 21.6734 9.69015V10.7268C21.1468 10.5884 20.6665 10.3126 20.2814 9.92766C19.8964 9.5427 19.6205 9.06239 19.482 8.53584H20.5187ZM1.64458 9.18555L4.7368 2.23532C4.79811 2.09634 4.88638 1.97091 4.99652 1.86629C5.10665 1.76167 5.23644 1.67995 5.37838 1.62585C5.51981 1.57116 5.67069 1.54508 5.82228 1.54913C5.97386 1.55319 6.12313 1.58729 6.26143 1.64946L18.2677 6.98838H4.87224C3.38204 6.98838 2.16969 8.20073 2.16969 9.69054V10.6754C1.91003 10.5395 1.71148 10.3104 1.61404 10.034C1.51661 9.75761 1.52752 9.4542 1.64458 9.18555ZM5.90891 8.53584C5.7705 9.06238 5.49471 9.5427 5.10975 9.92766C4.72478 10.3126 4.24446 10.5884 3.71793 10.7268V9.69015C3.71824 9.38404 3.84 9.09056 4.05649 8.87414C4.27299 8.65772 4.56651 8.53605 4.87262 8.53584H5.90891ZM3.71754 17.2975V16.2608C4.24409 16.3993 4.7244 16.6752 5.10936 17.0602C5.49431 17.4452 5.7701 17.9256 5.90852 18.4521H4.87224C4.56609 18.4518 4.27256 18.3301 4.05608 18.1136C3.8396 17.8971 3.71785 17.6036 3.71754 17.2975ZM7.49468 18.4525C7.33276 17.5098 6.88267 16.6404 6.20633 15.964C5.52999 15.2876 4.66065 14.8374 3.71793 14.6754V12.3126C5.64423 11.986 7.16847 10.4625 7.49468 8.53584H17.8966C18.0586 9.47858 18.5088 10.348 19.1852 11.0243C19.8616 11.7007 20.731 12.1507 21.6738 12.3126V14.6754C20.731 14.8373 19.8616 15.2875 19.1851 15.9639C18.5087 16.6403 18.0586 17.5097 17.8966 18.4525H7.49468ZM20.5187 18.4525H19.482C19.6204 17.9259 19.8963 17.4455 20.2813 17.0605C20.6663 16.6754 21.1467 16.3996 21.6734 16.2612V17.2978C21.6731 17.604 21.5513 17.8975 21.3348 18.114C21.1184 18.3305 20.8248 18.4522 20.5187 18.4525Z" fill="#1E1E1E"/>
<path d="M12.6958 10.8311C11.2273 10.8311 10.0327 12.026 10.0327 13.4945C10.0327 14.963 11.2273 16.1576 12.6958 16.1576C14.1643 16.1576 15.3589 14.963 15.3589 13.4945C15.3589 12.026 14.1643 10.8311 12.6958 10.8311ZM12.6958 14.6094C12.0809 14.6094 11.5806 14.109 11.5806 13.4941C11.5806 12.8792 12.0809 12.3785 12.6958 12.3785C13.3107 12.3785 13.811 12.8789 13.811 13.4941C13.811 14.1094 13.3107 14.6094 12.6958 14.6094Z" fill="#1E1E1E"/>
</svg>
