<svg width="32" height="32" viewBox="0 0 32 32" fill="none" xmlns="http://www.w3.org/2000/svg">
<rect width="32" height="32" rx="8" fill="#FFD1D2"/>
<path d="M25.3223 14.0844C25.0753 13.5929 24.6756 13.198 24.1676 12.9717L11.4587 7.32066C11.1708 7.19142 10.8602 7.12055 10.5448 7.11217C10.2294 7.10379 9.91549 7.15805 9.6212 7.27181C9.3259 7.38429 9.05587 7.55428 8.82677 7.77193C8.59768 7.98957 8.41407 8.25053 8.2866 8.53968L5.53728 14.719C5.00447 15.9288 5.55172 17.35 6.75733 17.8883L7.26227 18.113V22.4868C7.26291 23.1238 7.51621 23.7344 7.96658 24.1848C8.41696 24.6352 9.02761 24.8885 9.66454 24.8891H23.5725C24.2094 24.8885 24.8201 24.6352 25.2704 24.1848C25.7208 23.7344 25.9741 23.1238 25.9748 22.4868V15.7248C25.9748 15.0902 25.7257 14.514 25.3223 14.0844ZM23.5721 14.6987C23.8442 14.6989 24.1052 14.8071 24.2976 14.9994C24.49 15.1918 24.5983 15.4527 24.5985 15.7248V16.6463C24.1305 16.5232 23.7035 16.2781 23.3612 15.9359C23.019 15.5937 22.7738 15.1668 22.6507 14.6987H23.5721ZM6.79516 15.2763L9.5438 9.09828C9.5983 8.97474 9.67677 8.86325 9.77466 8.77025C9.87255 8.67726 9.98793 8.60461 10.1141 8.55653C10.2398 8.50791 10.3739 8.48473 10.5087 8.48834C10.6434 8.49194 10.7761 8.52225 10.899 8.57751L21.5713 13.3232H9.66419C8.33958 13.3232 7.26193 14.4009 7.26193 15.7251V16.6005C7.03111 16.4798 6.85463 16.2761 6.76802 16.0304C6.68141 15.7848 6.69111 15.5151 6.79516 15.2763ZM10.5857 14.6987C10.4627 15.1668 10.2175 15.5937 9.87531 15.9359C9.53312 16.2781 9.10617 16.5233 8.63814 16.6463V15.7248C8.63841 15.4527 8.74665 15.1918 8.93909 14.9994C9.13152 14.8071 9.39243 14.6989 9.66454 14.6987H10.5857ZM8.63779 22.4868V21.5654C9.10584 21.6885 9.53278 21.9337 9.87496 22.2759C10.2171 22.6182 10.4623 23.0452 10.5853 23.5132H9.66419C9.39206 23.513 9.13115 23.4047 8.93872 23.2123C8.74629 23.0199 8.63807 22.759 8.63779 22.4868ZM11.9953 23.5136C11.8513 22.6756 11.4512 21.9028 10.85 21.3016C10.2489 20.7003 9.47611 20.3001 8.63814 20.1561V18.0559C10.3504 17.7656 11.7053 16.4114 11.9953 14.6987H21.2414C21.3854 15.5367 21.7855 16.3095 22.3868 16.9107C22.9881 17.5119 23.7609 17.912 24.5989 18.0559V20.1561C23.7609 20.3001 22.988 20.7002 22.3868 21.3015C21.7855 21.9027 21.3854 22.6755 21.2414 23.5136H11.9953ZM23.5721 23.5136H22.6507C22.7737 23.0455 23.0189 22.6184 23.3611 22.2762C23.7034 21.9339 24.1304 21.6887 24.5985 21.5657V22.4872C24.5983 22.7593 24.49 23.0202 24.2976 23.2127C24.1052 23.4051 23.8443 23.5133 23.5721 23.5136Z" fill="#F93E42"/>
<path d="M16.6185 16.7393C15.3132 16.7393 14.2513 17.8014 14.2513 19.1068C14.2513 20.4121 15.3132 21.474 16.6185 21.474C17.9239 21.474 18.9857 20.4121 18.9857 19.1068C18.9857 17.8014 17.9239 16.7393 16.6185 16.7393ZM16.6185 20.0977C16.072 20.0977 15.6272 19.653 15.6272 19.1064C15.6272 18.5599 16.072 18.1148 16.6185 18.1148C17.1651 18.1148 17.6098 18.5595 17.6098 19.1064C17.6098 19.6533 17.1651 20.0977 16.6185 20.0977Z" fill="#F93E42"/>
</svg>
