<svg width="36" height="24" viewBox="0 0 36 24" fill="none" xmlns="http://www.w3.org/2000/svg">
<path d="M35.8644 13.5165C35.5944 10.4858 35.1496 9.8955 34.9816 9.6735C34.5954 9.1605 33.9774 8.82525 33.3234 8.4735C33.2864 8.45394 33.2545 8.42606 33.2301 8.39205C33.2057 8.35804 33.1896 8.31884 33.183 8.27753C33.1764 8.23622 33.1794 8.19393 33.192 8.15401C33.2045 8.11409 33.2261 8.07763 33.2551 8.0475C33.3762 7.92467 33.4693 7.77707 33.528 7.61485C33.5866 7.45263 33.6094 7.27963 33.5949 7.10775C33.5667 6.80296 33.4249 6.5199 33.1978 6.31471C32.9707 6.10952 32.6747 5.99719 32.3686 6H31.1986C31.1485 6.0003 31.0984 6.00355 31.0486 6.00975C31.0145 5.99494 30.9791 5.98314 30.9429 5.9745C30.2499 4.50975 29.3011 2.50425 27.3346 1.5255C24.4179 0.0749997 19.0449 0 17.9949 0C16.9449 0 11.5719 0.0749999 8.65887 1.52325C6.69237 2.502 5.74362 4.5075 5.05062 5.97225L5.04462 5.98425C5.01005 5.98911 4.97611 5.99766 4.94337 6.00975C4.8936 6.00355 4.84351 6.0003 4.79337 6H3.62112C3.31503 5.99719 3.01908 6.10952 2.79194 6.31471C2.5648 6.5199 2.42307 6.80296 2.39487 7.10775C2.38154 7.27923 2.40541 7.45157 2.46482 7.61298C2.52423 7.7744 2.6178 7.92108 2.73912 8.043C2.76814 8.07313 2.78977 8.1096 2.80229 8.14951C2.8148 8.18943 2.81788 8.23172 2.81126 8.27303C2.80464 8.31434 2.78851 8.35354 2.76415 8.38755C2.73978 8.42156 2.70785 8.44944 2.67087 8.469C2.01687 8.823 1.39587 9.15825 1.01262 9.669C0.844616 9.894 0.400616 10.4813 0.129866 13.512C-0.0201341 15.2175 -0.042634 16.983 0.075116 18.12C0.321866 20.4825 0.784616 21.9105 0.804116 21.9697C0.875125 22.1854 1.00584 22.3764 1.18107 22.5207C1.35631 22.665 1.56888 22.7567 1.79412 22.785V22.8C1.79412 23.1183 1.92054 23.4235 2.14559 23.6485C2.37063 23.8736 2.67586 24 2.99412 24H7.19412C7.51238 24 7.8176 23.8736 8.04265 23.6485C8.26769 23.4235 8.39412 23.1183 8.39412 22.8C9.03987 22.8 9.48912 22.6845 9.96537 22.5615C10.653 22.3762 11.3558 22.253 12.0654 22.1933C14.3536 21.975 16.6291 21.9 17.9949 21.9C19.3329 21.9 21.7089 21.975 24.0009 22.1933C24.7133 22.2531 25.4189 22.3769 26.1091 22.563C26.5651 22.68 26.9979 22.788 27.5971 22.7992C27.5971 23.1175 27.7235 23.4227 27.9486 23.6478C28.1736 23.8728 28.4789 23.9993 28.7971 23.9993H32.9971C33.3154 23.9993 33.6206 23.8728 33.8456 23.6478C34.0707 23.4227 34.1971 23.1175 34.1971 22.7992V22.7903C34.4229 22.7625 34.6361 22.6711 34.8119 22.5267C34.9877 22.3824 35.1189 22.191 35.1901 21.975C35.2096 21.9158 35.6724 20.4878 35.9191 18.1253C36.0369 16.9875 36.0159 15.225 35.8644 13.5165ZM7.21962 6.99825C7.81962 5.72325 8.50587 4.28025 9.72762 3.672C11.4931 2.793 15.1524 2.397 17.9949 2.397C20.8374 2.397 24.4966 2.79 26.2621 3.672C27.4839 4.28025 28.1671 5.724 28.7701 6.99825L28.8451 7.161C28.889 7.25365 28.9084 7.356 28.9014 7.45827C28.8945 7.56054 28.8615 7.65934 28.8055 7.74522C28.7496 7.83111 28.6726 7.90123 28.5818 7.9489C28.491 7.99656 28.3896 8.02018 28.2871 8.0175C25.7949 7.95 20.5449 7.734 17.9949 7.734C15.4449 7.734 10.1949 7.95525 7.69887 8.02275C7.59639 8.02543 7.49494 8.00181 7.40419 7.95415C7.31344 7.90648 7.23641 7.83636 7.18046 7.75047C7.1245 7.66459 7.09148 7.56579 7.08455 7.46352C7.07762 7.36125 7.09701 7.2589 7.14087 7.16625C7.16712 7.11075 7.19487 7.0545 7.21962 6.99825ZM8.11437 12.9705C6.82422 13.1258 5.52582 13.2024 4.22637 13.2C3.43137 13.2 2.61162 12.975 2.45937 12.267C2.35512 11.7908 2.36637 11.523 2.42262 11.2538C2.46987 11.025 2.54487 10.8585 2.91987 10.8C3.89487 10.65 4.44012 10.8383 6.03612 11.3085C7.09437 11.6198 7.85787 12.0345 8.29287 12.363C8.51112 12.525 8.39487 12.948 8.11437 12.9705ZM24.7179 19.1205C23.7309 19.233 21.7569 19.1918 18.0174 19.1918C14.2779 19.1918 12.3046 19.233 11.3176 19.1205C10.2991 19.0073 9.00087 18.0443 9.88737 17.1863C10.4776 16.6208 11.8546 16.1978 13.6884 15.96C15.5221 15.7222 16.2984 15.6 18.0099 15.6C19.7214 15.6 20.4189 15.675 22.3314 15.9608C24.2439 16.2465 25.6891 16.6748 26.1324 17.187C26.9409 18.105 25.7356 19.0013 24.7179 19.125V19.1205ZM33.5304 12.2662C33.3804 12.9772 32.5554 13.1993 31.7634 13.1993C30.439 13.1996 29.1158 13.1229 27.8004 12.9698C27.5709 12.948 27.4644 12.5452 27.6969 12.3622C28.1251 12.0255 28.8969 11.619 29.9536 11.3078C31.5496 10.8375 32.4699 10.6493 33.2604 10.806C33.4531 10.8443 33.5551 11.0513 33.5671 11.181C33.62 11.5423 33.6076 11.9101 33.5304 12.267V12.2662Z" fill="#006EE6"/>
</svg>
