<svg width="20" height="20" viewBox="0 0 20 20" fill="none" xmlns="http://www.w3.org/2000/svg">
<circle cx="10" cy="10" r="10" fill="#006EE6"/>
<path fill-rule="evenodd" clip-rule="evenodd" d="M9.9972 2.85767C9.33972 2.85767 8.80672 3.39066 8.80672 4.04814V8.81098H4.04668C3.3892 8.81098 2.8562 9.34397 2.8562 10.0015C2.8562 10.6589 3.3892 11.1919 4.04668 11.1919H8.80672V15.9529C8.80672 16.6104 9.33972 17.1434 9.9972 17.1434C10.6547 17.1434 11.1877 16.6104 11.1877 15.9529V11.1919H15.9514C16.6089 11.1919 17.1419 10.6589 17.1419 10.0015C17.1419 9.34397 16.6089 8.81098 15.9514 8.81098H11.1877V4.04814C11.1877 3.39066 10.6547 2.85767 9.9972 2.85767Z" fill="white"/>
</svg>
