<svg width="20" height="20" viewBox="0 0 20 20" fill="none" xmlns="http://www.w3.org/2000/svg">
<path d="M17.8571 0H2.14286C1.57454 0 1.02949 0.225765 0.627628 0.627628C0.225765 1.02949 0 1.57454 0 2.14286V13.5714C0 14.1397 0.225765 14.6848 0.627628 15.0867C1.02949 15.4885 1.57454 15.7143 2.14286 15.7143H11.4286V17.5C11.4286 18.163 11.692 18.7989 12.1608 19.2678C12.6296 19.7366 13.2655 20 13.9286 20C14.5916 20 15.2275 19.7366 15.6963 19.2678C16.1652 18.7989 16.4286 18.163 16.4286 17.5V15.7143H17.8571C18.4255 15.7143 18.9705 15.4885 19.3724 15.0867C19.7742 14.6848 20 14.1397 20 13.5714V2.14286C20 1.57454 19.7742 1.02949 19.3724 0.627628C18.9705 0.225765 18.4255 0 17.8571 0ZM17.4929 1.42857L10.4143 7.67143C10.3607 7.73223 10.2947 7.78093 10.2208 7.81429C10.1469 7.84764 10.0668 7.86489 9.98571 7.86489C9.90464 7.86489 9.8245 7.84764 9.75061 7.81429C9.67671 7.78093 9.61077 7.73223 9.55714 7.67143L2.50714 1.42857H17.4929ZM15 17.5C15 17.7842 14.8871 18.0567 14.6862 18.2576C14.4853 18.4585 14.2127 18.5714 13.9286 18.5714C13.6444 18.5714 13.3719 18.4585 13.171 18.2576C12.97 18.0567 12.8571 17.7842 12.8571 17.5V15.7143H15V17.5ZM17.8571 14.2857H12.8571V12.8571C12.8571 12.4783 13.0077 12.1149 13.2756 11.847C13.5435 11.5791 13.9068 11.4286 14.2857 11.4286C14.4752 11.4286 14.6568 11.3533 14.7908 11.2194C14.9247 11.0854 15 10.9037 15 10.7143C15 10.5248 14.9247 10.3432 14.7908 10.2092C14.6568 10.0753 14.4752 10 14.2857 10C13.528 10 12.8012 10.301 12.2654 10.8368C11.7296 11.3727 11.4286 12.0994 11.4286 12.8571V14.2857H2.14286C1.95342 14.2857 1.77174 14.2105 1.63778 14.0765C1.50383 13.9426 1.42857 13.7609 1.42857 13.5714V2.37857L8.57143 8.7C8.95223 9.07525 9.46537 9.28564 10 9.28571C10.5161 9.28746 11.0118 9.08454 11.3786 8.72143L18.5714 2.37857V13.5714C18.5714 13.7609 18.4962 13.9426 18.3622 14.0765C18.2283 14.2105 18.0466 14.2857 17.8571 14.2857Z" fill="white"/>
</svg>
