<svg width="20" height="20" viewBox="0 0 20 20" fill="none" xmlns="http://www.w3.org/2000/svg">
<path d="M18.9998 2.00009C18.7346 2.00009 18.4802 2.10544 18.2927 2.29298C18.1052 2.48051 17.9998 2.73486 17.9998 3.00008V4.00406C17.0677 2.76253 15.8598 1.75457 14.4715 1.05972C13.0832 0.364866 11.5524 0.00212206 9.99989 0.0001071C7.73087 -0.0104188 5.52646 0.755222 3.75247 2.16998C1.97848 3.58473 0.741573 5.56354 0.246997 7.77802C0.18812 8.03674 0.234428 8.30825 0.375736 8.53282C0.517043 8.75739 0.741773 8.91663 1.00049 8.97551C1.25921 9.03439 1.53071 8.98808 1.75529 8.84677C1.97986 8.70547 2.1391 8.48073 2.19798 8.22202C2.5934 6.45041 3.58282 4.86732 5.00199 3.73555C6.42116 2.60378 8.18472 1.99141 9.99989 2.00009C12.8849 2.00009 15.5018 3.56507 16.9138 6.00004H14.9998C14.7346 6.00004 14.4803 6.1054 14.2927 6.29293C14.1052 6.48047 13.9999 6.73482 13.9999 7.00003C13.9999 7.26525 14.1052 7.5196 14.2927 7.70713C14.4803 7.89467 14.7346 8.00002 14.9998 8.00002H18.9998C19.265 8.00002 19.5194 7.89467 19.7069 7.70713C19.8944 7.5196 19.9998 7.26525 19.9998 7.00003V3.00008C19.9998 2.73486 19.8944 2.48051 19.7069 2.29298C19.5194 2.10544 19.265 2.00009 18.9998 2.00009ZM0.999989 17.9999C1.2652 17.9999 1.51955 17.8946 1.70709 17.707C1.89462 17.5195 1.99998 17.2651 1.99998 16.9999V15.9749C2.92466 17.2259 4.13047 18.2419 5.52011 18.9411C6.90975 19.6403 8.44429 20.003 9.99989 19.9999C12.2689 20.0104 14.4733 19.2448 16.2473 17.83C18.0213 16.4153 19.2582 14.4365 19.7528 12.222C19.8117 11.9633 19.7654 11.6918 19.6241 11.4672C19.4827 11.2426 19.258 11.0834 18.9993 11.0245C18.7406 10.9656 18.4691 11.0119 18.2445 11.1532C18.0199 11.2945 17.8607 11.5193 17.8018 11.778C17.4064 13.5496 16.417 15.1327 14.9978 16.2645C13.5786 17.3962 11.8151 18.0086 9.99989 17.9999C7.11392 17.9999 4.52195 16.4719 3.09197 14H4.99995C5.26516 14 5.51951 13.8946 5.70705 13.7071C5.89458 13.5195 5.99994 13.2652 5.99994 13C5.99994 12.7348 5.89458 12.4804 5.70705 12.2929C5.51951 12.1053 5.26516 12 4.99995 12H0.999989C0.734776 12 0.480424 12.1053 0.29289 12.2929C0.105356 12.4804 0 12.7348 0 13V16.9999C0 17.2651 0.105356 17.5195 0.29289 17.707C0.480424 17.8946 0.734776 17.9999 0.999989 17.9999Z" fill="white"/>
</svg>
