<svg width="136" height="180" viewBox="0 0 136 180" fill="none" xmlns="http://www.w3.org/2000/svg">
<path fill-rule="evenodd" clip-rule="evenodd" d="M26.9662 132.411H34.0455V151.354H38.5649V132.411H45.5467V128.058H26.9662V132.411Z" fill="#1E86C8"/>
<path fill-rule="evenodd" clip-rule="evenodd" d="M1.34387 138.978V140.517C1.34387 143.684 3.3333 147.444 5.09751 148.787C7.68751 150.761 9.37665 151.939 13.9636 151.939C16.3509 151.939 18.1001 151.362 19.7367 150.551C20.7126 150.063 23.2351 148.217 23.7381 147.444L20.7802 144.344C19.8193 144.99 19.1211 145.928 17.9199 146.596C16.8464 147.189 15.4125 147.677 13.7984 147.677C9.47424 147.677 5.78067 144.449 5.78067 140.247V139.399C5.78067 135.098 9.29407 131.721 13.6333 131.721C15.2849 131.721 16.7037 132.179 17.8073 132.749C19.1511 133.455 19.7817 134.378 20.7877 135.061L23.8432 132.149C22.2516 129.762 17.9124 127.458 13.7909 127.458H13.4381C7.07943 127.466 1.34387 132.636 1.34387 138.978Z" fill="#1E86C8"/>
<path fill-rule="evenodd" clip-rule="evenodd" d="M82.2196 142.731H75.1402C73.6763 142.731 73.1733 143.331 73.1733 144.78V149.643C73.1733 150.859 73.9841 151.347 75.2228 151.347H81.9568C83.143 151.347 84.0889 150.979 84.0889 149.808V144.352C84.0889 143.241 83.3532 142.731 82.2196 142.731ZM82.0469 149.733H75.2228V144.277H82.0469V149.733Z" fill="#E42B2C"/>
<path fill-rule="evenodd" clip-rule="evenodd" d="M43.7749 144.78V149.47C43.7749 150.911 44.8109 151.346 46.2523 151.346H53.0689C54.6604 151.346 55.8766 151.084 55.8766 149.47V147.076H49.7507V148.78H53.5719V149.38H46.1697V144.599H53.5719V145.8H55.8766V144.599C55.8766 143.136 54.758 142.723 53.3241 142.723H46.5075C44.8409 142.731 43.7749 143.098 43.7749 144.78Z" fill="#E42B2C"/>
<path fill-rule="evenodd" clip-rule="evenodd" d="M66.2292 148.105C67.8207 148.105 69.3072 148.24 69.3072 146.649V144.36C69.3072 143.226 68.624 142.731 67.5054 142.731H59.7579V151.339H61.7999V148.097H63.5866C63.6692 148.097 66.9049 151.332 67.588 151.339C68.3988 151.354 70.178 151.339 70.178 151.339L66.2292 148.105ZM61.7999 146.649V144.187H66.7397C67.0175 144.187 67.3478 144.337 67.3478 144.615V146.221C67.3478 146.498 67.025 146.649 66.7397 146.649H61.7999Z" fill="#E42B2C"/>
<path fill-rule="evenodd" clip-rule="evenodd" d="M87.9702 149.643C87.9702 150.866 88.7059 151.347 89.9296 151.347H95.545C97.009 151.347 97.9399 150.979 97.9399 149.546V142.731H95.8153V149.726H90.0272V142.731H87.9777V149.643H87.9702Z" fill="#E42B2C"/>
<path fill-rule="evenodd" clip-rule="evenodd" d="M113.157 142.731H101.821V160H103.78V151.339H113.24C114.576 151.339 115.116 150.799 115.116 149.463V144.607C115.116 143.256 114.493 142.731 113.157 142.731ZM112.827 149.043C112.827 149.553 112.639 149.898 112.136 149.898H103.78V144.187H111.963C112.571 144.187 112.819 144.435 112.819 145.043V149.043H112.827Z" fill="#E42B2C"/>
<path d="M58.2489 87.8838C59.0296 87.8838 59.6603 87.2459 59.6603 86.4653V33.0444H56.8225V86.4653C56.8225 87.2459 57.4606 87.8838 58.2489 87.8838Z" fill="#E42B2C"/>
<path d="M60.2309 33.0446V86.4655C60.2309 87.5613 59.3375 88.4544 58.2415 88.4544C57.1379 88.4544 56.2445 87.5613 56.2445 86.4655V33.0446H20.4724L21.3883 34.298C21.6586 34.6582 22.2366 34.9509 22.6871 34.9509H37.604C37.9643 34.9509 38.4298 35.1836 38.64 35.4762L39.1505 36.1667H22.7696L23.693 37.4125C23.9558 37.7728 24.5338 38.0655 24.9843 38.0655H39.9012C40.2616 38.0655 40.727 38.3056 40.9372 38.5908L41.4477 39.2738H25.0594L25.9827 40.5271C26.2455 40.8799 26.8311 41.1801 27.274 41.1801H42.1984C42.5513 41.1801 43.0167 41.4127 43.2269 41.6979L43.7374 42.3884H27.3566L28.28 43.6417C28.5427 44.002 29.1283 44.2947 29.5787 44.2947H44.4957C44.8485 44.2947 45.314 44.5273 45.5317 44.82L46.0347 45.5105H29.6538L30.5697 46.7638C30.8324 47.1241 31.418 47.4168 31.8684 47.4168H52.1756V87.9515L58.2265 95.9444L64.2773 87.9515V47.4093H84.5845C85.0349 47.4093 85.613 47.1166 85.8757 46.7563L86.7991 45.503H70.4258L70.9288 44.8125C71.139 44.5273 71.6119 44.2872 71.9648 44.2872H86.8817C87.3322 44.2872 87.9102 43.9945 88.1805 43.6342L89.1039 42.3809H72.723L73.226 41.6904C73.4437 41.4052 73.9091 41.1726 74.262 41.1726H89.1789C89.6219 41.1726 90.2074 40.8799 90.4702 40.5196L91.3936 39.2663H75.0127L75.5157 38.5833C75.7334 38.2981 76.1989 38.058 76.5517 38.058H91.4611C91.9116 38.058 92.4896 37.7653 92.7599 37.405L93.6833 36.1592H77.3024L77.8129 35.4687C78.0231 35.1836 78.4886 34.9434 78.8414 34.9434H93.7659C94.2163 34.9434 94.7944 34.6507 95.0571 34.2905L95.9805 33.0371H60.2309V33.0446Z" fill="#1E86C8"/>
<path d="M112.339 74.9754C110.687 80.2965 108.277 85.2798 105.214 89.7979C105.109 89.963 104.997 90.1206 104.892 90.2857C104.809 90.4058 104.644 90.5033 104.494 90.5334C104.464 90.5409 104.449 90.5484 104.419 90.5484H103.6C103.6 90.5484 103.608 90.5409 103.608 90.5334C107.121 85.6176 109.854 80.1088 111.633 74.1949H110.92C110.627 74.1949 110.132 74.5401 109.959 74.9379C108.21 80.3265 105.65 85.3474 102.399 89.8579C102.302 89.993 102.211 90.1281 102.106 90.2632L102.099 90.2707C102.091 90.2782 102.091 90.2857 102.091 90.2857C102.001 90.4133 101.836 90.5108 101.678 90.5409C101.648 90.5484 101.626 90.5559 101.603 90.5559H100.748L100.755 90.5409C104.464 85.6776 107.361 80.1614 109.231 74.2024H108.51C108.217 74.2024 107.729 74.4876 107.534 74.9304C105.687 80.379 102.962 85.4149 99.5239 89.8804C99.4188 90.0155 99.3212 90.1506 99.2161 90.2857C99.126 90.4133 98.9533 90.5183 98.7881 90.5409C98.7656 90.5484 98.7356 90.5559 98.7131 90.5559H97.8347L97.8422 90.5409C101.769 85.7376 104.839 80.2139 106.821 74.2024H106.1C105.807 74.2024 105.244 74.5251 105.117 74.9154C103.15 80.4241 100.237 85.49 96.5735 89.9104C96.4534 90.053 96.3408 90.1956 96.2207 90.3382C96.1306 90.4433 95.9804 90.5183 95.8378 90.5484C95.8228 90.5484 95.8153 90.5559 95.8003 90.5634H94.8168C94.8168 90.5634 94.8243 90.5559 94.8243 90.5484C98.9984 85.8202 102.279 80.289 104.389 74.2099H103.608C103.285 74.2099 102.729 74.5101 102.549 74.9154C100.44 80.4991 97.3167 85.58 93.3904 89.933C93.2027 90.1356 93.0301 90.3532 92.8424 90.5559C92.8424 90.5559 92.8349 90.5634 92.8349 90.5709C84.1865 99.8321 71.8746 105.626 58.1963 105.626C32.0185 105.626 10.7955 84.4092 10.7955 58.2391C10.7955 32.0691 32.0185 10.8523 58.1963 10.8523C80.6206 10.8523 99.3887 26.4253 104.321 47.3343H115.394C110.327 20.3687 86.6564 0 58.2264 0C26.0727 0 0 26.065 0 58.2091C0 90.3607 26.0727 116.418 58.2264 116.418C78.4134 116.418 96.1981 106.144 106.641 90.5409L106.648 90.5259C109.966 85.565 112.556 80.0713 114.231 74.1874H113.405C113.059 74.1874 112.511 74.4876 112.339 74.9754Z" fill="#1E86C8"/>
<path fill-rule="evenodd" clip-rule="evenodd" d="M105.823 41.9458C105.823 40.5874 106.926 39.4917 108.277 39.4917C109.636 39.4917 110.732 40.5874 110.732 41.9458C110.732 43.3043 109.629 44.4 108.277 44.4C106.926 44.4075 105.823 43.3043 105.823 41.9458Z" fill="#E42B2C"/>
</svg>
