<svg width="42" height="42" viewBox="0 0 42 42" fill="none" xmlns="http://www.w3.org/2000/svg">
<rect opacity="0.7" width="42" height="42" rx="21" fill="white"/>
<path d="M17.8506 22.1293C17.7524 22.1293 15.6918 22.1299 14.7414 22.129C14.2522 22.1287 14.0776 21.9529 14.0776 21.4605C14.0768 20.1957 14.0768 18.931 14.0776 17.6662C14.0779 17.1801 14.2625 16.9946 14.7455 16.9943C15.6959 16.9936 17.7452 16.9939 17.8506 16.9939V14.2404C17.8512 12.9973 18.073 11.8073 18.7046 10.7177C19.3512 9.60249 20.2922 8.83857 21.4982 8.39686C22.2705 8.11375 23.0723 8.00082 23.8919 8.00019C24.9173 7.99957 25.9428 8.00051 26.9685 8.00238C27.4093 8.00301 27.6048 8.1979 27.6058 8.6418C27.6076 9.83148 27.6076 11.0212 27.6058 12.2105C27.6051 12.6591 27.4178 12.8393 26.967 12.8443C26.1264 12.8534 25.2852 12.8477 24.4456 12.8815C23.5975 12.8815 23.1514 13.2957 23.1514 14.1735C23.1311 15.102 23.143 16.0314 23.143 16.9936C23.2225 16.9936 25.6359 16.9933 26.764 16.9936C27.2764 16.9936 27.4515 17.1697 27.4515 17.685C27.4515 18.9428 27.4512 20.201 27.4503 21.4589C27.45 21.9666 27.2854 22.1287 26.7699 22.129C25.6418 22.1296 23.2378 22.1293 23.1327 22.1293V32.3102C23.1327 32.853 22.9619 33.026 22.4263 33.026H18.5088C18.0355 33.026 17.8509 32.842 17.8509 32.3687L17.8506 22.1293Z" fill="#3D6AD6"/>
</svg>
