<svg width="42" height="42" viewBox="0 0 42 42" fill="none" xmlns="http://www.w3.org/2000/svg">
<rect opacity="0.7" width="42" height="42" rx="21" fill="white"/>
<path d="M11.0526 11.4751H29.8221V30.2446H11.0526V11.4751Z" fill="#ECEFF1"/>
<path d="M20.4373 22.834L29.822 30.2448V15.614L20.4373 22.834Z" fill="#CFD8DC"/>
<path d="M30.6041 11.4751H29.822L20.4373 18.8859L11.0526 11.4751H10.2705C8.97541 11.4751 7.92432 12.5262 7.92432 13.8213V27.8984C7.92432 29.1935 8.97541 30.2446 10.2705 30.2446H11.0526V15.6138L20.4373 22.8322L29.822 15.6122V30.2446H30.6041C31.8992 30.2446 32.9503 29.1935 32.9503 27.8984V13.8213C32.9503 12.5262 31.8992 11.4751 30.6041 11.4751Z" fill="#F44336"/>
</svg>
