<svg width="42" height="42" viewBox="0 0 42 42" fill="none" xmlns="http://www.w3.org/2000/svg">
<rect opacity="0.7" width="42" height="42" rx="21" fill="white"/>
<path d="M31.2166 16.3459C31.1634 15.1804 30.9783 14.3845 30.7076 13.6882C30.4327 12.9576 30.0017 12.2958 29.4447 11.7489C28.8978 11.1918 28.236 10.7607 27.5054 10.4857C26.8089 10.2152 26.0132 10.0302 24.8477 9.9773C23.6801 9.92384 23.307 9.91113 20.3336 9.91113C17.3601 9.91113 16.987 9.92384 15.8194 9.977C14.6539 10.0302 13.8582 10.2154 13.1617 10.486C12.4311 10.7609 11.7692 11.1919 11.2224 11.7489C10.6653 12.2958 10.2342 12.9575 9.95916 13.6881C9.68865 14.3846 9.50371 15.1805 9.45076 16.3458C9.39735 17.5135 9.38464 17.8864 9.38464 20.8599C9.38464 23.8335 9.39735 24.2066 9.45081 25.3742C9.50393 26.5395 9.68903 27.3354 9.95968 28.0319C10.2346 28.7625 10.6656 29.4243 11.2226 29.9711C11.7694 30.5281 12.4312 30.9591 13.1618 31.2339C13.8582 31.5047 14.6541 31.6897 15.8196 31.743C16.9874 31.7963 17.3602 31.8088 20.3337 31.8088C23.3072 31.8088 23.6803 31.7963 24.8479 31.743C26.0134 31.6897 26.8091 31.5047 27.5056 31.2339C28.2329 30.9527 28.8934 30.5226 29.4448 29.9712C29.9963 29.4198 30.4264 28.7592 30.7076 28.0319C30.9784 27.3354 31.1634 26.5395 31.2167 25.3742C31.2698 24.2064 31.2825 23.8335 31.2825 20.8601C31.2825 17.8864 31.2698 17.5135 31.2166 16.3459ZM29.2458 25.2845C29.1972 26.3521 29.0187 26.9318 28.8689 27.3176C28.6867 27.7898 28.4077 28.2186 28.0499 28.5765C27.692 28.9344 27.2631 29.2134 26.7909 29.3955C26.4051 29.5454 25.8254 29.7238 24.7579 29.7725C23.6036 29.8252 23.2573 29.8363 20.3336 29.8363C17.4098 29.8363 17.0636 29.8252 15.9091 29.7725C14.8418 29.7238 14.2621 29.5454 13.8761 29.3955C13.4006 29.22 12.9704 28.9401 12.6173 28.5764C12.2536 28.2233 11.9737 27.7931 11.7982 27.3176C11.6483 26.9318 11.4699 26.3521 11.4212 25.2845C11.3686 24.1301 11.3574 23.7838 11.3574 20.8603C11.3574 17.9366 11.3686 17.5904 11.4212 16.4358C11.47 15.3683 11.6483 14.7885 11.7982 14.4028C11.9737 13.9272 12.2536 13.497 12.6173 13.1438C12.9704 12.7801 13.4007 12.5002 13.8763 12.3248C14.2621 12.1748 14.8418 11.9965 15.9093 11.9477C17.0638 11.8951 17.4101 11.8839 20.3336 11.8839H20.3334C23.257 11.8839 23.6033 11.8951 24.7579 11.9479C25.8254 11.9965 26.405 12.1749 26.7909 12.3248C27.2664 12.5004 27.6965 12.7802 28.0498 13.1438C28.4135 13.4969 28.6933 13.9272 28.8688 14.4028C29.0187 14.7886 29.1972 15.3683 29.2458 16.4358C29.2984 17.5903 29.3096 17.9366 29.3096 20.8601C29.3096 23.7838 29.2986 24.1299 29.2458 25.2845Z" fill="url(#paint0_linear_15781_4915)"/>
<path d="M20.3335 15.238C17.2284 15.238 14.7112 17.7553 14.7112 20.8605C14.7112 23.9656 17.2284 26.4828 20.3335 26.4828C23.4388 26.4828 25.956 23.9656 25.956 20.8605C25.956 17.7553 23.4388 15.238 20.3335 15.238ZM20.3335 24.5101C18.318 24.5099 16.6839 22.876 16.6841 20.8603C16.6841 18.8448 18.318 17.2107 20.3337 17.2107C22.3493 17.2109 23.9832 18.8448 23.9832 20.8603C23.9832 22.876 22.3492 24.5101 20.3335 24.5101Z" fill="url(#paint1_linear_15781_4915)"/>
<path d="M27.4918 15.0157C27.4918 15.7412 26.9035 16.3294 26.178 16.3294C25.4523 16.3294 24.864 15.7412 24.864 15.0157C24.864 14.2899 25.4523 13.7017 26.178 13.7017C26.9035 13.7017 27.4918 14.2899 27.4918 15.0157H27.4918Z" fill="url(#paint2_linear_15781_4915)"/>
<defs>
<linearGradient id="paint0_linear_15781_4915" x1="11.2223" y1="29.9712" x2="29.4449" y2="11.7486" gradientUnits="userSpaceOnUse">
<stop stop-color="#FFD600"/>
<stop offset="0.5" stop-color="#FF0100"/>
<stop offset="1" stop-color="#D800B9"/>
</linearGradient>
<linearGradient id="paint1_linear_15781_4915" x1="16.358" y1="24.836" x2="24.3092" y2="16.8848" gradientUnits="userSpaceOnUse">
<stop stop-color="#FF6400"/>
<stop offset="0.5" stop-color="#FF0100"/>
<stop offset="1" stop-color="#FD0056"/>
</linearGradient>
<linearGradient id="paint2_linear_15781_4915" x1="25.2489" y1="15.9446" x2="27.107" y2="14.0865" gradientUnits="userSpaceOnUse">
<stop stop-color="#F30072"/>
<stop offset="1" stop-color="#E50097"/>
</linearGradient>
</defs>
</svg>
