<svg width="42" height="42" viewBox="0 0 42 42" fill="none" xmlns="http://www.w3.org/2000/svg">
<rect opacity="0.7" width="42" height="42" rx="21" fill="white"/>
<path d="M31.8984 31.8088V23.7888C31.8984 19.8472 31.0499 16.8363 26.4514 16.8363C24.2342 16.8363 22.7561 18.0407 22.154 19.1903H22.0992V17.1921H17.747V31.8088H22.2908V24.5552C22.2908 22.6392 22.6467 20.8052 25.0007 20.8052C27.3273 20.8052 27.3547 22.9676 27.3547 24.6647V31.7815H31.8984V31.8088ZM10.3566 17.1921H14.9003V31.8088H10.3566V17.1921ZM12.6285 9.91113C11.1777 9.91113 10.0007 11.0881 10.0007 12.5389C10.0007 13.9896 11.1777 15.194 12.6285 15.194C14.0792 15.194 15.2562 13.9896 15.2562 12.5389C15.2562 11.0881 14.0792 9.91113 12.6285 9.91113Z" fill="#1E86C8"/>
</svg>
