<svg width="42" height="42" viewBox="0 0 42 42" fill="none" xmlns="http://www.w3.org/2000/svg">
<rect opacity="0.7" width="42" height="42" rx="21" fill="white"/>
<path d="M17.6279 20.8551C15.3862 20.8551 13.5751 22.6661 13.6082 24.8858C13.6303 26.3103 14.4144 27.5471 15.5684 28.2373C15.1763 27.6355 14.9444 26.9232 14.9334 26.1557C14.9003 23.9361 16.7113 22.125 18.9531 22.125C19.3948 22.125 19.8199 22.1968 20.2175 22.3238V17.879C19.8034 17.8182 19.3782 17.7851 18.9531 17.7851H18.8923V21.0538C18.4948 20.9268 18.0696 20.8551 17.6279 20.8551ZM27.3182 7.52612H26.1365C26.4678 9.1881 27.401 10.6347 28.7041 11.6176C27.8482 10.4857 27.3292 9.07215 27.3182 7.52612Z" fill="#F00044"/>
<path d="M34.0765 14.2904C33.6403 14.2904 33.2206 14.2462 32.8065 14.1689V17.3549C31.3047 17.3549 29.847 17.0622 28.4777 16.4769C27.5942 16.1015 26.7715 15.6211 26.0151 15.0413L26.0372 24.8641C26.0261 27.0727 25.1537 29.1433 23.5746 30.7059C22.288 31.9758 20.6592 32.7875 18.8923 33.047C18.4782 33.1077 18.053 33.1409 17.6279 33.1409C15.7395 33.1409 13.9395 32.528 12.4763 31.3961C12.642 31.5948 12.8187 31.7881 13.0119 31.9758C14.6021 33.5439 16.7113 34.4108 18.9586 34.4108C19.3837 34.4108 19.8089 34.3777 20.223 34.317C21.9899 34.0574 23.6187 33.2458 24.9052 31.9758C26.4844 30.4132 27.3568 28.3427 27.3678 26.1341L27.285 16.3113C28.0359 16.8911 28.8586 17.3769 29.7476 17.7469C31.1225 18.3266 32.5801 18.6248 34.0765 18.6248" fill="#F00044"/>
<path d="M12.9954 20.2317C14.569 18.6691 16.6617 17.8023 18.8923 17.7857V16.6096C18.4782 16.5489 18.0531 16.5157 17.6279 16.5157C15.3751 16.5157 13.2604 17.3826 11.6702 18.9618C10.1076 20.5133 9.21313 22.6336 9.21865 24.8367C9.21865 27.0563 10.0966 29.1379 11.6812 30.7116C11.9352 30.96 12.1947 31.1919 12.4708 31.4017C11.223 29.9165 10.5438 28.0612 10.5383 26.1066C10.5438 23.9035 11.4328 21.7833 12.9954 20.2317ZM32.8066 14.1691V12.9875H32.7955C31.2605 12.9875 29.847 12.4795 28.7096 11.6182C29.6979 12.9212 31.1446 13.8489 32.8066 14.1691Z" fill="#08FFF9"/>
<path d="M18.7268 30.0654C19.2513 30.093 19.7538 30.0212 20.2176 29.8721C21.8188 29.3476 22.9728 27.8567 22.9728 26.1009L22.9784 19.5303V7.52654H26.1367C26.0538 7.11243 26.0097 6.69279 26.0041 6.25659H21.6532V18.2548L21.6477 24.8254C21.6477 26.5813 20.4937 28.0721 18.8924 28.5966C18.4286 28.7512 17.9262 28.823 17.4016 28.7899C16.7335 28.7512 16.1096 28.5525 15.5685 28.2322C16.2476 29.2813 17.4071 29.9936 18.7268 30.0654Z" fill="#08FFF9"/>
<path d="M18.8924 33.0466C20.6593 32.7871 22.2881 31.9754 23.5746 30.7054C25.1538 29.1429 26.0262 27.0723 26.0372 24.8637L26.0151 15.0409C26.7661 15.6207 27.5888 16.1066 28.4777 16.4765C29.8526 17.0563 31.3103 17.3544 32.8066 17.3544V14.1685C31.1446 13.8483 29.698 12.9206 28.7096 11.6176C27.4065 10.6347 26.4679 9.1881 26.1421 7.52612H22.9783V19.5244L22.9728 26.095C22.9728 27.8508 21.8188 29.3416 20.2175 29.8662C19.7537 30.0208 19.2513 30.0926 18.7267 30.0594C17.4016 29.9876 16.2476 29.2754 15.5684 28.2318C14.4144 27.5471 13.6304 26.3048 13.6083 24.8802C13.5752 22.6606 15.3862 20.8495 17.6279 20.8495C18.0697 20.8495 18.4948 20.9213 18.8924 21.0483V17.7796C16.6617 17.7961 14.569 18.663 12.9954 20.2256C11.4328 21.7772 10.5383 23.8974 10.5438 26.095C10.5438 28.0496 11.223 29.9048 12.4764 31.3901C13.9451 32.522 15.7396 33.1349 17.6279 33.1349C18.0531 33.1404 18.4783 33.1073 18.8924 33.0466Z" fill="black"/>
</svg>
