<svg width="42" height="42" viewBox="0 0 42 42" fill="none" xmlns="http://www.w3.org/2000/svg">
<rect opacity="0.7" width="42" height="42" rx="21" fill="white"/>
<path d="M34.5812 13.5413C33.5789 13.981 32.511 14.2724 31.3976 14.4139C32.543 13.73 33.4172 12.6553 33.8282 11.36C32.7603 11.9967 31.5812 12.4464 30.3246 12.6974C29.3105 11.6177 27.8653 10.949 26.2887 10.949C23.2297 10.949 20.7671 13.4318 20.7671 16.4756C20.7671 16.9136 20.8041 17.3347 20.8951 17.7356C16.3016 17.5115 12.2371 15.31 9.50659 11.9563C9.0299 12.7833 8.75028 13.73 8.75028 14.7491C8.75028 16.6626 9.73568 18.3588 11.2045 19.3408C10.3168 19.324 9.44595 19.0663 8.70817 18.6603V18.721C8.70817 21.406 10.6234 23.6362 13.1349 24.1499C12.6851 24.2729 12.195 24.3318 11.6863 24.3318C11.3325 24.3318 10.9754 24.3116 10.6402 24.2375C11.3561 26.4256 13.3875 28.0342 15.803 28.0865C13.9232 29.557 11.5363 30.443 8.95241 30.443C8.4993 30.443 8.06471 30.4228 7.63013 30.3672C10.0776 31.9455 12.9782 32.8467 16.1062 32.8467C26.2735 32.8467 31.8321 24.4245 31.8321 17.1241C31.8321 16.8799 31.8237 16.6441 31.8119 16.4099C32.9085 15.6317 33.8299 14.6598 34.5812 13.5413Z" fill="#03A9F4"/>
</svg>
