<svg width="42" height="42" viewBox="0 0 42 42" fill="none" xmlns="http://www.w3.org/2000/svg">
<rect opacity="0.7" width="42" height="42" rx="21" fill="white"/>
<path d="M32.7731 12.5602C31.8104 11.4158 30.0329 10.949 26.6384 10.949H14.3163C10.8441 10.949 9.0365 11.4459 8.07741 12.6643C7.14233 13.8522 7.14233 15.6025 7.14233 18.0251V22.6424C7.14233 27.3356 8.25181 29.7184 14.3163 29.7184H26.6385C29.5822 29.7184 31.2133 29.3065 32.2686 28.2966C33.3509 27.2609 33.8126 25.5699 33.8126 22.6424V18.0251C33.8126 15.4703 33.7402 13.7097 32.7731 12.5602ZM24.2647 20.9712L18.6693 23.8955C18.5463 23.9598 18.4096 23.9934 18.2708 23.9933C18.0426 23.9933 17.8238 23.9027 17.6625 23.7413C17.5012 23.58 17.4105 23.3612 17.4105 23.133V17.3031C17.4105 17.1553 17.4486 17.01 17.521 16.8812C17.5935 16.7525 17.6979 16.6445 17.8242 16.5678C17.9504 16.4911 18.0944 16.4482 18.242 16.4432C18.3897 16.4383 18.5362 16.4715 18.6673 16.5396L24.2628 19.4451C24.4024 19.5176 24.5196 19.627 24.6014 19.7614C24.6832 19.8958 24.7266 20.0501 24.7268 20.2075C24.727 20.3649 24.684 20.5193 24.6025 20.6539C24.5211 20.7886 24.4042 20.8983 24.2647 20.9712Z" fill="#D7143A"/>
</svg>
