<svg width="54" height="54" viewBox="0 0 54 54" fill="none" xmlns="http://www.w3.org/2000/svg">
<circle cx="27" cy="24" r="18" fill="#CCE4FF"/>
<rect x="14.6786" y="18.4426" width="0.535714" height="3.78688" rx="0.267857" fill="#007AFF"/>
<rect x="38.25" y="18.4426" width="0.535714" height="3.78688" rx="0.267857" fill="#007AFF"/>
<ellipse cx="14.9464" cy="17.0903" rx="0.803572" ry="0.811476" fill="#0F1C2F"/>
<ellipse cx="38.5178" cy="17.0903" rx="0.803572" ry="0.811476" fill="#0F1C2F"/>
<g filter="url(#filter0_iif_13819_14190)">
<path fill-rule="evenodd" clip-rule="evenodd" d="M26.8729 16.1986C20.8691 16.1986 16.002 21.1135 16.002 27.1764C16.002 33.2393 20.8691 38.1542 26.8729 38.1542C32.8767 38.1542 37.7438 33.2393 37.7438 27.1764C37.7438 21.1135 32.8767 16.1986 26.8729 16.1986ZM15.2142 27.1764C15.2142 20.6742 20.434 15.4031 26.8729 15.4031C33.3118 15.4031 38.5315 20.6742 38.5315 27.1764C38.5315 33.6786 33.3118 38.9497 26.8729 38.9497C20.434 38.9497 15.2142 33.6786 15.2142 27.1764Z" fill="url(#paint0_linear_13819_14190)"/>
</g>
<path d="M12 24.3935C12 23.7959 12.4797 23.3115 13.0714 23.3115C13.6632 23.3115 14.1429 23.7959 14.1429 24.3935V26.5574C14.1429 27.155 13.6632 27.6394 13.0714 27.6394C12.4797 27.6394 12 27.155 12 26.5574V24.3935Z" fill="#FEF8FC"/>
<path fill-rule="evenodd" clip-rule="evenodd" d="M13.6071 26.5574V24.3935C13.6071 24.0947 13.3673 23.8525 13.0714 23.8525C12.7756 23.8525 12.5357 24.0947 12.5357 24.3935V26.5574C12.5357 26.8562 12.7756 27.0984 13.0714 27.0984C13.3673 27.0984 13.6071 26.8562 13.6071 26.5574ZM13.0714 23.3115C12.4797 23.3115 12 23.7959 12 24.3935V26.5574C12 27.155 12.4797 27.6394 13.0714 27.6394C13.6632 27.6394 14.1429 27.155 14.1429 26.5574V24.3935C14.1429 23.7959 13.6632 23.3115 13.0714 23.3115Z" fill="#006EE6"/>
<path d="M13.0714 24.3934C13.0714 22.8995 14.2706 21.6885 15.75 21.6885C17.2293 21.6885 18.4286 22.8995 18.4286 24.3934V26.5573C18.4286 28.0512 17.2293 29.2622 15.75 29.2622C14.2706 29.2622 13.0714 28.0512 13.0714 26.5573V24.3934Z" fill="#FEF8FC"/>
<path fill-rule="evenodd" clip-rule="evenodd" d="M17.625 26.5573V24.3934C17.625 23.3477 16.7855 22.5 15.75 22.5C14.7144 22.5 13.875 23.3477 13.875 24.3934V26.5573C13.875 27.603 14.7144 28.4508 15.75 28.4508C16.7855 28.4508 17.625 27.603 17.625 26.5573ZM15.75 21.6885C14.2706 21.6885 13.0714 22.8995 13.0714 24.3934V26.5573C13.0714 28.0512 14.2706 29.2622 15.75 29.2622C17.2293 29.2622 18.4286 28.0512 18.4286 26.5573V24.3934C18.4286 22.8995 17.2293 21.6885 15.75 21.6885Z" fill="#006EE6"/>
<path d="M42 24.3935C42 23.7959 41.5203 23.3115 40.9286 23.3115C40.3368 23.3115 39.8571 23.7959 39.8571 24.3935V26.5574C39.8571 27.155 40.3368 27.6394 40.9286 27.6394C41.5203 27.6394 42 27.155 42 26.5574V24.3935Z" fill="#FEF8FC"/>
<path fill-rule="evenodd" clip-rule="evenodd" d="M40.3929 26.5574V24.3935C40.3929 24.0947 40.6327 23.8525 40.9286 23.8525C41.2244 23.8525 41.4643 24.0947 41.4643 24.3935V26.5574C41.4643 26.8562 41.2244 27.0984 40.9286 27.0984C40.6327 27.0984 40.3929 26.8562 40.3929 26.5574ZM40.9286 23.3115C41.5203 23.3115 42 23.7959 42 24.3935V26.5574C42 27.155 41.5203 27.6394 40.9286 27.6394C40.3368 27.6394 39.8571 27.155 39.8571 26.5574V24.3935C39.8571 23.7959 40.3368 23.3115 40.9286 23.3115Z" fill="#006EE6"/>
<path d="M40.9286 24.3934C40.9286 22.8995 39.7294 21.6885 38.25 21.6885C36.7707 21.6885 35.5714 22.8995 35.5714 24.3934V26.5573C35.5714 28.0512 36.7707 29.2622 38.25 29.2622C39.7294 29.2622 40.9286 28.0512 40.9286 26.5573V24.3934Z" fill="#FEF8FC"/>
<path fill-rule="evenodd" clip-rule="evenodd" d="M36.375 26.5573V24.3934C36.375 23.3477 37.2145 22.5 38.25 22.5C39.2856 22.5 40.125 23.3477 40.125 24.3934V26.5573C40.125 27.603 39.2856 28.4508 38.25 28.4508C37.2145 28.4508 36.375 27.603 36.375 26.5573ZM38.25 21.6885C39.7294 21.6885 40.9286 22.8995 40.9286 24.3934V26.5573C40.9286 28.0512 39.7294 29.2622 38.25 29.2622C36.7707 29.2622 35.5714 28.0512 35.5714 26.5573V24.3934C35.5714 22.8995 36.7707 21.6885 38.25 21.6885Z" fill="#006EE6"/>
<path d="M38.1378 26.0941C38.1378 32.3766 33.0944 37.4697 26.8731 37.4697C20.6517 37.4697 15.6083 32.3766 15.6083 26.0941C15.6083 19.8115 20.6517 14.7185 26.8731 14.7185C33.0944 14.7185 38.1378 19.8115 38.1378 26.0941Z" fill="#CCE4FF"/>
<path fill-rule="evenodd" clip-rule="evenodd" d="M26.8729 15.1165C20.8691 15.1165 16.002 20.0315 16.002 26.0944C16.002 32.1573 20.8691 37.0722 26.8729 37.0722C32.8767 37.0722 37.7438 32.1573 37.7438 26.0944C37.7438 20.0315 32.8767 15.1165 26.8729 15.1165ZM15.2142 26.0944C15.2142 19.5921 20.434 14.321 26.8729 14.321C33.3118 14.321 38.5315 19.5921 38.5315 26.0944C38.5315 32.5966 33.3118 37.8677 26.8729 37.8677C20.434 37.8677 15.2142 32.5966 15.2142 26.0944Z" fill="url(#paint1_linear_13819_14190)"/>
<ellipse cx="26.4794" cy="25.5374" rx="10.3983" ry="10.5005" fill="#F2F8FF"/>
<path d="M18.1348 24.8974C18.003 21.9704 20.3173 19.5247 23.2188 19.5247H30.7918C33.6893 19.5247 36.0022 21.964 35.8763 24.8872L35.8111 26.4018C35.6676 29.7359 33.4548 32.615 30.2921 33.5828L-nan -nanL30.2921 33.5828C27.9854 34.2887 25.4934 34.188 23.2457 33.3093L-nan -nanL23.2457 33.3093C20.333 32.1707 18.3371 29.3926 18.1953 26.2419L18.1348 24.8974Z" fill="#04265A"/>
<path d="M17.8978 24.5277C17.7746 21.8021 19.9397 19.5247 22.654 19.5247H29.7388C32.4494 19.5247 34.6131 21.7962 34.4954 24.5183L34.4344 25.9286C34.3001 29.0333 32.23 31.7143 29.2712 32.6156L-nan -nanL29.2712 32.6156C27.1132 33.2729 24.782 33.1791 22.6792 32.3609L-nan -nanL22.6792 32.3609C19.9544 31.3006 18.0871 28.7136 17.9545 25.7797L17.8978 24.5277Z" fill="#11315F"/>
<mask id="mask0_13819_14190" style="mask-type:alpha" maskUnits="userSpaceOnUse" x="22" y="26" width="10" height="7">
<path d="M22.3031 27.577C22.3031 30.141 24.3816 32.2195 26.9456 32.2195C29.5095 32.2195 31.588 30.141 31.588 27.577V26.8101H22.3031V27.577Z" fill="#A42B4C"/>
</mask>
<g mask="url(#mask0_13819_14190)">
<path d="M22.3031 27.577C22.3031 30.141 24.3816 32.2195 26.9456 32.2195C29.5095 32.2195 31.588 30.141 31.588 27.577V26.8101H22.3031V27.577Z" fill="#0F1C2F"/>
<path d="M26.9455 28.613C22.8982 28.613 20.8746 26.1996 20.8746 26.1996C20.8746 26.1996 23.3029 23.384 26.9455 23.384C30.588 23.384 33.0164 26.1996 33.0164 26.1996C33.0164 26.1996 30.9927 28.613 26.9455 28.613Z" fill="#FAFBFC"/>
<path d="M31.3427 32.2193H22.6381C22.9059 31.3628 24.379 29.5146 27.0573 29.5146C29.7357 29.5146 30.9409 31.3628 31.3427 32.2193Z" fill="url(#paint2_linear_13819_14190)"/>
<ellipse cx="0.804313" cy="0.540401" rx="0.804313" ry="0.540401" transform="matrix(0.946622 0.322345 -0.316729 0.948516 25.1232 30.0557)" fill="#CCE4FF"/>
</g>
<rect x="21.1072" y="21.1475" width="3.75" height="4.32787" rx="1.875" fill="url(#paint3_linear_13819_14190)"/>
<path d="M28.8358 22.8156C28.8358 21.8584 29.6117 21.0825 30.5689 21.0825C31.526 21.0825 32.3019 21.8584 32.3019 22.8156V23.3099H28.8358V22.8156Z" fill="url(#paint4_linear_13819_14190)"/>
<rect width="3.4669" height="0.477188" rx="0.238594" transform="matrix(0.987868 0.155295 -0.152355 0.988326 28.8928 23.521)" fill="url(#paint5_linear_13819_14190)"/>
<ellipse cx="23.5179" cy="23.3114" rx="1.33929" ry="1.62295" fill="white"/>
<path d="M25.6864 17.2007C29.3894 16.6562 29.1693 13.5372 27.8212 11.907C26.5901 10.4181 23.5811 9.75328 22.2054 9.97407C21.075 10.1555 20.5495 10.3401 19.594 9.98028C19.0614 9.77971 18.3753 9.01941 18.3563 9.20674C17.9435 13.2895 21.9833 17.7453 25.6864 17.2007Z" fill="url(#paint6_linear_13819_14190)"/>
<path d="M31.7482 12.944C32.191 16.1684 29.5829 16.7332 27.9238 15.9983C26.4085 15.3271 25.1416 12.9729 24.9922 11.7706C24.8695 10.7826 24.8946 10.2993 24.3704 9.58741C24.0783 9.1906 23.2907 8.79988 23.4396 8.73907C26.6853 7.41412 31.3054 9.71961 31.7482 12.944Z" fill="url(#paint7_linear_13819_14190)"/>
<mask id="mask1_13819_14190" style="mask-type:alpha" maskUnits="userSpaceOnUse" x="19" y="11" width="14" height="8">
<path d="M27.819 12.0103C24.1859 13.9058 23.9729 13.5024 22.0139 13.5942L22.796 14.3843C22.2916 14.7015 20.8285 15.2205 19.0107 14.7593C21.2657 18.8053 27.8566 20.2579 30.911 17.3111C33.9654 14.3643 31.4522 10.1147 27.819 12.0103Z" fill="url(#paint8_linear_13819_14190)"/>
</mask>
<g mask="url(#mask1_13819_14190)">
<path d="M27.819 12.0103C24.1859 13.9058 23.9729 13.5024 22.0139 13.5942L22.796 14.3843C22.2916 14.7015 20.8285 15.2205 19.0107 14.7593C21.2657 18.8053 27.8566 20.2579 30.911 17.3111C33.9654 14.3643 31.4522 10.1147 27.819 12.0103Z" fill="url(#paint9_linear_13819_14190)"/>
<path d="M27.174 10.3101C23.5408 12.2056 23.3279 11.8022 21.3689 11.894L22.151 12.6841C21.6466 13.0013 20.1834 13.5203 18.3657 13.0591C20.6207 17.1051 27.2116 18.5577 30.266 15.6109C33.3204 12.6641 30.8072 8.41455 27.174 10.3101Z" fill="url(#paint10_linear_13819_14190)"/>
<path d="M26.3681 8.18459C22.7349 10.0801 22.522 9.67673 20.563 9.7685L21.3451 10.5586C20.8407 10.8758 19.3775 11.3948 17.5598 10.9336C19.8148 14.9796 26.4057 16.4322 29.4601 13.4854C32.5145 10.5386 30.0013 6.28906 26.3681 8.18459Z" fill="url(#paint11_linear_13819_14190)"/>
</g>
<defs>
<filter id="filter0_iif_13819_14190" x="0.214233" y="0.403076" width="53.3173" height="53.5466" filterUnits="userSpaceOnUse" color-interpolation-filters="sRGB">
<feFlood flood-opacity="0" result="BackgroundImageFix"/>
<feBlend mode="normal" in="SourceGraphic" in2="BackgroundImageFix" result="shape"/>
<feColorMatrix in="SourceAlpha" type="matrix" values="0 0 0 0 0 0 0 0 0 0 0 0 0 0 0 0 0 0 127 0" result="hardAlpha"/>
<feOffset dy="4"/>
<feGaussianBlur stdDeviation="2"/>
<feComposite in2="hardAlpha" operator="arithmetic" k2="-1" k3="1"/>
<feColorMatrix type="matrix" values="0 0 0 0 0.508333 0 0 0 0 0.812428 0 0 0 0 1 0 0 0 1 0"/>
<feBlend mode="normal" in2="shape" result="effect1_innerShadow_13819_14190"/>
<feColorMatrix in="SourceAlpha" type="matrix" values="0 0 0 0 0 0 0 0 0 0 0 0 0 0 0 0 0 0 127 0" result="hardAlpha"/>
<feOffset dy="1"/>
<feGaussianBlur stdDeviation="2"/>
<feComposite in2="hardAlpha" operator="arithmetic" k2="-1" k3="1"/>
<feColorMatrix type="matrix" values="0 0 0 0 0.4125 0 0 0 0 0.585294 0 0 0 0 1 0 0 0 1 0"/>
<feBlend mode="normal" in2="effect1_innerShadow_13819_14190" result="effect2_innerShadow_13819_14190"/>
<feGaussianBlur stdDeviation="7.5" result="effect3_foregroundBlur_13819_14190"/>
</filter>
<linearGradient id="paint0_linear_13819_14190" x1="26.8729" y1="15.4031" x2="26.8729" y2="38.9497" gradientUnits="userSpaceOnUse">
<stop stop-color="#007AFF"/>
<stop offset="1" stop-color="#67B0FF"/>
</linearGradient>
<linearGradient id="paint1_linear_13819_14190" x1="26.8729" y1="14.321" x2="26.8729" y2="37.8677" gradientUnits="userSpaceOnUse">
<stop stop-color="#1F6BFF"/>
<stop offset="1" stop-color="#0031DE"/>
</linearGradient>
<linearGradient id="paint2_linear_13819_14190" x1="26.9904" y1="29.5146" x2="26.9904" y2="32.2193" gradientUnits="userSpaceOnUse">
<stop stop-color="#B4D8FF"/>
<stop offset="0.615" stop-color="#4FA3FF"/>
<stop offset="0.995" stop-color="#248DFF"/>
</linearGradient>
<linearGradient id="paint3_linear_13819_14190" x1="22.9822" y1="21.1475" x2="22.9822" y2="25.4753" gradientUnits="userSpaceOnUse">
<stop stop-color="#4B88FF"/>
<stop offset="1" stop-color="#1448FF"/>
</linearGradient>
<linearGradient id="paint4_linear_13819_14190" x1="30.5689" y1="21.0825" x2="30.5689" y2="23.3099" gradientUnits="userSpaceOnUse">
<stop stop-color="#4B88FF"/>
<stop offset="1" stop-color="#1448FF"/>
</linearGradient>
<linearGradient id="paint5_linear_13819_14190" x1="1.73345" y1="0" x2="1.73345" y2="0.477188" gradientUnits="userSpaceOnUse">
<stop stop-color="#4B88FF"/>
<stop offset="1" stop-color="#1448FF"/>
</linearGradient>
<linearGradient id="paint6_linear_13819_14190" x1="26.3431" y1="14.7484" x2="18.0805" y2="9.9639" gradientUnits="userSpaceOnUse">
<stop stop-color="#0073F0"/>
<stop offset="1" stop-color="#87C0FF"/>
</linearGradient>
<linearGradient id="paint7_linear_13819_14190" x1="25.4684" y1="13.278" x2="30.5557" y2="10.3092" gradientUnits="userSpaceOnUse">
<stop stop-color="#B4D8FF"/>
<stop offset="0.615" stop-color="#4FA3FF"/>
<stop offset="0.995" stop-color="#248DFF"/>
</linearGradient>
<linearGradient id="paint8_linear_13819_14190" x1="27.4466" y1="18.2293" x2="25.2482" y2="12.5627" gradientUnits="userSpaceOnUse">
<stop stop-color="#FF9EB6"/>
<stop offset="1" stop-color="#E66A8C"/>
</linearGradient>
<linearGradient id="paint9_linear_13819_14190" x1="24.9536" y1="12.4537" x2="27.5134" y2="19.0518" gradientUnits="userSpaceOnUse">
<stop stop-color="#B4D8FF"/>
<stop offset="0.615" stop-color="#4FA3FF"/>
<stop offset="0.995" stop-color="#248DFF"/>
</linearGradient>
<linearGradient id="paint10_linear_13819_14190" x1="24.3086" y1="10.7535" x2="26.8684" y2="17.3516" gradientUnits="userSpaceOnUse">
<stop stop-color="#B4D8FF"/>
<stop offset="0.615" stop-color="#4FA3FF"/>
<stop offset="0.995" stop-color="#248DFF"/>
</linearGradient>
<linearGradient id="paint11_linear_13819_14190" x1="23.5027" y1="8.62799" x2="26.0625" y2="15.2261" gradientUnits="userSpaceOnUse">
<stop stop-color="#B4D8FF"/>
<stop offset="0.615" stop-color="#4FA3FF"/>
<stop offset="0.995" stop-color="#248DFF"/>
</linearGradient>
</defs>
</svg>
