<svg width="164" height="182" viewBox="0 0 164 182" fill="none" xmlns="http://www.w3.org/2000/svg">
<rect x="75.1845" y="104.705" width="1.63691" height="11.4754" rx="0.818453" fill="#007AFF"/>
<rect x="147.208" y="104.705" width="1.6369" height="11.4754" rx="0.818452" fill="#007AFF"/>
<ellipse cx="76.003" cy="100.606" rx="2.45536" ry="2.45902" fill="#0F1C2F"/>
<ellipse cx="148.027" cy="100.606" rx="2.45536" ry="2.45902" fill="#0F1C2F"/>
<g filter="url(#filter0_iif_13819_14134)">
<path fill-rule="evenodd" clip-rule="evenodd" d="M112.445 97.9045C94.1 97.9045 79.2284 112.798 79.2284 131.171C79.2284 149.543 94.1 164.437 112.445 164.437C130.79 164.437 145.662 149.543 145.662 131.171C145.662 112.798 130.79 97.9045 112.445 97.9045ZM76.8214 131.171C76.8214 111.467 92.7707 95.4939 112.445 95.4939C132.119 95.4939 148.069 111.467 148.069 131.171C148.069 150.874 132.119 166.847 112.445 166.847C92.7707 166.847 76.8214 150.874 76.8214 131.171Z" fill="url(#paint0_linear_13819_14134)"/>
</g>
<path d="M67 122.738C67 120.927 68.4657 119.459 70.2738 119.459C72.0819 119.459 73.5476 120.927 73.5476 122.738V129.295C73.5476 131.106 72.0819 132.574 70.2738 132.574C68.4657 132.574 67 131.106 67 129.295V122.738Z" fill="#FEF8FC"/>
<path fill-rule="evenodd" clip-rule="evenodd" d="M71.9107 129.295V122.738C71.9107 121.832 71.1778 121.098 70.2738 121.098C69.3698 121.098 68.6369 121.832 68.6369 122.738V129.295C68.6369 130.2 69.3698 130.934 70.2738 130.934C71.1778 130.934 71.9107 130.2 71.9107 129.295ZM70.2738 119.459C68.4657 119.459 67 120.927 67 122.738V129.295C67 131.106 68.4657 132.574 70.2738 132.574C72.0819 132.574 73.5476 131.106 73.5476 129.295V122.738C73.5476 120.927 72.0819 119.459 70.2738 119.459Z" fill="#006EE6"/>
<path d="M70.2738 122.738C70.2738 118.211 73.9381 114.541 78.4583 114.541C82.9785 114.541 86.6429 118.211 86.6429 122.738V129.295C86.6429 133.822 82.9785 137.492 78.4583 137.492C73.9381 137.492 70.2738 133.822 70.2738 129.295V122.738Z" fill="#FEF8FC"/>
<path fill-rule="evenodd" clip-rule="evenodd" d="M84.1875 129.295V122.738C84.1875 119.569 81.6225 117 78.4583 117C75.2942 117 72.7292 119.569 72.7292 122.738V129.295C72.7292 132.464 75.2942 135.033 78.4583 135.033C81.6225 135.033 84.1875 132.464 84.1875 129.295ZM78.4583 114.541C73.9381 114.541 70.2738 118.211 70.2738 122.738V129.295C70.2738 133.822 73.9381 137.492 78.4583 137.492C82.9785 137.492 86.6429 133.822 86.6429 129.295V122.738C86.6429 118.211 82.9785 114.541 78.4583 114.541Z" fill="#006EE6"/>
<path d="M158.667 122.738C158.667 120.927 157.201 119.459 155.393 119.459C153.585 119.459 152.119 120.927 152.119 122.738V129.295C152.119 131.106 153.585 132.574 155.393 132.574C157.201 132.574 158.667 131.106 158.667 129.295V122.738Z" fill="#FEF8FC"/>
<path fill-rule="evenodd" clip-rule="evenodd" d="M153.756 129.295V122.738C153.756 121.832 154.489 121.098 155.393 121.098C156.297 121.098 157.03 121.832 157.03 122.738V129.295C157.03 130.2 156.297 130.934 155.393 130.934C154.489 130.934 153.756 130.2 153.756 129.295ZM155.393 119.459C157.201 119.459 158.667 120.927 158.667 122.738V129.295C158.667 131.106 157.201 132.574 155.393 132.574C153.585 132.574 152.119 131.106 152.119 129.295V122.738C152.119 120.927 153.585 119.459 155.393 119.459Z" fill="#006EE6"/>
<path d="M155.393 122.738C155.393 118.211 151.729 114.541 147.208 114.541C142.688 114.541 139.024 118.211 139.024 122.738V129.295C139.024 133.822 142.688 137.492 147.208 137.492C151.729 137.492 155.393 133.822 155.393 129.295V122.738Z" fill="#FEF8FC"/>
<path fill-rule="evenodd" clip-rule="evenodd" d="M141.479 129.295V122.738C141.479 119.569 144.044 117 147.208 117C150.372 117 152.937 119.569 152.937 122.738V129.295C152.937 132.464 150.372 135.033 147.208 135.033C144.044 135.033 141.479 132.464 141.479 129.295ZM147.208 114.541C151.729 114.541 155.393 118.211 155.393 122.738V129.295C155.393 133.822 151.729 137.492 147.208 137.492C142.688 137.492 139.024 133.822 139.024 129.295V122.738C139.024 118.211 142.688 114.541 147.208 114.541Z" fill="#006EE6"/>
<rect x="96.4643" y="167" width="16.3934" height="32.7381" rx="8.19672" transform="rotate(-90 96.4643 167)" fill="url(#paint1_linear_13819_14134)"/>
<path d="M146.865 127.891C146.865 146.929 131.455 162.363 112.445 162.363C93.4356 162.363 78.0251 146.929 78.0251 127.891C78.0251 108.853 93.4356 93.4199 112.445 93.4199C131.455 93.4199 146.865 108.853 146.865 127.891Z" fill="#CCE4FF"/>
<path fill-rule="evenodd" clip-rule="evenodd" d="M112.445 94.6259C94.1 94.6259 79.2284 109.52 79.2284 127.892C79.2284 146.264 94.1 161.158 112.445 161.158C130.79 161.158 145.662 146.264 145.662 127.892C145.662 109.52 130.79 94.6259 112.445 94.6259ZM76.8214 127.892C76.8214 108.188 92.7707 92.2153 112.445 92.2153C132.119 92.2153 148.069 108.188 148.069 127.892C148.069 147.596 132.119 163.569 112.445 163.569C92.7707 163.569 76.8214 147.596 76.8214 127.892Z" fill="url(#paint2_linear_13819_14134)"/>
<ellipse cx="111.243" cy="126.204" rx="31.7725" ry="31.8198" fill="#F2F8FF"/>
<path d="M85.7449 124.265C85.3423 115.395 92.4139 107.984 101.279 107.984H124.419C133.273 107.984 140.34 115.376 139.955 124.234L139.756 128.823C139.317 138.927 132.556 147.651 122.892 150.584L-nan -nanL122.892 150.584C115.844 152.723 108.23 152.418 101.362 149.755L-nan -nanL101.362 149.755C92.4619 146.305 86.3631 137.887 85.9298 128.339L85.7449 124.265Z" fill="#04265A"/>
<path d="M85.0213 123.144C84.6447 114.885 91.2603 107.984 99.5541 107.984H121.202C129.484 107.984 136.096 114.867 135.736 123.116L135.55 127.39C135.139 136.798 128.814 144.922 119.773 147.653L-nan -nanL119.773 147.653C113.179 149.645 106.056 149.361 99.6309 146.881L-nan -nanL99.6309 146.881C91.3051 143.668 85.5997 135.829 85.1943 126.938L85.0213 123.144Z" fill="#11315F"/>
<mask id="mask0_13819_14134" style="mask-type:alpha" maskUnits="userSpaceOnUse" x="98" y="130" width="29" height="17">
<path d="M98.4816 132.268C98.4816 140.102 104.833 146.453 112.667 146.453C120.501 146.453 126.852 140.102 126.852 132.268V130.061H98.4816V132.268Z" fill="#A42B4C"/>
</mask>
<g mask="url(#mask0_13819_14134)">
<path d="M98.4816 132.268C98.4816 140.102 104.833 146.453 112.667 146.453C120.501 146.453 126.852 140.102 126.852 132.268V130.061H98.4816V132.268Z" fill="#0F1C2F"/>
<path d="M112.667 135.525C100.3 135.525 94.1168 128.211 94.1168 128.211C94.1168 128.211 101.537 119.679 112.667 119.679C123.797 119.679 131.217 128.211 131.217 128.211C131.217 128.211 125.033 135.525 112.667 135.525Z" fill="#FAFBFC"/>
<path d="M126.102 146.453H99.505C100.323 143.857 104.825 138.257 113.008 138.257C121.192 138.257 124.875 143.857 126.102 146.453Z" fill="url(#paint3_linear_13819_14134)"/>
<ellipse cx="2.45552" cy="1.63895" rx="2.45552" ry="1.63895" transform="matrix(0.947433 0.319955 -0.319101 0.947721 107.098 139.896)" fill="#CCE4FF"/>
</g>
<rect x="94.8274" y="112.902" width="11.4583" height="13.1148" rx="5.72917" fill="url(#paint4_linear_13819_14134)"/>
<path d="M118.443 118C118.443 115.076 120.813 112.705 123.738 112.705C126.663 112.705 129.033 115.076 129.033 118V119.454H118.443V118Z" fill="url(#paint5_linear_13819_14134)"/>
<rect width="10.5912" height="1.44631" rx="0.723153" transform="matrix(0.988064 0.154042 -0.153595 0.988134 118.617 120.094)" fill="url(#paint6_linear_13819_14134)"/>
<ellipse cx="102.193" cy="119.459" rx="4.09226" ry="4.91803" fill="white"/>
<path d="M108.82 100.941C120.134 99.2913 119.462 89.8397 115.343 84.8997C111.581 80.3882 102.387 78.3734 98.1833 79.0425C94.7292 79.5922 93.1237 80.1517 90.204 79.0613C88.5766 78.4535 86.4801 76.1496 86.4221 76.7172C85.1607 89.0893 97.5046 102.592 108.82 100.941Z" fill="url(#paint7_linear_13819_14134)"/>
<path d="M127.341 88.0422C128.694 97.8131 120.725 99.5247 115.656 97.2977C111.026 95.2638 107.155 88.1299 106.698 84.4864C106.323 81.4926 106.4 80.0281 104.798 77.8707C103.906 76.6682 101.499 75.4842 101.954 75.3C111.872 71.285 125.989 78.2713 127.341 88.0422Z" fill="url(#paint8_linear_13819_14134)"/>
<mask id="mask1_13819_14134" style="mask-type:alpha" maskUnits="userSpaceOnUse" x="88" y="83" width="41" height="24">
<path d="M115.311 85.2036C104.225 90.9347 103.572 89.7088 97.588 89.9749L99.982 92.3783C98.4433 93.3379 93.9771 94.9043 88.4217 93.4927C95.3351 105.789 115.477 110.24 124.789 101.314C134.101 92.3884 126.397 79.4725 115.311 85.2036Z" fill="url(#paint9_linear_13819_14134)"/>
</mask>
<g mask="url(#mask1_13819_14134)">
<path d="M115.311 85.2036C104.225 90.9347 103.572 89.7088 97.588 89.9749L99.982 92.3783C98.4433 93.3379 93.9771 94.9043 88.4217 93.4927C95.3351 105.789 115.477 110.24 124.789 101.314C134.101 92.3884 126.397 79.4725 115.311 85.2036Z" fill="url(#paint10_linear_13819_14134)"/>
<path d="M113.34 80.0513C102.254 85.7823 101.601 84.5564 95.6173 84.8226L98.0112 87.226C96.4726 88.1856 92.0063 89.7519 86.4509 88.3403C93.3643 100.637 113.506 105.088 122.818 96.1619C132.13 87.2361 124.427 74.3202 113.34 80.0513Z" fill="url(#paint11_linear_13819_14134)"/>
<path d="M110.878 73.6103C99.7913 79.3414 99.1382 78.1155 93.1546 78.3817L95.5486 80.785C94.0099 81.7446 89.5437 83.311 83.9882 81.8994C90.9016 94.1957 111.044 98.6469 120.356 89.721C129.667 80.7952 121.964 67.8793 110.878 73.6103Z" fill="url(#paint12_linear_13819_14134)"/>
</g>
<g filter="url(#filter1_d_13819_14134)">
<circle cx="63.6458" cy="91.6458" r="3.64583" fill="white"/>
</g>
<g filter="url(#filter2_d_13819_14134)">
<path fill-rule="evenodd" clip-rule="evenodd" d="M16 4C9.37258 4 4 9.37258 4 16V49C4 55.6274 9.37258 61 16 61H32.0129C32.2729 66.0143 36.421 70 41.5 70C46.579 70 50.7271 66.0143 50.9871 61H148C154.627 61 160 55.6274 160 49V16C160 9.37258 154.627 4 148 4H16Z" fill="white"/>
</g>
<path d="M20.6818 28L22.6136 16.3636H24.0227L23.1591 21.5455H29.3636L30.2273 16.3636H31.6364L29.7045 28H28.2955L29.1591 22.7955H22.9545L22.0909 28H20.6818ZM32.3438 28L33.7983 19.2727H35.1392L33.6847 28H32.3438ZM34.8778 17.7955C34.6165 17.7955 34.3911 17.7064 34.2017 17.5284C34.0161 17.3504 33.9233 17.1364 33.9233 16.8864C33.9233 16.6364 34.0161 16.4223 34.2017 16.2443C34.3911 16.0663 34.6165 15.9773 34.8778 15.9773C35.1392 15.9773 35.3627 16.0663 35.5483 16.2443C35.7377 16.4223 35.8324 16.6364 35.8324 16.8864C35.8324 17.1364 35.7377 17.3504 35.5483 17.5284C35.3627 17.7064 35.1392 17.7955 34.8778 17.7955ZM39.8452 16.3636L38.3452 24.7273H37.027L38.2997 16.3636H39.8452ZM37.2997 28.0909C37.0118 28.0909 36.7713 27.9924 36.5781 27.7955C36.3849 27.5947 36.2846 27.3523 36.277 27.0682C36.2732 26.7841 36.3736 26.5473 36.5781 26.358C36.7827 26.1648 37.0232 26.0682 37.2997 26.0682C37.58 26.0682 37.8224 26.1667 38.027 26.3636C38.2315 26.5606 38.33 26.7955 38.3224 27.0682C38.3187 27.2576 38.2694 27.4299 38.1747 27.5852C38.0838 27.7405 37.9607 27.8636 37.8054 27.9545C37.6539 28.0455 37.4853 28.0909 37.2997 28.0909ZM27.8182 43.2273L26.5455 43.5682C26.5 43.3636 26.4205 43.1667 26.3068 42.9773C26.197 42.7841 26.0265 42.6269 25.7955 42.5057C25.5682 42.3807 25.2576 42.3182 24.8636 42.3182C24.3295 42.3182 23.8655 42.4413 23.4716 42.6875C23.0777 42.9299 22.8523 43.2386 22.7955 43.6136C22.7386 43.9432 22.8144 44.2064 23.0227 44.4034C23.2311 44.6004 23.5795 44.7614 24.0682 44.8864L25.3182 45.2045C26.0682 45.3977 26.6023 45.6875 26.9205 46.0739C27.2424 46.4564 27.3523 46.9545 27.25 47.5682C27.1667 48.0682 26.9489 48.5152 26.5966 48.9091C26.2443 49.303 25.7936 49.6136 25.2443 49.8409C24.6951 50.0682 24.0833 50.1818 23.4091 50.1818C22.5114 50.1818 21.803 49.9886 21.2841 49.6023C20.7652 49.2121 20.4886 48.6477 20.4545 47.9091L21.7955 47.5909C21.8295 48.0568 21.9962 48.4091 22.2955 48.6477C22.5985 48.8826 23.0227 49 23.5682 49C24.1932 49 24.714 48.8674 25.1307 48.6023C25.5473 48.3333 25.7841 48.0114 25.8409 47.6364C25.8977 47.3295 25.8371 47.0739 25.6591 46.8693C25.4848 46.6648 25.1818 46.5114 24.75 46.4091L23.3636 46.0682C22.5909 45.875 22.0492 45.5795 21.7386 45.1818C21.4318 44.7841 21.3295 44.2841 21.4318 43.6818C21.5152 43.1894 21.7273 42.7538 22.0682 42.375C22.4129 41.9962 22.8447 41.6989 23.3636 41.483C23.8864 41.267 24.4545 41.1591 25.0682 41.1591C25.9318 41.1591 26.5777 41.3485 27.0057 41.7273C27.4337 42.1023 27.7045 42.6023 27.8182 43.2273ZM31.4048 50.2045C30.8518 50.2045 30.367 50.1004 29.9503 49.892C29.5336 49.6799 29.2249 49.375 29.0241 48.9773C28.8234 48.5758 28.7685 48.0909 28.8594 47.5227C28.9465 47.0227 29.1151 46.6174 29.3651 46.3068C29.6151 45.9924 29.9181 45.7462 30.2741 45.5682C30.634 45.3864 31.0204 45.2519 31.4332 45.1648C31.8499 45.0739 32.2647 45.0038 32.6776 44.9545C33.2154 44.8864 33.6529 44.8333 33.9901 44.7955C34.3272 44.7576 34.581 44.6951 34.7514 44.608C34.9219 44.5208 35.026 44.3712 35.0639 44.1591V44.1136C35.1548 43.5568 35.081 43.1231 34.8423 42.8125C34.6037 42.4981 34.1776 42.3409 33.5639 42.3409C32.9276 42.3409 32.3954 42.4811 31.9673 42.7614C31.5393 43.0417 31.223 43.3409 31.0185 43.6591L29.8366 43.2045C30.1473 42.6742 30.5185 42.2614 30.9503 41.9659C31.3821 41.6667 31.8348 41.4583 32.3082 41.3409C32.7817 41.2197 33.2382 41.1591 33.6776 41.1591C33.9579 41.1591 34.2741 41.1932 34.6264 41.2614C34.9787 41.3258 35.3082 41.4602 35.6151 41.6648C35.9257 41.8693 36.1586 42.178 36.3139 42.5909C36.473 43.0038 36.4957 43.5568 36.3821 44.25L35.4276 50H34.0866L34.2912 48.8182H34.223C34.1018 49.0076 33.9162 49.2102 33.6662 49.4261C33.42 49.642 33.1075 49.8258 32.7287 49.9773C32.3537 50.1288 31.9124 50.2045 31.4048 50.2045ZM31.7912 49C32.3215 49 32.7855 48.8958 33.1832 48.6875C33.5848 48.4792 33.9067 48.2102 34.1491 47.8807C34.3954 47.5511 34.5488 47.2045 34.6094 46.8409L34.8139 45.6136C34.7457 45.6818 34.6113 45.7443 34.4105 45.8011C34.2098 45.8542 33.9825 45.9015 33.7287 45.9432C33.4787 45.9811 33.2344 46.0152 32.9957 46.0455C32.7609 46.072 32.5715 46.0947 32.4276 46.1136C32.0715 46.1591 31.7325 46.233 31.4105 46.3352C31.0923 46.4337 30.8234 46.5833 30.6037 46.7841C30.3878 46.9811 30.2533 47.25 30.2003 47.5909C30.1207 48.0568 30.2325 48.4091 30.5355 48.6477C30.8385 48.8826 31.2571 49 31.7912 49ZM35.223 38.3864H36.473C36.3935 38.875 36.1188 39.2784 35.6491 39.5966C35.1832 39.911 34.5866 40.0682 33.8594 40.0682C33.1435 40.0682 32.5999 39.911 32.2287 39.5966C31.8575 39.2784 31.7116 38.875 31.7912 38.3864H33.0412C33.0071 38.625 33.0582 38.8371 33.1946 39.0227C33.331 39.2045 33.598 39.2955 33.9957 39.2955C34.3935 39.2955 34.6889 39.2045 34.8821 39.0227C35.0753 38.8371 35.1889 38.625 35.223 38.3864ZM36.1094 36.0909L36.7457 36.2955C36.6889 36.6818 36.5128 37.0133 36.2173 37.2898C35.9257 37.5663 35.5866 37.7045 35.2003 37.7045C34.92 37.7045 34.7022 37.6572 34.5469 37.5625C34.3916 37.4678 34.2457 37.3731 34.1094 37.2784C33.973 37.1837 33.7912 37.1364 33.5639 37.1364C33.3935 37.1364 33.2382 37.2027 33.098 37.3352C32.9579 37.464 32.8707 37.625 32.8366 37.8182L32.1548 37.6591C32.223 37.2841 32.4048 36.9489 32.7003 36.6534C32.9957 36.3542 33.3366 36.2045 33.723 36.2045C33.8935 36.2045 34.0431 36.233 34.1719 36.2898C34.3045 36.3466 34.4295 36.4129 34.5469 36.4886C34.6681 36.5644 34.7931 36.6307 34.9219 36.6875C35.0507 36.7443 35.1965 36.7727 35.3594 36.7727C35.5298 36.7727 35.6889 36.7083 35.8366 36.5795C35.9844 36.447 36.0753 36.2841 36.1094 36.0909ZM40.0795 44.75L39.2159 50H37.875L39.3295 41.2727H40.625L40.3977 42.6364H40.5114C40.7841 42.1932 41.1534 41.8371 41.6193 41.5682C42.0852 41.2955 42.6477 41.1591 43.3068 41.1591C43.8902 41.1591 44.3826 41.2803 44.7841 41.5227C45.1894 41.7614 45.4754 42.125 45.642 42.6136C45.8125 43.0985 45.8371 43.7121 45.7159 44.4545L44.7841 50H43.4432L44.3523 44.5455C44.4659 43.8636 44.3769 43.3295 44.0852 42.9432C43.7973 42.5568 43.3409 42.3636 42.7159 42.3636C42.2841 42.3636 41.8845 42.4564 41.517 42.642C41.1534 42.8277 40.8447 43.0985 40.5909 43.4545C40.3409 43.8106 40.1705 44.2424 40.0795 44.75ZM59.0526 43.2273L57.7798 43.5682C57.7344 43.3636 57.6548 43.1667 57.5412 42.9773C57.4313 42.7841 57.2609 42.6269 57.0298 42.5057C56.8026 42.3807 56.492 42.3182 56.098 42.3182C55.5639 42.3182 55.0999 42.4413 54.706 42.6875C54.312 42.9299 54.0866 43.2386 54.0298 43.6136C53.973 43.9432 54.0488 44.2064 54.2571 44.4034C54.4654 44.6004 54.8139 44.7614 55.3026 44.8864L56.5526 45.2045C57.3026 45.3977 57.8366 45.6875 58.1548 46.0739C58.4768 46.4564 58.5866 46.9545 58.4844 47.5682C58.401 48.0682 58.1832 48.5152 57.831 48.9091C57.4787 49.303 57.0279 49.6136 56.4787 49.8409C55.9295 50.0682 55.3177 50.1818 54.6435 50.1818C53.7457 50.1818 53.0374 49.9886 52.5185 49.6023C51.9995 49.2121 51.723 48.6477 51.6889 47.9091L53.0298 47.5909C53.0639 48.0568 53.2306 48.4091 53.5298 48.6477C53.8329 48.8826 54.2571 49 54.8026 49C55.4276 49 55.9484 48.8674 56.3651 48.6023C56.7817 48.3333 57.0185 48.0114 57.0753 47.6364C57.1321 47.3295 57.0715 47.0739 56.8935 46.8693C56.7192 46.6648 56.4162 46.5114 55.9844 46.4091L54.598 46.0682C53.8253 45.875 53.2836 45.5795 52.973 45.1818C52.6662 44.7841 52.5639 44.2841 52.6662 43.6818C52.7495 43.1894 52.9616 42.7538 53.3026 42.375C53.6473 41.9962 54.0791 41.6989 54.598 41.483C55.1207 41.267 55.6889 41.1591 56.3026 41.1591C57.1662 41.1591 57.812 41.3485 58.2401 41.7273C58.6681 42.1023 58.9389 42.6023 59.0526 43.2273ZM62.6392 50.2045C62.0862 50.2045 61.6013 50.1004 61.1847 49.892C60.768 49.6799 60.4593 49.375 60.2585 48.9773C60.0578 48.5758 60.0028 48.0909 60.0938 47.5227C60.1809 47.0227 60.3494 46.6174 60.5994 46.3068C60.8494 45.9924 61.1525 45.7462 61.5085 45.5682C61.8684 45.3864 62.2547 45.2519 62.6676 45.1648C63.0843 45.0739 63.4991 45.0038 63.9119 44.9545C64.4498 44.8864 64.8873 44.8333 65.2244 44.7955C65.5616 44.7576 65.8153 44.6951 65.9858 44.608C66.1563 44.5208 66.2604 44.3712 66.2983 44.1591V44.1136C66.3892 43.5568 66.3153 43.1231 66.0767 42.8125C65.8381 42.4981 65.4119 42.3409 64.7983 42.3409C64.1619 42.3409 63.6297 42.4811 63.2017 42.7614C62.7737 43.0417 62.4574 43.3409 62.2528 43.6591L61.071 43.2045C61.3816 42.6742 61.7528 42.2614 62.1847 41.9659C62.6165 41.6667 63.0691 41.4583 63.5426 41.3409C64.0161 41.2197 64.4725 41.1591 64.9119 41.1591C65.1922 41.1591 65.5085 41.1932 65.8608 41.2614C66.2131 41.3258 66.5426 41.4602 66.8494 41.6648C67.16 41.8693 67.393 42.178 67.5483 42.5909C67.7074 43.0038 67.7301 43.5568 67.6165 44.25L66.6619 50H65.321L65.5256 48.8182H65.4574C65.3362 49.0076 65.1506 49.2102 64.9006 49.4261C64.6544 49.642 64.3419 49.8258 63.9631 49.9773C63.5881 50.1288 63.1468 50.2045 62.6392 50.2045ZM63.0256 49C63.5559 49 64.0199 48.8958 64.4176 48.6875C64.8191 48.4792 65.1411 48.2102 65.3835 47.8807C65.6297 47.5511 65.7831 47.2045 65.8438 46.8409L66.0483 45.6136C65.9801 45.6818 65.8456 45.7443 65.6449 45.8011C65.4441 45.8542 65.2169 45.9015 64.9631 45.9432C64.7131 45.9811 64.4688 46.0152 64.2301 46.0455C63.9953 46.072 63.8059 46.0947 63.6619 46.1136C63.3059 46.1591 62.9669 46.233 62.6449 46.3352C62.3267 46.4337 62.0578 46.5833 61.8381 46.7841C61.6222 46.9811 61.4877 47.25 61.4347 47.5909C61.3551 48.0568 61.4669 48.4091 61.7699 48.6477C62.0729 48.8826 62.4915 49 63.0256 49ZM64.5938 40.0909L63.2756 37.4545H64.8438L65.7756 40.0909H64.5938ZM71.3139 44.75L70.4503 50H69.1094L70.5639 41.2727H71.8594L71.6321 42.6364H71.7457C72.0185 42.1932 72.3878 41.8371 72.8537 41.5682C73.3196 41.2955 73.8821 41.1591 74.5412 41.1591C75.1245 41.1591 75.617 41.2803 76.0185 41.5227C76.4238 41.7614 76.7098 42.125 76.8764 42.6136C77.0469 43.0985 77.0715 43.7121 76.9503 44.4545L76.0185 50H74.6776L75.5866 44.5455C75.7003 43.8636 75.6113 43.3295 75.3196 42.9432C75.0317 42.5568 74.5753 42.3636 73.9503 42.3636C73.5185 42.3636 73.1188 42.4564 72.7514 42.642C72.3878 42.8277 72.0791 43.0985 71.8253 43.4545C71.5753 43.8106 71.4048 44.2424 71.3139 44.75ZM81.446 53.4545C80.7945 53.4545 80.2491 53.3712 79.8097 53.2045C79.3703 53.0417 79.018 52.8258 78.7528 52.5568C78.4877 52.2917 78.2869 52.0076 78.1506 51.7045L79.3551 50.9545C79.446 51.1136 79.5634 51.2955 79.7074 51.5C79.8513 51.7083 80.0691 51.8883 80.3608 52.0398C80.6562 52.1951 81.071 52.2727 81.6051 52.2727C82.3059 52.2727 82.9195 52.1023 83.446 51.7614C83.9725 51.4205 84.2983 50.8864 84.4233 50.1591L84.696 48.3864H84.5824C84.4612 48.5455 84.2926 48.7424 84.0767 48.9773C83.8608 49.2083 83.571 49.4148 83.2074 49.5966C82.8438 49.7746 82.3778 49.8636 81.8097 49.8636C81.1013 49.8636 80.4953 49.697 79.9915 49.3636C79.4877 49.0303 79.1259 48.5455 78.9062 47.9091C78.6903 47.2727 78.6581 46.5 78.8097 45.5909C78.9574 44.697 79.2415 43.9186 79.6619 43.2557C80.0862 42.589 80.6089 42.0739 81.2301 41.7102C81.8513 41.3428 82.5294 41.1591 83.2642 41.1591C83.8324 41.1591 84.268 41.2538 84.571 41.4432C84.8778 41.6288 85.1013 41.8409 85.2415 42.0795C85.3816 42.3144 85.4877 42.5076 85.5597 42.6591H85.696L85.9233 41.2727H87.2188L85.7415 50.25C85.6165 51 85.3456 51.6098 84.929 52.0795C84.5123 52.553 84.0009 52.8996 83.3949 53.1193C82.7888 53.3428 82.1392 53.4545 81.446 53.4545ZM82.1506 48.6591C82.6847 48.6591 83.16 48.536 83.5767 48.2898C83.9972 48.0436 84.3456 47.6894 84.6222 47.2273C84.8987 46.7652 85.09 46.2121 85.196 45.5682C85.3021 44.9394 85.2945 44.3845 85.1733 43.9034C85.0521 43.4223 84.8229 43.0455 84.4858 42.7727C84.1525 42.5 83.715 42.3636 83.1733 42.3636C82.6013 42.3636 82.107 42.5076 81.6903 42.7955C81.2775 43.0833 80.9422 43.4697 80.6847 43.9545C80.4271 44.4394 80.2491 44.9773 80.1506 45.5682C80.0521 46.1742 80.0559 46.7102 80.1619 47.1761C80.268 47.6383 80.4839 48.0019 80.8097 48.267C81.1392 48.5284 81.5862 48.6591 82.1506 48.6591ZM89.3551 50.0909C89.0672 50.0909 88.8267 49.9924 88.6335 49.7955C88.4403 49.5947 88.34 49.3523 88.3324 49.0682C88.3286 48.7841 88.429 48.5473 88.6335 48.358C88.8381 48.1648 89.0786 48.0682 89.3551 48.0682C89.6354 48.0682 89.8778 48.1667 90.0824 48.3636C90.2869 48.5606 90.3854 48.7955 90.3778 49.0682C90.3741 49.2576 90.3248 49.4299 90.2301 49.5852C90.1392 49.7405 90.0161 49.8636 89.8608 49.9545C89.7093 50.0455 89.5407 50.0909 89.3551 50.0909ZM93.7614 50.0909C93.4735 50.0909 93.233 49.9924 93.0398 49.7955C92.8466 49.5947 92.7462 49.3523 92.7386 49.0682C92.7348 48.7841 92.8352 48.5473 93.0398 48.358C93.2443 48.1648 93.4848 48.0682 93.7614 48.0682C94.0417 48.0682 94.2841 48.1667 94.4886 48.3636C94.6932 48.5606 94.7917 48.7955 94.7841 49.0682C94.7803 49.2576 94.7311 49.4299 94.6364 49.5852C94.5455 49.7405 94.4223 49.8636 94.267 49.9545C94.1155 50.0455 93.947 50.0909 93.7614 50.0909ZM98.1676 50.0909C97.8797 50.0909 97.6392 49.9924 97.446 49.7955C97.2528 49.5947 97.1525 49.3523 97.1449 49.0682C97.1411 48.7841 97.2415 48.5473 97.446 48.358C97.6506 48.1648 97.8911 48.0682 98.1676 48.0682C98.4479 48.0682 98.6903 48.1667 98.8949 48.3636C99.0994 48.5606 99.1979 48.7955 99.1903 49.0682C99.1866 49.2576 99.1373 49.4299 99.0426 49.5852C98.9517 49.7405 98.8286 49.8636 98.6733 49.9545C98.5218 50.0455 98.3532 50.0909 98.1676 50.0909Z" fill="#1E1E1E"/>
<path d="M56.2415 20.2898H54.1506C54.1506 19.9413 54.0938 19.6326 53.9801 19.3636C53.8665 19.0909 53.7074 18.8598 53.5028 18.6705C53.2983 18.4811 53.0559 18.339 52.7756 18.2443C52.4953 18.1458 52.1847 18.0966 51.8438 18.0966C51.1922 18.0966 50.5862 18.2614 50.0256 18.5909C49.465 18.9205 48.9896 19.3996 48.5994 20.0284C48.2093 20.6534 47.9384 21.4129 47.7869 22.3068C47.6468 23.178 47.66 23.9072 47.8267 24.4943C47.9972 25.0814 48.2926 25.5246 48.7131 25.8239C49.1335 26.1193 49.6449 26.267 50.2472 26.267C50.6146 26.267 50.9669 26.2216 51.304 26.1307C51.6411 26.036 51.9517 25.8977 52.2358 25.7159C52.5237 25.5303 52.7756 25.3049 52.9915 25.0398C53.2112 24.7746 53.3816 24.4735 53.5028 24.1364H55.6222C55.4479 24.6894 55.1922 25.2102 54.8551 25.6989C54.518 26.1837 54.1127 26.6117 53.6392 26.983C53.1657 27.3504 52.6354 27.6383 52.0483 27.8466C51.4612 28.0549 50.8286 28.1591 50.1506 28.1591C49.1089 28.1591 48.2169 27.9167 47.4744 27.4318C46.7358 26.9432 46.2055 26.2443 45.8835 25.3352C45.5616 24.4223 45.5047 23.3295 45.7131 22.0568C45.9214 20.8182 46.3229 19.7633 46.9176 18.892C47.5161 18.0208 48.2453 17.3561 49.1051 16.8977C49.9688 16.4356 50.8987 16.2045 51.8949 16.2045C52.554 16.2045 53.1525 16.2955 53.6903 16.4773C54.232 16.6591 54.696 16.9261 55.0824 17.2784C55.4688 17.6269 55.7623 18.0549 55.9631 18.5625C56.1676 19.0663 56.2604 19.642 56.2415 20.2898ZM58.0298 18.1307L58.3253 16.3636H67.6094L67.3139 18.1307H63.7173L62.081 28H59.9901L61.6264 18.1307H58.0298ZM72.9304 28H70.6804L76.7088 16.3636H79.3111L81.4815 28H79.2315L77.669 18.75H77.5781L72.9304 28ZM73.7599 23.4375H79.8963L79.6122 25.1307H73.4759L73.7599 23.4375ZM90.7429 21.5795L88.8509 21.7841C88.8319 21.5909 88.7732 21.411 88.6747 21.2443C88.5762 21.0777 88.4285 20.9451 88.2315 20.8466C88.0384 20.7443 87.7884 20.6932 87.4815 20.6932C87.0346 20.6932 86.6425 20.7936 86.3054 20.9943C85.9683 21.1951 85.777 21.4527 85.7315 21.767C85.6899 22.0019 85.7467 22.1932 85.902 22.3409C86.0573 22.4886 86.3452 22.6136 86.7656 22.7159L88.2088 23.0341C89.0043 23.2121 89.5762 23.5 89.9247 23.8977C90.277 24.2955 90.4001 24.8163 90.294 25.4602C90.2031 25.9981 89.9683 26.4716 89.5895 26.8807C89.2107 27.286 88.7259 27.6023 88.1349 27.8295C87.5478 28.0568 86.8963 28.1705 86.1804 28.1705C85.0933 28.1705 84.2562 27.9451 83.669 27.4943C83.0857 27.0398 82.7959 26.4148 82.7997 25.6193L84.8224 25.4261C84.8452 25.8201 84.9834 26.1174 85.2372 26.3182C85.491 26.5152 85.8433 26.6155 86.294 26.6193C86.8016 26.6231 87.2296 26.517 87.5781 26.3011C87.9304 26.0814 88.1293 25.8144 88.1747 25.5C88.2126 25.2652 88.1539 25.0739 87.9986 24.9261C87.8471 24.7784 87.5762 24.661 87.1861 24.5739L85.7543 24.2614C84.9437 24.0833 84.366 23.7822 84.0213 23.358C83.6804 22.9299 83.5649 22.3902 83.6747 21.7386C83.7656 21.2083 83.9872 20.7519 84.3395 20.3693C84.6955 19.983 85.152 19.6856 85.7088 19.4773C86.2656 19.2652 86.8887 19.1591 87.5781 19.1591C88.616 19.1591 89.3982 19.3769 89.9247 19.8125C90.4512 20.2481 90.724 20.8371 90.7429 21.5795ZM99.5241 21.5795L97.6321 21.7841C97.6132 21.5909 97.5545 21.411 97.456 21.2443C97.3575 21.0777 97.2098 20.9451 97.0128 20.8466C96.8196 20.7443 96.5696 20.6932 96.2628 20.6932C95.8158 20.6932 95.4238 20.7936 95.0866 20.9943C94.7495 21.1951 94.5582 21.4527 94.5128 21.767C94.4711 22.0019 94.5279 22.1932 94.6832 22.3409C94.8385 22.4886 95.1264 22.6136 95.5469 22.7159L96.9901 23.0341C97.7855 23.2121 98.3575 23.5 98.706 23.8977C99.0582 24.2955 99.1813 24.8163 99.0753 25.4602C98.9844 25.9981 98.7495 26.4716 98.3707 26.8807C97.992 27.286 97.5071 27.6023 96.9162 27.8295C96.3291 28.0568 95.6776 28.1705 94.9616 28.1705C93.8745 28.1705 93.0374 27.9451 92.4503 27.4943C91.867 27.0398 91.5772 26.4148 91.581 25.6193L93.6037 25.4261C93.6264 25.8201 93.7647 26.1174 94.0185 26.3182C94.2723 26.5152 94.6245 26.6155 95.0753 26.6193C95.5829 26.6231 96.0109 26.517 96.3594 26.3011C96.7116 26.0814 96.9105 25.8144 96.956 25.5C96.9938 25.2652 96.9351 25.0739 96.7798 24.9261C96.6283 24.7784 96.3575 24.661 95.9673 24.5739L94.5355 24.2614C93.7249 24.0833 93.1473 23.7822 92.8026 23.358C92.4616 22.9299 92.3461 22.3902 92.456 21.7386C92.5469 21.2083 92.7685 20.7519 93.1207 20.3693C93.4768 19.983 93.9332 19.6856 94.4901 19.4773C95.0469 19.2652 95.67 19.1591 96.3594 19.1591C97.3973 19.1591 98.1795 19.3769 98.706 19.8125C99.2325 20.2481 99.5052 20.8371 99.5241 21.5795ZM100.345 28L101.8 19.2727H103.857L102.402 28H100.345ZM103.129 18.0227C102.8 18.0227 102.527 17.9129 102.311 17.6932C102.095 17.4735 102 17.2102 102.027 16.9034C102.054 16.5966 102.192 16.3333 102.442 16.1136C102.696 15.8939 102.985 15.7841 103.311 15.7841C103.641 15.7841 103.911 15.8939 104.124 16.1136C104.339 16.3333 104.434 16.5966 104.408 16.9034C104.385 17.2102 104.247 17.4735 103.993 17.6932C103.743 17.9129 103.455 18.0227 103.129 18.0227ZM112.477 21.5795L110.585 21.7841C110.566 21.5909 110.508 21.411 110.409 21.2443C110.311 21.0777 110.163 20.9451 109.966 20.8466C109.773 20.7443 109.523 20.6932 109.216 20.6932C108.769 20.6932 108.377 20.7936 108.04 20.9943C107.703 21.1951 107.511 21.4527 107.466 21.767C107.424 22.0019 107.481 22.1932 107.636 22.3409C107.792 22.4886 108.08 22.6136 108.5 22.7159L109.943 23.0341C110.739 23.2121 111.311 23.5 111.659 23.8977C112.011 24.2955 112.134 24.8163 112.028 25.4602C111.938 25.9981 111.703 26.4716 111.324 26.8807C110.945 27.286 110.46 27.6023 109.869 27.8295C109.282 28.0568 108.631 28.1705 107.915 28.1705C106.828 28.1705 105.991 27.9451 105.403 27.4943C104.82 27.0398 104.53 26.4148 104.534 25.6193L106.557 25.4261C106.58 25.8201 106.718 26.1174 106.972 26.3182C107.225 26.5152 107.578 26.6155 108.028 26.6193C108.536 26.6231 108.964 26.517 109.312 26.3011C109.665 26.0814 109.864 25.8144 109.909 25.5C109.947 25.2652 109.888 25.0739 109.733 24.9261C109.581 24.7784 109.311 24.661 108.92 24.5739L107.489 24.2614C106.678 24.0833 106.1 23.7822 105.756 23.358C105.415 22.9299 105.299 22.3902 105.409 21.7386C105.5 21.2083 105.722 20.7519 106.074 20.3693C106.43 19.983 106.886 19.6856 107.443 19.4773C108 19.2652 108.623 19.1591 109.312 19.1591C110.35 19.1591 111.133 19.3769 111.659 19.8125C112.186 20.2481 112.458 20.8371 112.477 21.5795ZM119.111 19.2727L118.844 20.8636H113.832L114.094 19.2727H119.111ZM115.673 17.1818H117.73L116.366 25.375C116.325 25.6515 116.332 25.8636 116.389 26.0114C116.45 26.1553 116.546 26.2538 116.679 26.3068C116.815 26.3598 116.969 26.3864 117.139 26.3864C117.264 26.3864 117.382 26.3769 117.491 26.358C117.601 26.3352 117.688 26.3182 117.753 26.3068L117.844 27.9148C117.719 27.9527 117.55 27.9943 117.338 28.0398C117.13 28.0852 116.88 28.1117 116.588 28.1193C116.065 28.1307 115.611 28.0511 115.224 27.8807C114.842 27.7064 114.562 27.4394 114.384 27.0795C114.209 26.7159 114.17 26.2614 114.264 25.7159L115.673 17.1818ZM121.865 28.1761C121.312 28.1761 120.831 28.0777 120.422 27.8807C120.013 27.6799 119.712 27.3845 119.518 26.9943C119.329 26.6042 119.282 26.1231 119.376 25.5511C119.46 25.0587 119.619 24.6515 119.854 24.3295C120.092 24.0076 120.384 23.75 120.729 23.5568C121.077 23.3598 121.456 23.2121 121.865 23.1136C122.278 23.0152 122.698 22.9432 123.126 22.8977C123.649 22.8447 124.071 22.7955 124.393 22.75C124.719 22.7045 124.964 22.6364 125.126 22.5455C125.289 22.4508 125.388 22.3068 125.422 22.1136V22.0795C125.49 21.6515 125.422 21.3201 125.217 21.0852C125.013 20.8504 124.672 20.733 124.195 20.733C123.695 20.733 123.274 20.8428 122.933 21.0625C122.592 21.2822 122.344 21.5417 122.189 21.8409L120.325 21.5682C120.56 21.0379 120.882 20.5947 121.291 20.2386C121.7 19.8788 122.172 19.6098 122.706 19.4318C123.244 19.25 123.818 19.1591 124.428 19.1591C124.844 19.1591 125.251 19.2083 125.649 19.3068C126.051 19.4053 126.405 19.5682 126.712 19.7955C127.022 20.0189 127.25 20.3239 127.393 20.7102C127.541 21.0966 127.566 21.5795 127.467 22.1591L126.496 28H124.518L124.723 26.8011H124.655C124.492 27.0436 124.28 27.2708 124.018 27.483C123.757 27.6913 123.446 27.8598 123.087 27.9886C122.727 28.1136 122.32 28.1761 121.865 28.1761ZM122.643 26.6648C123.056 26.6648 123.428 26.5833 123.757 26.4205C124.087 26.2538 124.357 26.0341 124.57 25.7614C124.782 25.4886 124.914 25.1913 124.967 24.8693L125.138 23.8409C125.062 23.8939 124.945 23.9432 124.786 23.9886C124.626 24.0341 124.448 24.0739 124.251 24.108C124.058 24.142 123.867 24.1723 123.678 24.1989C123.488 24.2254 123.325 24.2481 123.189 24.267C122.875 24.3087 122.587 24.3769 122.325 24.4716C122.068 24.5663 121.854 24.6989 121.683 24.8693C121.517 25.036 121.412 25.2519 121.371 25.517C121.31 25.892 121.399 26.178 121.638 26.375C121.876 26.5682 122.212 26.6648 122.643 26.6648ZM131.473 22.8864L130.632 28H128.57L130.024 19.2727H131.996L131.746 20.7557H131.854C132.126 20.267 132.509 19.8788 133.001 19.5909C133.494 19.303 134.068 19.1591 134.723 19.1591C135.318 19.1591 135.818 19.2879 136.223 19.5455C136.628 19.7992 136.916 20.1723 137.087 20.6648C137.257 21.1534 137.284 21.7462 137.166 22.4432L136.234 28H134.178L135.047 22.7614C135.145 22.1818 135.071 21.7273 134.825 21.3977C134.583 21.0644 134.193 20.8977 133.655 20.8977C133.295 20.8977 132.964 20.9773 132.661 21.1364C132.357 21.2917 132.102 21.517 131.893 21.8125C131.689 22.108 131.549 22.4659 131.473 22.8864ZM144.126 19.2727L143.859 20.8636H138.848L139.109 19.2727H144.126ZM140.689 17.1818H142.746L141.382 25.375C141.34 25.6515 141.348 25.8636 141.405 26.0114C141.465 26.1553 141.562 26.2538 141.695 26.3068C141.831 26.3598 141.984 26.3864 142.155 26.3864C142.28 26.3864 142.397 26.3769 142.507 26.358C142.617 26.3352 142.704 26.3182 142.768 26.3068L142.859 27.9148C142.734 27.9527 142.566 27.9943 142.354 28.0398C142.145 28.0852 141.895 28.1117 141.604 28.1193C141.081 28.1307 140.626 28.0511 140.24 27.8807C139.857 27.7064 139.577 27.4394 139.399 27.0795C139.225 26.7159 139.185 26.2614 139.28 25.7159L140.689 17.1818Z" fill="#007AFF"/>
<g filter="url(#filter3_d_13819_14134)">
<circle cx="52" cy="79" r="6" fill="white"/>
</g>
<defs>
<filter id="filter0_iif_13819_14134" x="61.8214" y="80.4939" width="101.247" height="101.354" filterUnits="userSpaceOnUse" color-interpolation-filters="sRGB">
<feFlood flood-opacity="0" result="BackgroundImageFix"/>
<feBlend mode="normal" in="SourceGraphic" in2="BackgroundImageFix" result="shape"/>
<feColorMatrix in="SourceAlpha" type="matrix" values="0 0 0 0 0 0 0 0 0 0 0 0 0 0 0 0 0 0 127 0" result="hardAlpha"/>
<feOffset dy="4"/>
<feGaussianBlur stdDeviation="2"/>
<feComposite in2="hardAlpha" operator="arithmetic" k2="-1" k3="1"/>
<feColorMatrix type="matrix" values="0 0 0 0 0.508333 0 0 0 0 0.812428 0 0 0 0 1 0 0 0 1 0"/>
<feBlend mode="normal" in2="shape" result="effect1_innerShadow_13819_14134"/>
<feColorMatrix in="SourceAlpha" type="matrix" values="0 0 0 0 0 0 0 0 0 0 0 0 0 0 0 0 0 0 127 0" result="hardAlpha"/>
<feOffset dy="1"/>
<feGaussianBlur stdDeviation="2"/>
<feComposite in2="hardAlpha" operator="arithmetic" k2="-1" k3="1"/>
<feColorMatrix type="matrix" values="0 0 0 0 0.4125 0 0 0 0 0.585294 0 0 0 0 1 0 0 0 1 0"/>
<feBlend mode="normal" in2="effect1_innerShadow_13819_14134" result="effect2_innerShadow_13819_14134"/>
<feGaussianBlur stdDeviation="7.5" result="effect3_foregroundBlur_13819_14134"/>
</filter>
<filter id="filter1_d_13819_14134" x="56" y="84" width="15.2917" height="15.2917" filterUnits="userSpaceOnUse" color-interpolation-filters="sRGB">
<feFlood flood-opacity="0" result="BackgroundImageFix"/>
<feColorMatrix in="SourceAlpha" type="matrix" values="0 0 0 0 0 0 0 0 0 0 0 0 0 0 0 0 0 0 127 0" result="hardAlpha"/>
<feOffset/>
<feGaussianBlur stdDeviation="2"/>
<feComposite in2="hardAlpha" operator="out"/>
<feColorMatrix type="matrix" values="0 0 0 0 0 0 0 0 0 0 0 0 0 0 0 0 0 0 0.25 0"/>
<feBlend mode="normal" in2="BackgroundImageFix" result="effect1_dropShadow_13819_14134"/>
<feBlend mode="normal" in="SourceGraphic" in2="effect1_dropShadow_13819_14134" result="shape"/>
</filter>
<filter id="filter2_d_13819_14134" x="0" y="0" width="164" height="74" filterUnits="userSpaceOnUse" color-interpolation-filters="sRGB">
<feFlood flood-opacity="0" result="BackgroundImageFix"/>
<feColorMatrix in="SourceAlpha" type="matrix" values="0 0 0 0 0 0 0 0 0 0 0 0 0 0 0 0 0 0 127 0" result="hardAlpha"/>
<feOffset/>
<feGaussianBlur stdDeviation="2"/>
<feComposite in2="hardAlpha" operator="out"/>
<feColorMatrix type="matrix" values="0 0 0 0 0 0 0 0 0 0 0 0 0 0 0 0 0 0 0.25 0"/>
<feBlend mode="normal" in2="BackgroundImageFix" result="effect1_dropShadow_13819_14134"/>
<feBlend mode="normal" in="SourceGraphic" in2="effect1_dropShadow_13819_14134" result="shape"/>
</filter>
<filter id="filter3_d_13819_14134" x="42" y="69" width="20" height="20" filterUnits="userSpaceOnUse" color-interpolation-filters="sRGB">
<feFlood flood-opacity="0" result="BackgroundImageFix"/>
<feColorMatrix in="SourceAlpha" type="matrix" values="0 0 0 0 0 0 0 0 0 0 0 0 0 0 0 0 0 0 127 0" result="hardAlpha"/>
<feOffset/>
<feGaussianBlur stdDeviation="2"/>
<feComposite in2="hardAlpha" operator="out"/>
<feColorMatrix type="matrix" values="0 0 0 0 0 0 0 0 0 0 0 0 0 0 0 0 0 0 0.25 0"/>
<feBlend mode="normal" in2="BackgroundImageFix" result="effect1_dropShadow_13819_14134"/>
<feBlend mode="normal" in="SourceGraphic" in2="effect1_dropShadow_13819_14134" result="shape"/>
</filter>
<linearGradient id="paint0_linear_13819_14134" x1="112.445" y1="95.4939" x2="112.445" y2="166.847" gradientUnits="userSpaceOnUse">
<stop stop-color="#007AFF"/>
<stop offset="1" stop-color="#67B0FF"/>
</linearGradient>
<linearGradient id="paint1_linear_13819_14134" x1="104.661" y1="167" x2="104.661" y2="199.738" gradientUnits="userSpaceOnUse">
<stop stop-color="#B4D8FF"/>
<stop offset="0.615" stop-color="#4FA3FF"/>
<stop offset="0.995" stop-color="#248DFF"/>
</linearGradient>
<linearGradient id="paint2_linear_13819_14134" x1="112.445" y1="92.2153" x2="112.445" y2="163.569" gradientUnits="userSpaceOnUse">
<stop stop-color="#1F6BFF"/>
<stop offset="1" stop-color="#0031DE"/>
</linearGradient>
<linearGradient id="paint3_linear_13819_14134" x1="112.804" y1="138.257" x2="112.804" y2="146.453" gradientUnits="userSpaceOnUse">
<stop stop-color="#B4D8FF"/>
<stop offset="0.615" stop-color="#4FA3FF"/>
<stop offset="0.995" stop-color="#248DFF"/>
</linearGradient>
<linearGradient id="paint4_linear_13819_14134" x1="100.557" y1="112.902" x2="100.557" y2="126.016" gradientUnits="userSpaceOnUse">
<stop stop-color="#4B88FF"/>
<stop offset="1" stop-color="#1448FF"/>
</linearGradient>
<linearGradient id="paint5_linear_13819_14134" x1="123.738" y1="112.705" x2="123.738" y2="119.454" gradientUnits="userSpaceOnUse">
<stop stop-color="#4B88FF"/>
<stop offset="1" stop-color="#1448FF"/>
</linearGradient>
<linearGradient id="paint6_linear_13819_14134" x1="5.2956" y1="0" x2="5.2956" y2="1.44631" gradientUnits="userSpaceOnUse">
<stop stop-color="#4B88FF"/>
<stop offset="1" stop-color="#1448FF"/>
</linearGradient>
<linearGradient id="paint7_linear_13819_14134" x1="110.826" y1="93.5102" x2="85.685" y2="78.8307" gradientUnits="userSpaceOnUse">
<stop stop-color="#0073F0"/>
<stop offset="1" stop-color="#87C0FF"/>
</linearGradient>
<linearGradient id="paint8_linear_13819_14134" x1="108.153" y1="89.0543" x2="123.632" y2="79.9461" gradientUnits="userSpaceOnUse">
<stop stop-color="#B4D8FF"/>
<stop offset="0.615" stop-color="#4FA3FF"/>
<stop offset="0.995" stop-color="#248DFF"/>
</linearGradient>
<linearGradient id="paint9_linear_13819_14134" x1="114.212" y1="104.08" x2="107.587" y2="86.816" gradientUnits="userSpaceOnUse">
<stop stop-color="#FF9EB6"/>
<stop offset="1" stop-color="#E66A8C"/>
</linearGradient>
<linearGradient id="paint10_linear_13819_14134" x1="106.561" y1="86.5314" x2="114.275" y2="106.633" gradientUnits="userSpaceOnUse">
<stop stop-color="#B4D8FF"/>
<stop offset="0.615" stop-color="#4FA3FF"/>
<stop offset="0.995" stop-color="#248DFF"/>
</linearGradient>
<linearGradient id="paint11_linear_13819_14134" x1="104.59" y1="81.3791" x2="112.304" y2="101.481" gradientUnits="userSpaceOnUse">
<stop stop-color="#B4D8FF"/>
<stop offset="0.615" stop-color="#4FA3FF"/>
<stop offset="0.995" stop-color="#248DFF"/>
</linearGradient>
<linearGradient id="paint12_linear_13819_14134" x1="102.128" y1="74.9382" x2="109.842" y2="95.0396" gradientUnits="userSpaceOnUse">
<stop stop-color="#B4D8FF"/>
<stop offset="0.615" stop-color="#4FA3FF"/>
<stop offset="0.995" stop-color="#248DFF"/>
</linearGradient>
</defs>
</svg>
