<svg width="18" height="18" viewBox="0 0 18 18" fill="none" xmlns="http://www.w3.org/2000/svg">
<path fill-rule="evenodd" clip-rule="evenodd" d="M0.485253 0.514747C-0.100534 1.10053 -0.100533 2.05028 0.485253 2.63607L6.84896 8.99977L0.485026 15.3637C-0.10076 15.9495 -0.10076 16.8992 0.485026 17.485C1.07081 18.0708 2.02056 18.0708 2.60635 17.485L8.97028 11.1211L15.3345 17.4853C15.9203 18.0711 16.87 18.0711 17.4558 17.4853C18.0416 16.8995 18.0416 15.9498 17.4558 15.364L11.0916 8.99977L17.4556 2.63578C18.0414 2.05 18.0414 1.10025 17.4556 0.514463C16.8698 -0.071324 15.9201 -0.0713234 15.3343 0.514463L8.97028 6.87845L2.60657 0.514747C2.02079 -0.0710393 1.07104 -0.0710395 0.485253 0.514747Z" fill="white"/>
</svg>
