<svg width="30" height="29" viewBox="0 0 30 29" fill="none" xmlns="http://www.w3.org/2000/svg">
<path d="M10.5437 23.8147C10.2731 23.5851 10.0557 23.2995 9.90647 22.9776C9.7572 22.6557 9.67965 22.3052 9.67919 21.9504C9.49185 21.5106 12.0818 15.4102 12.2287 14.8593H18.9416C19.0354 14.8596 19.1284 14.8413 19.2151 14.8055C19.3019 14.7697 19.3807 14.7172 19.447 14.6508C19.5134 14.5845 19.566 14.5056 19.6018 14.4189C19.6376 14.3321 19.6558 14.2392 19.6556 14.1453C19.6565 14.0513 19.6387 13.958 19.6031 13.871C19.5676 13.7839 19.515 13.7048 19.4485 13.6384C19.3821 13.5719 19.303 13.5193 19.2159 13.4838C19.1289 13.4482 19.0356 13.4304 18.9416 13.4313L12.2287 13.4313L9.8433 7.2325C9.65635 6.75647 9.62338 6.2338 9.74902 5.73805C9.87465 5.2423 10.1526 4.79842 10.5437 4.46888C10.9303 4.13557 11.4115 3.93161 11.9199 3.88561C12.4283 3.8396 12.9383 3.95386 13.3785 4.21236L26.8825 12.0033C27.2592 12.2195 27.5719 12.5316 27.7888 12.9078C28.0058 13.2841 28.1192 13.711 28.1176 14.1453C28.1183 14.5786 28.0043 15.0044 27.7873 15.3794C27.5703 15.7545 27.258 16.0654 26.882 16.2808L13.3785 24.0712C12.9383 24.3297 12.4283 24.444 11.9199 24.398C11.4115 24.352 10.9303 24.148 10.5437 23.8147Z" fill="white"/>
</svg>
